<?xml version="1.0" encoding="utf-8"?>
<!-- Generator: Adobe Illustrator 20.0.0, SVG Export Plug-In . SVG Version: 6.00 Build 0)  -->
<svg version="1.1" id="レイヤー_1" xmlns="http://www.w3.org/2000/svg" xmlns:xlink="http://www.w3.org/1999/xlink" x="0px"
	 y="0px" viewBox="0 0 59 13" style="enable-background:new 0 0 59 13;" xml:space="preserve">
<style type="text/css">
	.st0{fill:#FFFFFF;}
</style>
<g>
	<path class="st0" d="M10.6,1.7c-0.2,0-0.3,0-0.5,0.3C9.3,2.9,8.4,3.7,7.4,4.5V13h-2V6c-1.1,0.7-2.2,1.4-4,2.3L0,6.8
		C3.4,5.5,6.9,2.9,9.3,0l1.4,1.2c0.1,0,0.3,0.3,0.3,0.4C11,1.7,10.9,1.7,10.6,1.7z"/>
	<path class="st0" d="M27.2,11.2c-2.2-2.1-3.5-3.6-5.3-5.7c-0.8-0.9-1-1.1-1.4-1.1c-0.4,0-0.7,0.3-1,0.7c-0.5,0.5-2.7,3.3-3.2,3.9
		l-1.6-1.4c1.2-1.1,1.3-1.3,2.9-3c1.7-1.9,2.1-2.2,3-2.2c1,0,1.5,0.5,2.3,1.4c1.8,2.1,3.8,4.1,5.8,6L27.2,11.2z M26.5,3.7
		c-0.4-0.4-1-1-1.5-1.3l0.7-0.8c0.5,0.3,1.1,0.8,1.5,1.3L26.5,3.7z M28,2.1c-0.5-0.6-1.1-1-1.5-1.3L27.1,0c0.5,0.3,1,0.8,1.5,1.3
		L28,2.1z"/>
	<path class="st0" d="M35,4.3c-0.9-0.8-2-1.4-3.3-2l1-1.5c1.1,0.5,2.4,1.2,3.4,2L35,4.3z M39.7,8.6c-2.5,2.1-4.1,2.7-6,3.6
		c-0.1,0.2-0.1,0.5-0.2,0.5c-0.1,0-0.2-0.1-0.4-0.3L32,10.5c1.3-0.3,3.4-0.8,5.9-2.8c2.5-1.8,4-3.9,4.7-4.9l1.1,1.6
		C43.1,5.2,41.8,6.9,39.7,8.6z"/>
	<path class="st0" d="M57.8,9.2C56.6,8.1,55,6.8,53.1,6V13h-1.9V0.3l1.9,0.3c0,0,0.4,0.1,0.4,0.3c0,0.1-0.4,0.4-0.4,0.4v4.2l0.8-1.2
		c0.8,0.4,1.3,0.6,2.7,1.5c1.3,0.8,1.9,1.4,2.5,1.9L57.8,9.2z"/>
</g>
</svg>
