<?xml version="1.0" encoding="utf-8"?>
<!-- Generator: Adobe Illustrator 20.0.0, SVG Export Plug-In . SVG Version: 6.00 Build 0)  -->
<svg version="1.1" id="レイヤー_1" xmlns="http://www.w3.org/2000/svg" xmlns:xlink="http://www.w3.org/1999/xlink" x="0px"
	 y="0px" viewBox="0 0 93.1 14" style="enable-background:new 0 0 93.1 14;" xml:space="preserve">
<style type="text/css">
	.st0{fill:#FFFFFF;}
</style>
<g>
	<path class="st0" d="M13.1,13.8c-3.1-1.4-4.4-2.6-5.7-5.2c-1.8,4-4.7,5-6,5.4L0,12.3c1-0.2,2.7-0.6,4.2-2.1C5.5,8.8,5.9,7.4,6,6.7
		H1.6V4.9h4.6V2.4H0.6V0.6h13.6v1.8H8.3c0,1.4,0,1.9,0,2.5h5v1.8H8.5c0.3,0.8,0.9,2.4,2.7,3.8c1.4,1.1,2.7,1.5,3.4,1.7L13.1,13.8z"
		/>
	<path class="st0" d="M28.7,13.9c-2.1-0.6-3.5-1.3-5.5-2.9c-1.6,1.3-2.9,2-6,3l-1.4-1.5c0.8-0.2,1.8-0.4,3.3-1.1
		c1.6-0.7,2.1-1.2,2.8-1.7c-0.6-0.7-1.4-1.6-2.4-3.5c-0.6-1.1-0.8-1.8-1.1-2.6h-2V2.1h5.8V0l1.9,0.1c0.1,0,0.4,0,0.4,0.2
		c0,0.1-0.1,0.1-0.2,0.2c0,0-0.2,0.1-0.2,0.3v1.3h5.7v1.7h-2.2c-0.7,2.2-1.4,4.1-3.1,6.1c1.8,1.4,3.2,1.9,5.3,2.4L28.7,13.9z
		 M20.4,3.7c0.9,2.4,1.7,3.5,2.8,4.8c1.4-1.7,2-3.5,2.3-4.8H20.4z"/>
	<path class="st0" d="M36.1,2c-0.2,1.4-0.4,2.2-0.8,3.2h2.8v6.6h-3v1.7h-1.6V8.8c-0.4,0.5-0.6,0.8-1,1.1l-1.5-1.1
		c2-2,2.9-3.8,3.2-6.7h-2.2V0.4h6.3V2H36.1z M36.6,6.8h-1.5v3.5h1.5V6.8z M44.4,7v6.8h-1.7V7h-1.3c-0.1,1.3-0.2,2.7-0.7,4.3
		c-0.5,1.5-1.2,2.1-1.9,2.7l-1.5-1c0.7-0.6,1.2-1,1.7-1.9c0.7-1.3,0.8-2.8,0.8-4.1h-1.3V5.4h1.3V2H39V0.5h6.5V2h-1.1v3.4h1.3V7H44.4
		z M42.7,2h-1.2v3.4h1.2V2z"/>
	<path class="st0" d="M59.6,13.8h-2.1c-0.8,0-1.5-0.3-1.5-1.2c0-0.3,0.4-3.4,0.4-3.8l-1.9,0c-0.6,2.3-2.7,4.3-5.9,5l-1.4-1.8
		c3.2-0.4,4.9-1.8,5.3-3.2L48.5,9V7.3l4.5-0.1c0-0.3,0-0.8,0-1.7l1.8,0.1V5.1V2.6h-2.3l1.3,0.6C53.9,3.2,54,3.3,54,3.4
		c0,0,0,0.1-0.1,0.2c0,0-0.4,0.1-0.4,0.2c-1,1.7-2,2.5-3.8,3.1l-1.2-1.5C49.2,5.2,50.1,5,51,4.2c0.7-0.6,0.9-1.2,1-1.6h-2.2v1.8H48
		V0.9h5.5V0l2.1,0.1c0,0,0.3,0,0.3,0.2c0,0,0,0.1,0,0.1c0,0-0.3,0.2-0.3,0.2v0.3h5.6v3.3h-1.1c-0.4,1.8-0.9,2.1-2,2.1h-2.5
		c-0.2,0-0.4,0-0.6-0.2c0,0.4,0,0.6-0.1,1L58.5,7c-0.3,2.2-0.5,4.2-0.5,4.3c0,0.5,0.4,0.6,0.5,0.6h0.8c0.5,0,0.6-0.4,0.8-1.5
		l1.7,0.7C61.4,12.9,61.1,13.8,59.6,13.8z M59.4,2.6h-2.9v1.8c0,0.2,0.1,0.4,0.4,0.4h0.8c0.4,0,0.5-0.4,0.7-1l1,0.3V2.6z"/>
	<path class="st0" d="M76,12c-0.8-0.6-1.5-1.1-2.5-2.2v1.6h-2.3v2.6h-1.9v-2.6h-2.2V9.7h2.2V6.1c-1,2.1-2.9,4.6-4.6,6.1l-1.5-1.1
		c2.1-1.6,4.2-4.5,5-6.7h-4.8V2.7h5.9V0l1.6,0.1c0.2,0,0.6,0.1,0.6,0.3c0,0.1,0,0.1-0.1,0.2c-0.1,0.1-0.1,0.1-0.1,0.2v2h5.9v1.7h-5
		c1,2.6,3,4.6,5.3,6.3L76,12z M71.2,6.3v3.5h2.3C72.1,8.1,71.6,7,71.2,6.3z"/>
	<path class="st0" d="M79.1,7V5.5h1.8C80.6,4.7,80.3,4,80,3.4L81.1,3h-1.5V1.6h2.6V0l2.1,0.1c0.2,0,0.3,0,0.3,0.2
		c0,0.1,0,0.1-0.1,0.2c-0.2,0.2-0.2,0.2-0.2,0.2v0.9h2.2V3h-1.7L86,3.7c0.1,0.1,0.2,0.1,0.2,0.2c0,0.1-0.1,0.1-0.2,0.2
		c-0.2,0.1-0.3,0.1-0.3,0.2c-0.2,0.7-0.4,1-0.5,1.2h1.5V7H79.1z M84.2,13.6v-0.4h-2.7v0.5h-1.6V7.9h6v5.8H84.2z M81.5,3
		c0.5,0.9,0.7,1.5,0.9,2.2l-0.9,0.4h1.9c0.4-0.9,0.8-1.7,1-2.5H81.5z M84.2,9.5h-2.7v2.1h2.7V9.5z M89.9,12.4l-1.1-1.6v3h-1.7V0.7
		h5.3l0.6,0.9c-1.3,2.6-1.4,2.9-2,4.1c0.7,0.6,2,1.8,2,3.7C93.1,10.7,92.4,12.4,89.9,12.4z M89.4,5.8c0.3-0.7,0.9-2.2,1.3-3.6h-1.8
		v8.4c0.3,0,0.7,0,0.9,0c1.1,0,1.7-0.7,1.7-1.4C91.4,7.9,89.9,6.3,89.4,5.8z"/>
</g>
</svg>
