<?xml version="1.0" encoding="utf-8"?>
<!-- Generator: Adobe Illustrator 19.2.1, SVG Export Plug-In . SVG Version: 6.00 Build 0)  -->
<svg version="1.1" id="レイヤー_1" xmlns="http://www.w3.org/2000/svg" xmlns:xlink="http://www.w3.org/1999/xlink" x="0px"
	 y="0px" viewBox="0 0 93.5 33.1" style="enable-background:new 0 0 93.5 33.1;" xml:space="preserve">
<style type="text/css">
	.st0{fill:#FFFFFF;}
</style>
<g>
	<path class="st0" d="M23.9,11c-1.4,3.7-3,8.2-6.6,12.8c-3.9,4.9-8.1,7.2-10.7,8.6l-3.8-3.1c4-1.9,12.3-6.1,16.5-18.7H0V6.4h20.6
		c0.4,0,0.8-0.3,1.2-0.6l3.6,3.3C24.8,9.7,24.2,10.2,23.9,11z M21.5,5.1c-0.5-0.7-1.7-2.1-3-3.2l1.8-1.6c1.3,1.1,2.6,2.6,3,3.2
		L21.5,5.1z M26.8,4.9c-0.9-1.2-1.8-2.3-3-3.3L25.6,0c1.3,1,2.4,2.4,3.1,3.3L26.8,4.9z"/>
	<path class="st0" d="M54.1,30.7v-1.6H37.6v1.4h-4.3V6.7h25.2v23.9H54.1z M54.1,10.8H37.6V25h16.5V10.8z"/>
	<path class="st0" d="M88.3,12.9c-1.2,3.3-2.6,7-6.2,11.5c-3.9,4.8-7.8,7.3-10,8.7l-4-2.8c2.2-1.1,7.1-3.6,11.7-9.6
		c3.1-4.1,4.1-7.5,4.7-9.1h-9.3c-2.1,3-3.7,4.8-7,8l-3.6-2.6c5.2-4.1,8.8-9.4,10.4-14l3.6,1.6c0.3,0.1,0.9,0.4,0.9,0.8
		c0,0.2-0.2,0.3-0.8,0.5c-0.4,0.5-0.8,1.4-1.2,2h8.1c0.4,0,0.9-0.1,1.6-0.5l3.1,3.6C89,11.6,88.4,12.4,88.3,12.9z M86.4,6.1
		c-0.9-1.2-1.9-2.1-3.2-3l1.9-1.5c1.2,0.9,2.2,1.8,3.1,3L86.4,6.1z M91.6,6.1c-0.7-0.9-1.7-2.4-3.2-3.5l1.9-1.5
		c1.2,0.9,2.4,2.3,3.2,3.5L91.6,6.1z"/>
</g>
</svg>
