<?xml version="1.0" encoding="utf-8"?>
<!-- Generator: Adobe Illustrator 20.0.0, SVG Export Plug-In . SVG Version: 6.00 Build 0)  -->
<svg version="1.1" id="レイヤー_1" xmlns="http://www.w3.org/2000/svg" xmlns:xlink="http://www.w3.org/1999/xlink" x="0px"
	 y="0px" viewBox="0 0 115 13" style="enable-background:new 0 0 115 13;" xml:space="preserve">
<style type="text/css">
	.st0{fill:#FFFFFF;}
</style>
<g>
	<path class="st0" d="M0,12.4V0.7h2.2v9.9h6.5v1.8H0z"/>
	<path class="st0" d="M15.2,7.9v4.5h-2.2V7.9L8.9,0.7h2.4l2.4,4.6l0.4,0.8l0.4-0.8l2.4-4.6h2.4L15.2,7.9z"/>
	<path class="st0" d="M27.9,12.4L23.3,5L22.4,3l0.2,2.6v6.8h-2.1V0.7h2.3l4.6,7.5l0.9,1.9l-0.2-2.6V0.7h2.1v11.7H27.9z"/>
	<path class="st0" d="M37.5,12.8c-3.9,0-5.6-2.9-5.6-6.1c0-3.1,1.6-6.4,5.8-6.4c3.3,0,4.8,2.2,5,4.1h-2.3c-0.4-2.2-2.3-2.2-2.6-2.2
		c-1.8,0-3.5,1.5-3.5,4.4c0,2.7,1.5,4.3,3.3,4.3c0.8,0,1.5-0.3,2.1-0.9c0.5-0.5,0.6-0.9,0.7-1.6h2.3C42.4,10.4,40.9,12.8,37.5,12.8z
		"/>
	<path class="st0" d="M48.6,12.8c-2,0-4.9-0.5-5-3.9h2.2c0.1,1.9,1.8,2.1,2.7,2.1c0.5,0,2.9-0.1,2.9-1.7c0-0.9-0.5-1.2-1.6-1.4
		l-2.8-0.6c-1.5-0.3-3.1-1.2-3.1-3.4c0-2.5,2.4-3.5,4.7-3.5c1,0,2.5,0.2,3.5,1.2c0.7,0.6,0.9,1.2,1.2,2.5h-2.2
		c-0.1-1.8-2-1.9-2.5-1.9c-0.4,0-2.6,0-2.6,1.6c0,0.7,0.4,1.2,1.7,1.5l3,0.7c0.9,0.2,2.9,0.9,2.9,3.2C53.5,11.2,51.7,12.8,48.6,12.8
		z"/>
	<path class="st0" d="M58.8,12l-1.3,0.5c-0.3-0.4-0.4-0.7-0.6-1.3c-0.5-1.5-0.7-3-0.7-4.2c0-1,0.1-2.2,0.2-3.2
		c0.2-1.7,0.4-2.7,0.7-3.7l1.6,0.6c0.1,0,0.4,0.2,0.4,0.3c0,0,0,0.1-0.1,0.1c0,0-0.2,0.1-0.3,0.1c-0.2,0.1-0.9,3-0.9,5.5
		c0,0.3,0,1.5,0.2,2.2c0.2-0.3,0.3-0.5,0.6-1.1l0.9,0.5C59.2,9.7,59,11,58.8,12z M64.6,11.5c-2.9,0-3.5-0.8-3.6-3.5l1.7-0.2
		c0,1.5,0.2,2,1.8,2c1.8,0,3.1-0.3,3.7-0.5v2C67.4,11.4,66.3,11.5,64.6,11.5z M63.3,3.3c-0.1,0-0.9,0-1.7-0.1V1.5
		c0.5,0.1,1.2,0.2,2.1,0.2c1.9,0,3.2-0.4,3.8-0.7v1.9C66.7,3,65.1,3.3,63.3,3.3z"/>
	<path class="st0" d="M81.3,10.3c-1.7,0.9-3.6,1.2-5.5,1.2L75,9.4c0.5,0.1,1.1,0.1,1.6,0.1c2.7,0,5.7-1.1,5.7-3.7c0-2-1.7-2.6-3-2.6
		c-0.9,0-2.4,0.4-3.6,0.7C75.2,4.1,72.5,4.8,72,5l-0.9-2c1.5-0.2,3.1-0.5,4.1-0.8c1.9-0.5,2.9-0.7,4-0.7c2.1,0,4.9,1.1,4.9,4.5
		C84.2,8.3,82.7,9.6,81.3,10.3z"/>
	<path class="st0" d="M90.3,11.7c-0.5,0-0.9-0.3-1.2-0.5c-1.1-1.1-1.6-3-1.6-6c0-2.1,0.2-3.1,0.5-4.2l1.8,0.5c0.1,0,0.4,0.1,0.4,0.3
		c0,0.2-0.2,0.2-0.5,0.3c-0.2,0.9-0.3,1.8-0.3,3.6c0,3.1,0.8,3.7,1.1,3.7c0.6,0,1.2-1.7,1.5-2.5l1.3,1.2
		C92.4,10,91.6,11.7,90.3,11.7z M98.4,8.8c-0.5-3.3-1.5-5.2-2.4-6.5l1.7-0.8c0.8,1.1,2.2,3.1,2.6,6.8L98.4,8.8z"/>
	<path class="st0" d="M111.3,3.5c-1.4,1.1-2.7,2.9-2.7,4.5c0,0.5,0.2,1.5,1.2,2.2c1,0.7,2.1,0.8,2.8,0.8l-0.6,2
		c-1.3-0.3-5.3-1.1-5.3-4.7c0-2.7,2.4-5,3.1-5.7c-2,0.2-4.2,0.3-6.1,0.7l-0.3-1.9c3.8,0,8.6-0.6,11.7-1.5v1.9
		C114.4,2,113.1,2.1,111.3,3.5z"/>
</g>
</svg>
