<?xml version="1.0" encoding="utf-8"?>
<!-- Generator: Adobe Illustrator 19.2.1, SVG Export Plug-In . SVG Version: 6.00 Build 0)  -->
<svg version="1.1" id="レイヤー_1" xmlns="http://www.w3.org/2000/svg" xmlns:xlink="http://www.w3.org/1999/xlink" x="0px"
	 y="0px" viewBox="0 0 306.7 245.1" style="enable-background:new 0 0 306.7 245.1;" xml:space="preserve">
<style type="text/css">
	.st0{fill:#FFFFFF;}
</style>
<path class="st0" d="M212.1,133.4c-88.8,0-106,17.3-106,106c0-88.8-17.3-106-106-106c88.8,0,106-17.3,106-106
	C106,116.1,123.3,133.4,212.1,133.4z"/>
<path class="st0" d="M217.9,191.6c-44.8,0-53.5,8.7-53.5,53.5c0-44.8-8.7-53.5-53.5-53.5c44.8,0,53.5-8.7,53.5-53.5
	C164.4,182.9,173.2,191.6,217.9,191.6z"/>
<path class="st0" d="M109.2,128.8c0,0,0.1-0.2,0.4-0.6c0.3-0.4,0.8-1.1,1.3-1.8c1.1-1.5,2.7-3.7,4.8-6.5c2.1-2.7,4.6-6,7.6-9.7
	c3-3.7,6.4-7.8,10.1-12.2c1.9-2.2,3.8-4.5,5.9-6.8c2.1-2.3,4.2-4.7,6.5-7.1c2.2-2.4,4.6-4.8,7-7.3c1.2-1.2,2.5-2.5,3.7-3.7
	c1.2-1.3,2.5-2.5,3.8-3.7c1.3-1.2,2.6-2.5,3.9-3.7c1.3-1.3,2.7-2.5,4-3.7c2.7-2.5,5.5-4.9,8.4-7.4c1.4-1.3,2.9-2.4,4.3-3.6
	c1.5-1.2,2.9-2.4,4.4-3.6c1.5-1.2,3-2.3,4.5-3.5c1.5-1.2,3-2.4,4.5-3.4c3.1-2.2,6.2-4.5,9.3-6.5c1.6-1.1,3.1-2.1,4.7-3.2
	c1.6-1,3.2-2,4.8-2.9c1.6-1,3.2-2,4.8-2.9c1.6-0.9,3.2-1.8,4.8-2.7c3.2-1.8,6.5-3.3,9.7-4.9c0.8-0.4,1.6-0.8,2.4-1.2
	c0.8-0.3,1.6-0.7,2.4-1c1.6-0.7,3.2-1.4,4.8-2c0.8-0.3,1.6-0.7,2.4-1c0.8-0.3,1.6-0.6,2.4-0.9c1.6-0.6,3.1-1.1,4.7-1.7
	c0.8-0.3,1.5-0.6,2.3-0.8c0.8-0.2,1.5-0.5,2.3-0.7c1.5-0.5,3-0.9,4.5-1.3c2.9-1,5.8-1.6,8.6-2.2c1.4-0.3,2.7-0.6,4.1-1
	c1.3-0.3,2.6-0.5,3.9-0.7c2.6-0.4,5-0.8,7.2-1.2c2.3-0.2,4.4-0.5,6.4-0.7c2-0.2,3.8-0.5,5.5-0.5c6.6-0.2,10.4-0.4,10.4-0.4
	s-3.8,0.2-10.4,0.5c-1.7,0.1-3.5,0.4-5.4,0.6c-2,0.2-4.1,0.5-6.4,0.7c-2.3,0.4-4.7,0.9-7.2,1.3c-1.3,0.3-2.6,0.4-3.9,0.8
	c-1.3,0.3-2.7,0.7-4,1c-2.7,0.7-5.6,1.3-8.5,2.3c-1.5,0.5-2.9,0.9-4.4,1.4c-0.8,0.2-1.5,0.5-2.3,0.7c-0.7,0.3-1.5,0.6-2.3,0.9
	c-1.5,0.6-3,1.2-4.6,1.8c-0.8,0.3-1.6,0.6-2.3,0.9c-0.8,0.3-1.5,0.7-2.3,1c-1.6,0.7-3.1,1.4-4.7,2.1c-0.8,0.4-1.6,0.7-2.4,1.1
	c-0.8,0.4-1.6,0.8-2.3,1.2c-3.1,1.7-6.4,3.2-9.5,5.1c-1.6,0.9-3.1,1.8-4.7,2.8c-1.6,0.9-3.1,2-4.7,3c-1.5,1-3.1,2-4.7,3.1
	c-1.5,1.1-3,2.2-4.6,3.3c-3.1,2.1-6,4.6-8.9,6.9c-1.5,1.2-2.9,2.4-4.3,3.6c-1.4,1.2-2.8,2.5-4.2,3.7c-1.4,1.3-2.7,2.6-4.1,3.9
	c-1.4,1.3-2.7,2.5-4,3.9c-2.6,2.7-5.1,5.3-7.5,8c-1.2,1.3-2.4,2.7-3.6,4c-1.1,1.4-2.3,2.7-3.4,4.1c-2.3,2.7-4.4,5.4-6.5,8.1
	c-1,1.4-2,2.7-3,4c-1,1.3-2,2.6-2.9,4c-3.7,5.3-7,10.4-9.9,15.1c-1.4,2.4-2.8,4.7-4,6.9c-1.2,2.2-2.4,4.3-3.4,6.4
	c-2.1,4-3.8,7.6-5.1,10.5c-1.3,3-2.2,5.3-2.9,6.9c-0.3,0.8-0.5,1.4-0.6,1.7c-0.1,0.4-0.2,0.6-0.2,0.6L109.2,128.8z"/>
</svg>
