<svg id="レイヤー_1" data-name="レイヤー 1" xmlns="http://www.w3.org/2000/svg" viewBox="0 0 3801.1 689.2"><defs><style>.cls-1{fill:#fff;}</style></defs><polygon class="cls-1" points="103 251.7 67.5 251.7 0 437 121.7 437 133.6 404.3 47.5 404.3 103 251.7"/><polygon class="cls-1" points="266.6 251.7 196.1 329.1 181.2 251.7 141.1 251.7 165.4 363.5 138.7 437 174.2 437 200.3 365.2 307.4 251.7 266.6 251.7"/><polygon class="cls-1" points="389.6 437 457 251.7 422.9 251.7 377 377.8 349.3 251.7 313.8 251.7 246.4 437 280.5 437 326.4 310.7 354.1 437 389.6 437"/><path class="cls-1" d="M889.3,526.5c71.1-76.9,124.5-161.7,150.5-238.8,26.5-78.5,21.3-140-14.6-173.1s-97.6-33.4-173.8-.8c-3,1.3-6.1,2.7-9.1,4.1a34.24,34.24,0,0,1-1.3-10.3,71.28,71.28,0,0,1,2.8-18.4c2.3-8.3,5-16.5,7.6-24.8.8-2.5,1.8-4.9,2.7-7.3-.1,0-.2-.1-.4-.1-1,2.7-1.9,5.4-2.9,8a232.05,232.05,0,0,1-10.9,25.1,80,80,0,0,1-8.6,13.6A30.94,30.94,0,0,1,805,115.9c-7.8-.2-15.3-1.9-22.7-4-3.8-1.1-7.6-2.2-11.3-3.4-2.4-.8-4.8-1.7-7.1-2.5-.1.2-.1.4-.2.6.2.1.5.2.7.3,7.4,2.9,14.7,5.9,21.8,9.4a90.27,90.27,0,0,1,13.7,8.2,34.48,34.48,0,0,1,9.4,10.1c-62.1,34.2-126.1,85.6-183.9,148.2-7.1,7.7-14.2,15.7-21.2,23.9a96.48,96.48,0,0,0-18,5.7,128.94,128.94,0,0,0-33.6,20.8,157.4,157.4,0,0,0-27.4,30.5,163.76,163.76,0,0,0-19.1,36.9,124.85,124.85,0,0,0-7.9,37.3,77.41,77.41,0,0,0,2.3,22.6c-40.1,80.9-51.9,150.8-34.6,198a34.68,34.68,0,0,1-9.8,1.1c-7.8-.2-15.3-1.9-22.7-4-3.8-1.1-7.6-2.2-11.3-3.4-2.4-.8-4.8-1.7-7.1-2.5-.1.2-.1.4-.2.6.2.1.5.2.7.3,7.4,2.9,14.7,5.9,21.8,9.4a90.27,90.27,0,0,1,13.7,8.2c9,6.7,13.9,15.4,13.7,26.8a82.59,82.59,0,0,1-3.5,21.5c-2.3,7.9-4.9,15.8-7.5,23.7-.6,1.9-1.4,3.8-2.1,5.8.1.1.3.1.4.2,1.4-3.9,2.8-7.7,4.2-11.6q4.05-10.5,9-20.7a86.81,86.81,0,0,1,8.1-13.4A34.14,34.14,0,0,1,485,690.3c1.4,1.5,2.9,3,4.4,4.4,18.1,16.7,42.8,25.1,72.5,25.1,29.3,0,63.5-8.1,101.2-24.2,54.1-23.2,111.2-61,165.5-109.4a84.74,84.74,0,0,1-3.4,19.5c-2.3,7.9-4.9,15.8-7.5,23.7-.6,1.9-1.4,3.8-2.1,5.8.1.1.3.1.4.2,1.4-3.9,2.8-7.7,4.2-11.6q4-10.5,9-20.7a86.81,86.81,0,0,1,8.1-13.4c6.6-8.9,15.3-13.6,26.5-13.5a84.09,84.09,0,0,1,21.7,3.5c6.8,1.9,13.4,4.2,20.1,6.3.2.1.4,0,.6.1a.77.77,0,0,1-.1-.3,14.46,14.46,0,0,0-2.2-.9c-7.2-2.8-14.2-5.8-21.1-9.2a82.07,82.07,0,0,1-13.9-8.5,33.39,33.39,0,0,1-9.2-10.4C869.9,547,879.7,536.9,889.3,526.5ZM808.1,122.7c11,.7,19.7-3.4,26.3-12.2a31.93,31.93,0,0,0,2.5,14.8,30.55,30.55,0,0,0,9.7,11.5c-11-.6-19.7,3.4-26.2,12C821,138,817,129.3,808.1,122.7ZM471.4,692.5c.6-10.8-3.4-19.5-12.3-26.1,11,.7,19.7-3.4,26.3-12.2a31.93,31.93,0,0,0,2.5,14.8,30.55,30.55,0,0,0,9.7,11.5C486.6,679.8,478,683.8,471.4,692.5ZM861.9,569.7c-11-.6-19.7,3.4-26.2,12,.6-10.8-3.4-19.5-12.3-26.1,11,.7,19.7-3.4,26.3-12.2a31.93,31.93,0,0,0,2.5,14.8A31.48,31.48,0,0,0,861.9,569.7Zm-5.5-24.9c-.1-1.4-.2-2.9-.2-4.4A71.28,71.28,0,0,1,859,522c2.3-8.3,5-16.5,7.6-24.8.8-2.5,1.8-4.9,2.7-7.3-.1,0-.2-.1-.4-.1-1,2.7-1.9,5.4-2.9,8a232.05,232.05,0,0,1-10.9,25.1,80,80,0,0,1-8.6,13.6,30.94,30.94,0,0,1-26.3,12.2c-7.8-.2-15.3-1.9-22.7-4-3.8-1.1-7.6-2.2-11.3-3.4-2.4-.8-4.8-1.7-7.1-2.5-.1.2-.1.4-.2.6.2.1.5.2.7.3,7.4,2.9,14.7,5.9,21.8,9.4a90.27,90.27,0,0,1,13.7,8.2A31.61,31.61,0,0,1,827,572.7c-55.1,50-113.3,89-168.2,112.5-71.5,30.6-128.7,31.2-161.3,1.7.8,0,1.5-.1,2.3-.1a84.09,84.09,0,0,1,21.7,3.5c6.8,1.9,13.4,4.2,20.1,6.3.2.1.4,0,.6.1a.77.77,0,0,1-.1-.3,14.46,14.46,0,0,0-2.2-.9c-7.2-2.8-14.2-5.8-21.1-9.2a82.07,82.07,0,0,1-13.9-8.5c-8.8-6.7-13.3-15.5-13-26.7a71.28,71.28,0,0,1,2.8-18.4c2.3-8.3,5-16.5,7.6-24.8.8-2.5,1.8-4.9,2.7-7.3-.1,0-.2-.1-.4-.1-1,2.7-1.9,5.4-2.9,8a232.05,232.05,0,0,1-10.9,25.1,80,80,0,0,1-8.6,13.6,36.83,36.83,0,0,1-6.3,6.2c-14.8-42.6-4.4-106.5,30.1-179.5a46.6,46.6,0,0,0,16.6,16.4c8.6,5.2,19.7,7.8,32.8,7.8a92.54,92.54,0,0,0,31.1-5.4A111.2,111.2,0,0,0,615,477.3a127.5,127.5,0,0,0,24-23.6,132.72,132.72,0,0,0,17.6-30.1l1.6-3.8H623.3l-.7,1.6a96.59,96.59,0,0,1-10.5,17.9,77.91,77.91,0,0,1-13.5,14.5,61.31,61.31,0,0,1-16,9.6,46.6,46.6,0,0,1-17.8,3.4c-8.4,0-15-1.8-19.6-5.2a25,25,0,0,1-9.4-14c-1.7-6.1-2-13.1-1-21a110.55,110.55,0,0,1,6.1-24.6,133.24,133.24,0,0,1,11.9-24.7,115.37,115.37,0,0,1,16.7-21.5,78.63,78.63,0,0,1,20.9-15,54.75,54.75,0,0,1,24.3-5.5c5.8,0,10.5.8,14.2,2.4a20.47,20.47,0,0,1,8.4,6.5,22.07,22.07,0,0,1,3.9,10.1,51.5,51.5,0,0,1,0,13.6l-.4,3.1h34.9l.5-2c2.7-10.1,3.4-19.2,2.1-27.1a42.17,42.17,0,0,0-9.1-20.6,45.2,45.2,0,0,0-18.9-12.9,74.41,74.41,0,0,0-26.3-4.3c-1.2,0-2.3,0-3.5.1,4.3-4.9,8.7-9.7,13-14.4,56.6-61.3,119-111.6,179.6-145.2a42.32,42.32,0,0,1,.5,6.3,82.59,82.59,0,0,1-3.5,21.5c-2.3,7.9-4.9,15.8-7.5,23.7-.6,1.9-1.4,3.8-2.1,5.8.1.1.3.1.4.2,1.4-3.9,2.8-7.7,4.2-11.6q4-10.5,9-20.7a86.81,86.81,0,0,1,8.1-13.4c6.6-8.9,15.3-13.6,26.5-13.5a84.09,84.09,0,0,1,21.7,3.5c6.8,1.9,13.4,4.2,20.1,6.3.2.1.4,0,.6.1a.77.77,0,0,1-.1-.3,14.46,14.46,0,0,0-2.2-.9c-7.2-2.8-14.2-5.8-21.1-9.2a82.07,82.07,0,0,1-13.9-8.5,34.37,34.37,0,0,1-6.6-6.6c2.8-1.3,5.6-2.5,8.4-3.7,71.9-30.8,129.4-31.2,161.9-1.2s36.6,87.4,11.6,161.5c-25.5,75.6-78.1,159-148.1,234.8C873,527.9,864.7,536.5,856.4,544.8Z" transform="translate(-71.1 -57)"/><path class="cls-1" d="M827.9,310.1c-7.3-3.6-16-6-26.7-7.5a102.91,102.91,0,0,0-24.3-.4,96.26,96.26,0,0,0-25.7,6.1,87.46,87.46,0,0,0-24,14.1,77,77,0,0,0-19,23.7c-5.4,10.2-7.6,18.9-6.8,26.7a35.15,35.15,0,0,0,8.9,20.4A58.48,58.48,0,0,0,728,406a3,3,0,0,1,.8.4,28.58,28.58,0,0,0,28.6,26.7,29,29,0,0,0,17.8-6.1,46.32,46.32,0,0,1,4.2,3.2,13.35,13.35,0,0,1,4.5,7.7c.3,1.7.2,5.5-3.5,12.5a45.79,45.79,0,0,1-12.5,15.3,59.23,59.23,0,0,1-16.4,9.1,62.6,62.6,0,0,1-17.2,3.8,79.91,79.91,0,0,1-15.7-.3c-7.7-1.1-29.5-3.8-35.1-18.8-8.5,0-30.9.3-36.3.1,0,18.3,20,34.3,39.5,41.5a97,97,0,0,0,37.8,6.5c3.5,0,7.2-.2,10.9-.5a100.07,100.07,0,0,0,26.9-6.3,95,95,0,0,0,25.3-14.6,78.43,78.43,0,0,0,20.6-25.3c5.4-10.2,7.8-19.1,7.3-27.1a35.26,35.26,0,0,0-8.6-21.3,57,57,0,0,0-17.5-13.3c-1.4-.7-2.8-1.4-4.3-2.1a28.76,28.76,0,0,0-41.2-17.4,39.88,39.88,0,0,1-6.4-4.4,12.48,12.48,0,0,1-4.5-7.2c-.3-1.5-.3-4.8,3.1-11.3a44.12,44.12,0,0,1,11.6-14.3,55.64,55.64,0,0,1,15.2-8.4,59.13,59.13,0,0,1,16.2-3.3,76.67,76.67,0,0,1,14.7.4c6.9,1,13,2.2,17.6,5,4.3,2.6,7.3,5.9,9.7,11.9h31.7C852.5,329.1,842.4,317.2,827.9,310.1Zm-70.6,82.4a12.1,12.1,0,1,1-12.1,12.1A12.08,12.08,0,0,1,757.3,392.5Z" transform="translate(-71.1 -57)"/><path class="cls-1" d="M88.6,539.8h6.7v31.7h15.1v5.7H88.6Z" transform="translate(-71.1 -57)"/><path class="cls-1" d="M129,577.1l-.4-3.4h-.2a9.79,9.79,0,0,1-8,4c-5.3,0-8-3.8-8-7.7,0-6.5,5.7-10,15.8-10v-.6c0-2.2-.6-6.2-6-6.2a12.92,12.92,0,0,0-6.8,2l-1.1-3.2a16.42,16.42,0,0,1,8.6-2.4c8,0,10,5.6,10,11v10a41.39,41.39,0,0,0,.4,6.4H129Zm-.7-13.7c-5.2-.1-11.1.8-11.1,6a4.3,4.3,0,0,0,4.5,4.7,6.65,6.65,0,0,0,6.4-4.5,4.53,4.53,0,0,0,.3-1.6v-4.6Z" transform="translate(-71.1 -57)"/><path class="cls-1" d="M139.3,577.1c.1-1.8.2-4.5.2-6.9V537.8h4.7v16.9h.1c1.7-3,4.7-4.9,9-4.9,6.5,0,11.1,5.5,11.1,13.7,0,9.6-5.9,14.4-11.8,14.4a9.42,9.42,0,0,1-8.8-5h-.2l-.2,4.4h-4.1Zm4.9-10.7a11,11,0,0,0,.2,1.8,7.37,7.37,0,0,0,7.2,5.7c5,0,8-4.2,8-10.3,0-5.4-2.7-10-7.8-10a7.69,7.69,0,0,0-7.3,6,10.58,10.58,0,0,0-.3,2v4.8Z" transform="translate(-71.1 -57)"/><path class="cls-1" d="M193.1,563.5c0,9.9-6.7,14.2-13.1,14.2-7.1,0-12.6-5.3-12.6-13.8,0-9,5.8-14.2,13-14.2C188,549.7,193.1,555.3,193.1,563.5Zm-20.8.3c0,5.9,3.3,10.3,8,10.3s8-4.4,8-10.4c0-4.5-2.2-10.3-7.9-10.3S172.3,558.7,172.3,563.8Z" transform="translate(-71.1 -57)"/><path class="cls-1" d="M198.1,558.7c0-3.2-.1-5.9-.2-8.4h4.2l.2,5.3h.2c1.2-3.6,4.1-5.9,7.3-5.9a6.75,6.75,0,0,1,1.4.2v4.6a7.77,7.77,0,0,0-1.6-.2c-3.4,0-5.8,2.6-6.4,6.3a15.16,15.16,0,0,0-.2,2.3v14.3h-4.7V558.7Z" transform="translate(-71.1 -57)"/><path class="cls-1" d="M229.1,577.1l-.4-3.4h-.2a9.79,9.79,0,0,1-8,4c-5.3,0-8-3.8-8-7.7,0-6.5,5.7-10,15.8-10v-.6c0-2.2-.6-6.2-6-6.2a12.92,12.92,0,0,0-6.8,2l-1.1-3.2a16.42,16.42,0,0,1,8.6-2.4c8,0,10,5.6,10,11v10a41.39,41.39,0,0,0,.4,6.4h-4.3Zm-.8-13.7c-5.2-.1-11.1.8-11.1,6a4.3,4.3,0,0,0,4.5,4.7,6.65,6.65,0,0,0,6.4-4.5,4.53,4.53,0,0,0,.3-1.6v-4.6Z" transform="translate(-71.1 -57)"/><path class="cls-1" d="M245.1,542.6v7.7h6.8V554h-6.8v14.5c0,3.3.9,5.2,3.6,5.2a15.82,15.82,0,0,0,2.8-.3l.2,3.7a11,11,0,0,1-4.2.7,6.56,6.56,0,0,1-5.2-2.1c-1.4-1.4-1.8-3.8-1.8-7V554h-4.1v-3.7h4.1v-6.4Z" transform="translate(-71.1 -57)"/><path class="cls-1" d="M279.7,563.5c0,9.9-6.7,14.2-13.1,14.2-7.1,0-12.6-5.3-12.6-13.8,0-9,5.8-14.2,13-14.2C274.6,549.7,279.7,555.3,279.7,563.5Zm-20.8.3c0,5.9,3.3,10.3,8,10.3s8-4.4,8-10.4c0-4.5-2.2-10.3-7.9-10.3S258.9,558.7,258.9,563.8Z" transform="translate(-71.1 -57)"/><path class="cls-1" d="M284.7,558.7c0-3.2-.1-5.9-.2-8.4h4.2l.2,5.3h.2c1.2-3.6,4.1-5.9,7.3-5.9a6.75,6.75,0,0,1,1.4.2v4.6a7.77,7.77,0,0,0-1.6-.2c-3.4,0-5.8,2.6-6.4,6.3a15.16,15.16,0,0,0-.2,2.3v14.3h-4.7V558.7Z" transform="translate(-71.1 -57)"/><path class="cls-1" d="M304.5,550.3l5.8,15.9c.6,1.8,1.3,3.9,1.7,5.5h.1c.5-1.6,1-3.7,1.7-5.6l5.2-15.7h5.1l-7.2,19.1c-3.4,9.2-5.8,13.9-9,16.8a13.82,13.82,0,0,1-5.9,3.2l-1.2-4.1A13.11,13.11,0,0,0,305,583a15.14,15.14,0,0,0,4-5.4,4.15,4.15,0,0,0,.4-1.2,4.51,4.51,0,0,0-.3-1.3l-9.7-24.7h5.1Z" transform="translate(-71.1 -57)"/><path class="cls-1" d="M361.5,563.5c0,9.9-6.7,14.2-13.1,14.2-7.1,0-12.6-5.3-12.6-13.8,0-9,5.8-14.2,13-14.2C356.4,549.7,361.5,555.3,361.5,563.5Zm-20.9.3c0,5.9,3.3,10.3,8,10.3s8-4.4,8-10.4c0-4.5-2.2-10.3-7.9-10.3S340.6,558.7,340.6,563.8Z" transform="translate(-71.1 -57)"/><path class="cls-1" d="M366.9,577.1V554h-3.7v-3.7h3.7V549c0-3.8.8-7.2,3-9.4a9,9,0,0,1,6.4-2.5,10.59,10.59,0,0,1,4.1.8l-.7,3.8a7.53,7.53,0,0,0-3-.6c-4.1,0-5.1,3.7-5.1,7.8v1.4H378V554h-6.4v23.1Z" transform="translate(-71.1 -57)"/><path class="cls-1" d="M88.1,631.4a12.69,12.69,0,0,0,6.3,1.9c3.5,0,5.1-1.8,5.1-4s-1.4-3.6-4.9-4.9c-4.7-1.7-7-4.4-7-7.6,0-4.3,3.4-7.9,9.1-7.9a12.9,12.9,0,0,1,6.5,1.7l-1.2,3.5a9.59,9.59,0,0,0-5.4-1.6c-2.8,0-4.4,1.7-4.4,3.7,0,2.2,1.6,3.2,5,4.5,4.6,1.8,6.9,4.1,6.9,8.1,0,4.7-3.6,8-9.8,8a15,15,0,0,1-7.4-1.8Z" transform="translate(-71.1 -57)"/><path class="cls-1" d="M115.7,636.4V620.8L104.1,599h7.6l4.4,9.6c1.3,2.8,2.2,4.9,3.2,7.4h.1c.9-2.4,2-4.7,3.2-7.4L127,599h7.6l-12.2,21.6v15.7h-6.7Z" transform="translate(-71.1 -57)"/><path class="cls-1" d="M137.4,636.4V599H145l9.5,16a122.08,122.08,0,0,1,6.3,12.5h.1c-.4-5-.6-9.8-.6-15.5V599h6.2v37.4h-6.9L150,620a142.73,142.73,0,0,1-6.6-12.9l-.2.1c.3,4.8.3,9.8.3,15.9v13.4h-6.1Z" transform="translate(-71.1 -57)"/><path class="cls-1" d="M178.9,601.9v7.7h6.8v3.7h-6.8v14.5c0,3.3.9,5.2,3.6,5.2a14.72,14.72,0,0,0,2.8-.3l.2,3.7a11,11,0,0,1-4.2.7,6.56,6.56,0,0,1-5.2-2.1c-1.4-1.4-1.8-3.8-1.8-7V613.4h-4.1v-3.7h4.1v-6.4Z" transform="translate(-71.1 -57)"/><path class="cls-1" d="M190,597.1h4.8v16.7h.1a9.24,9.24,0,0,1,3.4-3.4,10,10,0,0,1,4.9-1.4c3.5,0,9.2,2.2,9.2,11.5v16h-4.8V621c0-4.3-1.6-8-6.1-8a6.87,6.87,0,0,0-6.4,4.9,5.59,5.59,0,0,0-.3,2.3v16.2H190Z" transform="translate(-71.1 -57)"/><path class="cls-1" d="M221.8,623.9c.1,6.6,4.2,9.3,9,9.3a16.81,16.81,0,0,0,7.3-1.4l.8,3.5a20.55,20.55,0,0,1-8.7,1.7c-8.1,0-12.9-5.4-12.9-13.5S222,609,229.6,609c8.6,0,10.9,7.7,10.9,12.6a12.14,12.14,0,0,1-.2,2.3Zm14-3.5c.1-3.1-1.2-7.9-6.6-7.9-4.8,0-7,4.5-7.3,7.9Z" transform="translate(-71.1 -57)"/><path class="cls-1" d="M251,601.9v7.7h6.8v3.7H251v14.5c0,3.3.9,5.2,3.6,5.2a15.82,15.82,0,0,0,2.8-.3l.2,3.7a11,11,0,0,1-4.2.7,6.56,6.56,0,0,1-5.2-2.1c-1.4-1.4-1.8-3.8-1.8-7V613.4h-4.1v-3.7h4.1v-6.4Z" transform="translate(-71.1 -57)"/><path class="cls-1" d="M267.5,602.1a2.78,2.78,0,0,1-3,3,2.86,2.86,0,0,1-2.9-3,3,3,0,0,1,3-3A2.76,2.76,0,0,1,267.5,602.1Zm-5.4,34.3V609.6h4.8v26.8Z" transform="translate(-71.1 -57)"/><path class="cls-1" d="M292.5,635.4a16.87,16.87,0,0,1-7.6,1.6c-7.9,0-13.1-5.5-13.1-13.7s5.5-14.2,14.1-14.2a15.1,15.1,0,0,1,6.6,1.4l-1.1,3.8a10.27,10.27,0,0,0-5.5-1.3c-6,0-9.3,4.5-9.3,10.1,0,6.2,3.9,10,9.1,10a13.94,13.94,0,0,0,5.9-1.3Z" transform="translate(-71.1 -57)"/><path class="cls-1" d="M114.8,694.6a23.5,23.5,0,0,1-9.5,1.7c-11.6,0-18.7-7.4-18.7-18.8,0-12.3,8.4-19.7,19.6-19.7,4.4,0,7.6.9,8.9,1.7l-1.5,5.4a17,17,0,0,0-7.2-1.4c-7.4,0-12.8,4.8-12.8,13.7,0,8.2,4.7,13.5,12.8,13.5a19.36,19.36,0,0,0,7.3-1.4Z" transform="translate(-71.1 -57)"/><path class="cls-1" d="M143.4,682.1c0,9.9-6.7,14.2-13.1,14.2-7.1,0-12.6-5.3-12.6-13.8,0-9,5.8-14.2,13-14.2C138.3,668.3,143.4,673.9,143.4,682.1Zm-20.9.3c0,5.9,3.3,10.3,8,10.3s8-4.4,8-10.4c0-4.5-2.2-10.3-7.9-10.3S122.5,677.3,122.5,682.4Z" transform="translate(-71.1 -57)"/><path class="cls-1" d="M147.7,690.7a12.69,12.69,0,0,0,6.3,1.9c3.5,0,5.1-1.8,5.1-4s-1.4-3.6-4.9-4.9c-4.7-1.7-7-4.4-7-7.6,0-4.3,3.4-7.9,9.1-7.9a12.9,12.9,0,0,1,6.5,1.7l-1.2,3.5a9.59,9.59,0,0,0-5.4-1.6c-2.8,0-4.4,1.7-4.4,3.7,0,2.2,1.6,3.2,5,4.5,4.6,1.8,6.9,4.1,6.9,8.1,0,4.7-3.6,8-9.8,8a15,15,0,0,1-7.4-1.8Z" transform="translate(-71.1 -57)"/><path class="cls-1" d="M168.7,676.2c0-2.8-.1-5-.2-7.3h4.2l.2,4.3h.2a9.15,9.15,0,0,1,8.3-4.9,7.65,7.65,0,0,1,7.4,5.4h.1a10.26,10.26,0,0,1,2.9-3.5,9,9,0,0,1,5.8-1.9c3.5,0,8.6,2.3,8.6,11.6v15.8h-4.7V680.5c0-5.2-1.8-8.3-5.7-8.3-2.7,0-4.8,2.1-5.7,4.4a9.27,9.27,0,0,0-.4,2.4v16.6H185V679.5c0-4.3-1.8-7.4-5.5-7.4a7.37,7.37,0,0,0-6.3,7.3v16.2h-4.7V676.2Z" transform="translate(-71.1 -57)"/><path class="cls-1" d="M218.3,661.4a2.78,2.78,0,0,1-3,3,2.86,2.86,0,0,1-2.9-3,3,3,0,0,1,3-3A2.71,2.71,0,0,1,218.3,661.4ZM213,695.7V668.9h4.8v26.8Z" transform="translate(-71.1 -57)"/><path class="cls-1" d="M243.3,694.7a16.87,16.87,0,0,1-7.6,1.6c-7.9,0-13.1-5.5-13.1-13.7s5.5-14.2,14.1-14.2a15.1,15.1,0,0,1,6.6,1.4l-1.1,3.8a10.27,10.27,0,0,0-5.5-1.3c-6,0-9.3,4.5-9.3,10.1,0,6.2,3.9,10,9.1,10a13.94,13.94,0,0,0,5.9-1.3Z" transform="translate(-71.1 -57)"/><path class="cls-1" d="M258,688.3a18,18,0,0,0,8.9,2.4c4.3,0,6.7-2.1,6.7-5.1,0-2.8-1.8-4.5-6.5-6.2-6-2.2-9.9-5.5-9.9-10.9,0-6.1,5-10.8,12.9-10.8a18.85,18.85,0,0,1,8.8,1.9l-1.6,5.5a15.62,15.62,0,0,0-7.3-1.8c-4.2,0-6.1,2.3-6.1,4.5,0,2.9,2.1,4.2,7,6.2,6.4,2.4,9.5,5.7,9.5,11.1,0,6-4.5,11.2-13.9,11.2a21.55,21.55,0,0,1-9.9-2.3Z" transform="translate(-71.1 -57)"/><path class="cls-1" d="M304.7,694.7a16.87,16.87,0,0,1-7.6,1.6c-7.9,0-13.1-5.5-13.1-13.7s5.5-14.2,14.1-14.2a15.1,15.1,0,0,1,6.6,1.4l-1.1,3.8a10.27,10.27,0,0,0-5.5-1.3c-6,0-9.3,4.5-9.3,10.1,0,6.2,3.9,10,9.1,10a13.94,13.94,0,0,0,5.9-1.3Z" transform="translate(-71.1 -57)"/><path class="cls-1" d="M314.5,661.4a2.78,2.78,0,0,1-3,3,2.86,2.86,0,0,1-2.9-3,3,3,0,0,1,3-3A2.71,2.71,0,0,1,314.5,661.4Zm-5.3,34.3V668.9H314v26.8Z" transform="translate(-71.1 -57)"/><path class="cls-1" d="M323.5,683.2c.1,6.6,4.2,9.3,9,9.3a16.81,16.81,0,0,0,7.3-1.4l.8,3.5a20.55,20.55,0,0,1-8.7,1.7c-8.1,0-12.9-5.4-12.9-13.5s4.7-14.5,12.3-14.5c8.6,0,10.9,7.7,10.9,12.6a12.14,12.14,0,0,1-.2,2.3Zm14-3.5c.1-3.1-1.2-7.9-6.6-7.9-4.8,0-7,4.5-7.3,7.9Z" transform="translate(-71.1 -57)"/><path class="cls-1" d="M347,676.2c0-2.8-.1-5-.2-7.3H351l.3,4.4h.1a9.65,9.65,0,0,1,8.7-5c3.6,0,9.3,2.2,9.3,11.4v16h-4.8V680.2c0-4.3-1.6-7.9-6.1-7.9a6.77,6.77,0,0,0-6.4,5,7.55,7.55,0,0,0-.3,2.3v16.1H347Z" transform="translate(-71.1 -57)"/><path class="cls-1" d="M394.8,694.7a16.87,16.87,0,0,1-7.6,1.6c-7.9,0-13.1-5.5-13.1-13.7s5.5-14.2,14.1-14.2a15.1,15.1,0,0,1,6.6,1.4l-1.1,3.8a10.27,10.27,0,0,0-5.5-1.3c-6,0-9.3,4.5-9.3,10.1,0,6.2,3.9,10,9.1,10a13.94,13.94,0,0,0,5.9-1.3Z" transform="translate(-71.1 -57)"/><path class="cls-1" d="M401.6,683.2c.1,6.6,4.2,9.3,9,9.3a16.81,16.81,0,0,0,7.3-1.4l.8,3.5a20.55,20.55,0,0,1-8.7,1.7c-8.1,0-12.9-5.4-12.9-13.5s4.7-14.5,12.3-14.5c8.6,0,10.9,7.7,10.9,12.6a12.14,12.14,0,0,1-.2,2.3Zm14-3.5c.1-3.1-1.3-7.9-6.6-7.9-4.8,0-7,4.5-7.3,7.9Z" transform="translate(-71.1 -57)"/><path class="cls-1" d="M1306.8,529.5v64.3c0,18.4-11.9,25.7-62.2,26L1232,580.9a173.72,173.72,0,0,0,20.5,1.2c12.6,0,15.9-2.8,15.9-10.7v-42H1155.7V497h112.7V468.5H1207V435.7h161v32.8h-61.2V497h110.8v32.5Zm72.6-76.6V412.8h-185v41.6h-34.9V380h107.8V350.3l32.5.3c12.9,0,14.4,2.1,14.4,5.2a3.6,3.6,0,0,1-1.8,3.4c-5.2,4-5.8,4.6-5.8,7.3V380H1414v72.9Z" transform="translate(-71.1 -57)"/><path class="cls-1" d="M1688.3,447.4V407.3H1498.1v41h-34.9V378.5H1574V351.9l35.2,1.2c2.1,0,9.5.3,9.5,3.4,0,2.4-3.1,3.7-6.7,7.7v14.4h110.8v68.9h-34.5Zm-24.2,169V606H1521.7v12h-35.5V456H1575V417.1l32.8,1.2c2.1,0,8.3.3,8.3,4,0,3.1-2.8,4.6-5.8,8V456h90.6V616.5h-36.8ZM1575,485.1h-53.3V516H1575Zm0,59.7h-53.3v32.5H1575Zm89.1-59.7h-53.9V516h53.9Zm0,59.7h-53.9v32.5h53.9Z" transform="translate(-71.1 -57)"/><path class="cls-1" d="M2005.9,535.3v79.9h-34.3V542l-93.1,18.4-6.7-29.4a84.79,84.79,0,0,1-21.4-18.4V615.2h-35.2V539c-5.8,9.8-11.9,20.5-19.6,29.1l-28.5-19c26.6-38,35.5-58.5,43.5-88.2H1768V429h47.2V403.3a296.41,296.41,0,0,1-38.3,5.8l-13.2-30.3c11.6,1.2,60-1.2,103.5-25.4l21.7,23.3a7.92,7.92,0,0,1,2.5,5.5c0,2.1-2.1,2.4-3.7,2.4-1.2,0-6.7-.6-8-.6-2.1,0-3.1.3-5.8,1.5-4.3,1.8-12.2,4.9-23.6,8.6V429h40.4v31.8h-40.4v3.7c15.6,22.4,30,31.8,44.7,39.5l-19,23.6,95.5-19.3V351.9L2004,354c4,.3,7.7,1.2,7.7,4.9a3.32,3.32,0,0,1-1.8,3.1c-3.4,2.8-4,3.4-4,4.9V501.6l27.3-5.5,5.5,32.8ZM1934.5,501c-8.9-8.9-23.6-22.7-43.8-33.7l21.4-26.6c19,10.7,32.8,22.7,45.3,35.2Zm7.4-62.8c-8.6-8.3-23.9-23.3-44.1-35.8l23-25.7c16.8,10.1,30.9,21.1,45.6,38.3Z" transform="translate(-71.1 -57)"/><path class="cls-1" d="M2296.2,482.6V445.9H2114.6v38.3h-33.1V417.4h151.9c14.7-17.8,28.2-36.4,37.4-57.6l30.3,10.1c1.8.6,5.2,2.8,5.2,5.2a1.72,1.72,0,0,1-1.2,1.8c-.9.9-7.7,2.5-8.9,3.7-6.4,11.9-12.6,21.7-23.9,36.7h57.6v65.2h-33.7Zm-71.7,65.2V594c0,21.4-17.8,26.6-36.4,26.6h-19.3l-13.5-32.5c3.7.3,20.8,1.8,24.5,1.8,5.2,0,7.3-4.6,7.3-9.2V547.6H2081.5v-30h105.6v-19l14.7,2.5c6.7-5.8,9.2-9.2,11.6-12.9h-81.8V460h138.7l8.6,13.5c-13.8,12.6-38,32.5-54.5,44.4h103.8v30H2224.5Zm-96.2-133.2a187.45,187.45,0,0,0-26.3-40.7l28.2-17.1c10.1,11.6,19,23.3,27.3,39.5Zm69.6-6.1a210.91,210.91,0,0,0-28.5-44.1l27.9-16.5a208.51,208.51,0,0,1,30,45Z" transform="translate(-71.1 -57)"/><path class="cls-1" d="M2415.3,531.9c-3.1,32.2-8.3,49.3-11.9,60l-26.9-5.8a345.28,345.28,0,0,0,14.1-67.4l24.5,5.5c5.2,1.2,5.2,3.1,5.2,3.4C2420.2,529.2,2418,530.4,2415.3,531.9Zm53.6-30a60.17,60.17,0,0,0-2.8-9.5c-4.6,1.2-7.3,1.8-12.2,2.8V614.9h-29.1V500.7c-3.1.3-13.8,2.1-26.9,4-2.8.3-4.9.6-6.4,2.8-2.4,2.8-2.4,2.8-4,2.8a3.66,3.66,0,0,1-3.4-2.8l-3.7-34c8.3,0,11,0,26.3-.9,5.5-8.3,11.9-19,14.4-23-15.9-13.5-27.3-21.1-42.6-30.6l16.8-26.9c4.9,2.8,5.8,3.4,11.6,7.3a274,274,0,0,0,24.5-46.5l27.3,11.9c1.2.6,2.4,1.5,2.4,3.1a3.35,3.35,0,0,1-2.4,3.1c-4.6,1.2-4.9,1.2-6.4,4-4.9,9.5-15.6,26-24.8,38.9,4.3,3.4,6.1,5.2,9.5,8.3,13.5-23.9,17.5-32.8,20.2-38.3l31.5,13.5a4.49,4.49,0,0,1,2.5,3.4c0,1.8-1.5,2.4-3.1,3.1-3.7.9-4,.9-6.1,2.5-2.8,3.4-10.7,16.2-15,23-14.7,23.3-20.2,30.3-29.4,42.3,17.5-1.8,19.3-1.8,21.4-2.1-2.1-6.4-3.7-9.5-5.8-14.7l23.3-9.2a200,200,0,0,1,18.1,49.6Zm56.9,35.5c-2.4.9-2.8,1.2-3.4,3.7a261.88,261.88,0,0,1-19.6,59.1l-25.7-12.6c3.7-7,6.7-13.5,11.6-26.3l-15,3.7a312.73,312.73,0,0,1-11.9-52.7l23.9-4.6c3.1,19,7.3,29.1,9.2,33.7.9-3.7,2.8-10.1,4-16.8l25.4,6.7c1.5.3,3.7,1.8,3.7,3.7A3,3,0,0,1,2525.8,537.4ZM2554,377.3c-4.6,1.2-5.8,1.5-7.7,4.6-16.5,26.6-22.4,36.7-38.9,55.7l-26.3-17.8c16.8-17.5,28.2-31.2,43.2-63.4l29.4,13.2c1.8.9,3.4,2.1,3.4,4.3C2557,375.4,2556.4,376.7,2554,377.3ZM2616.8,504a166.8,166.8,0,0,0-11-20.8c-10.7,1.5-27.3,4-44.1,6.1-7.3.9-43.5,4.3-46.9,5.5-.9.3-5.2,4-6.4,4-.3,0-2.1,0-2.8-2.8l-6.1-32.8h23c13.5-24.8,22-50.8,27.3-67.7l33.4,10.7c2.1.6,4.3,2.5,4.3,4.6,0,3.1-3.1,4.3-4.3,4.6-5.5,2.1-6.1,2.5-7.3,5.5-8.9,19-12.6,26.9-20.5,41,8.6-.3,19.6-.6,34.9-2.1a107.21,107.21,0,0,0-12.2-13.5l22-18.1c19.6,18.7,36.7,42.9,43.8,59.4Zm-38,108.8h-29.7c-14.1,0-19.6-10.1-19.6-23V516.9l30.3,2.1c1.5,0,3.1.6,3.1,2.8s-1.5,3.1-4.6,6.4V576c0,4.6,2.1,6.7,7.3,6.7h7.7c6.4,0,8.6-5.2,11-25.1l25.7,12.6C2609.1,578.2,2605.4,612.8,2578.8,612.8Zm1.8-74.1a147.48,147.48,0,0,0-25.7-29.4l17.8-19.9a121.31,121.31,0,0,1,28.5,30.6Zm42.3-110.3c-13.2-12.9-26.9-29.1-42.3-55.1l25.1-15.6c12.6,22.7,23.3,36.4,42.9,54.2Zm1.8,161.4a241,241,0,0,0-23.3-52.4l25.7-15c12.2,19.3,19.3,34,23.6,52.7Z" transform="translate(-71.1 -57)"/><path class="cls-1" d="M2936.4,479.2c-19.3-8-34.9-15.6-57.9-31.5v24.8H2755.4v-19c-27.6,19.9-43.8,26.9-54.5,31.8l-25.7-26c38.9-17.5,94.9-50.8,126.8-109.6l35.8,7c2.8.6,4.3,2.5,4.3,3.4,0,1.2-2.8,3.7-4.6,4.9,7,9.5,20.2,28.2,48.4,48.1,32.5,22.7,61.9,31.2,76.9,35.5ZM2873.7,614v-9.2H2762.9v10.4h-33.4V496.4h178.8V614Zm0-87.6H2762.9v46.9h110.8Zm-56.4-136c-7,10.4-17.8,26.3-45.9,50.8h98.3C2854.4,429,2838.8,416.2,2817.3,390.4Z" transform="translate(-71.1 -57)"/><path class="cls-1" d="M3071.5,390.7c-4.3,26-8.3,41.3-15,61.5h53.9V578.4h-57v32.2h-30.6V519a134.77,134.77,0,0,1-18.4,20.8L2975.9,519c38.3-37.4,55.1-72.6,61.9-128.3h-42V359.8h120.6v30.9Zm10.1,91.9h-28.2v66.1h28.2Zm148.8,2.5V615.5h-32.8V485.1h-24.5c-1.5,25.7-3.1,52.4-14.1,81.8-10.4,27.9-23.6,40.4-35.8,52.1l-29.4-19.9c13.5-11,23.6-19,32.5-36.4,13.2-25.4,14.7-53,15.9-77.5h-24.5V454.9h24.5V390.6h-15V360.9h124.9v29.7h-21.7v64.3h25.1v30.3h-25.1Zm-32.8-94.7h-22v64.3h22Z" transform="translate(-71.1 -57)"/><path class="cls-1" d="M3527.1,614.9H3487c-15.3,0-28.8-5.8-28.8-22.7,0-5.8,6.7-64,7.7-72l-35.8.9c-12.2,44.7-51.1,81.8-112.1,96.2l-26.9-34c61.2-6.7,94.3-34.9,102-60.9l-79,2.1V491.4l85.1-2.1c.3-5.2.9-14.7.6-31.5l34.6,1.5V401.1h-43.5l25.1,11.3c2.4,1.2,3.7,2.1,3.7,3.7a4.38,4.38,0,0,1-1.5,3.1c-.9.6-6.7,2.4-7.7,3.4-18.7,32.8-38,47.5-73.2,59.7l-22-27.9c13.2-3.1,30-7,46.5-22.7,13.2-12.2,16.2-22.4,19-30.6h-42.9V436h-33.4V369.9h106V352.1l41,2.4c.6,0,5.8.3,5.8,3.7a2.72,2.72,0,0,1-.9,2.1c-.6.6-5.5,3.7-5.5,4.6v4.9h106.3v63.7h-21.4c-8.6,34-17.1,39.5-37.7,39.5h-48.7a19.21,19.21,0,0,1-11.3-3.1c-.6,8-.9,12.2-1.8,18.4l69.5-2.1c-6.1,42.9-9.8,81.1-9.8,82.7,0,10.1,7.3,10.7,8.9,10.7h14.4c10.1,0,11.3-8.6,14.4-28.5l32.8,13.2C3560.5,598.1,3554.1,614.9,3527.1,614.9Zm-3.6-213.7h-55.1v33.7c0,4.6,2.8,7.7,8.3,7.7h14.4c7.3,0,9.5-7,13.5-19.9l19,6.1V401.2Z" transform="translate(-71.1 -57)"/><path class="cls-1" d="M3848,465.2c-15.6-5.2-26-11-35.2-16.2v26H3665.2V449.9a267.64,267.64,0,0,1-38.3,19.9l-23.3-26.9c52.1-20.5,83.9-49,111.8-93.4l43.8,7.7c2.4.3,4.6,1.8,4.6,4a4.35,4.35,0,0,1-2.8,4,231.19,231.19,0,0,0,51.8,43.8c10.7,6.4,35.2,19.9,59.4,26.9Zm-20.2,153.1c-3.1-4.6-6.7-11.3-20.2-27.3-42,5.2-110.8,12.9-119.7,13.8-6.4.6-38.9,3.4-46.2,4.6a4,4,0,0,0-3.1,2.1c-1.8,3.7-2.8,4.6-3.7,4.6s-2.4-1.2-2.8-2.8l-9.8-40.1c19.3,0,27.9-.3,43.2-.9,7.7-12.2,14.1-23,27.9-49.3h-69.5V493.3H3849V523h-64.6c26.3,20.8,53.3,49,71.3,72.3Zm-90.9-233.7c-22,26.9-38.3,42-63.4,60h131.7C3779.1,427.5,3761.1,413.4,3736.9,384.6Zm22,160.8,22-22.4H3735c-14.4,25.4-23.3,38.9-28.8,47.2,25.7-1.2,51.1-2.8,76.6-5.8A183.76,183.76,0,0,0,3758.9,545.4Z" transform="translate(-71.1 -57)"/><path class="cls-1" d="M1266,292.22c-13.72-1.42-28.14-3.54-46.39-10.89A125.27,125.27,0,0,1,1179,292.22l-8.34-12.31c15.41-.28,24.6-2.82,34.78-5.79a93,93,0,0,1-9.19-6.93,89.42,89.42,0,0,1-12.44,8.48l-9.76-8.2c11.17-5.37,20.36-12,25-18.38-4.1-.14-4.1-3.25-4.1-3.54v-13l13.29,1.13a2.38,2.38,0,0,1,1.56.71l3.11-2.68h-30l10.18,4.52a2,2,0,0,1,1.42,1.56c0,.56-.85.84-2.55,1.41a62.18,62.18,0,0,1-7.64,12.73l-10.32-4.81a48.17,48.17,0,0,0,8.06-15.41h-8.62c-.85,17-2,39.59-11,58.25l-15.7-3.67a106.41,106.41,0,0,0,7.64-22.63c3.53-16.54,4.38-33.37,4.38-45.95,0-11.32-.85-26.59-2.12-42.57h46.38v-8.06l17.39.71c.85,0,4.39.14,4.39,1.84,0,.42-.14.71-1.42,1.69-1.41,1.28-1.41,1.56-1.41,3.82h52v12.16h-39.88v5.52h29.69v25h-90.07v4h100.82v23.33h-15.41V231.7h-11.88a66.64,66.64,0,0,1,10.89,13l-9.33,6.23a53.21,53.21,0,0,0-9.2-11c-1.13,5.94-2,10.18-10,10.18h-16a24.7,24.7,0,0,1-2.69,3.53h37.61l3.54,4c-8.2,8.35-13.15,12.3-19.52,16.69,12.59,3.53,23.48,5.23,42.71,4.81Zm-75.8-104.93h-16.83c.15,1.84.29,3.54.29,5.52h16.54Zm0,14.29h-16.4v7.49h16.4Zm29.41-14.29h-14.84v5.52h14.84Zm0,14.29h-14.84v7.49h14.84Zm-12.3,60.94a89.66,89.66,0,0,0,11.46,6.51,61.29,61.29,0,0,0,10.6-6.51Zm2.69-27.29a4.91,4.91,0,0,1-1.27,1.13v2.69c0,1.84,2.68,2.4,4.52,2.4h4.53A20.13,20.13,0,0,0,1210,235.23Zm10.89-3.53a30.69,30.69,0,0,1,5.51,4.38l-6.5,5.37h4.52c3.25,0,3.25-2.68,3.25-6.22l10.33,2.83,7.21-6.36Zm27.43-30.12h-14.14v7.49h14.14Z" transform="translate(-71.1 -57)"/><path class="cls-1" d="M1355.93,189.41l12.31,5.1c.7.28,2,.7,2,1.83,0,1.42-2.27,1.56-4.39,2.41-.42.7-1.41,2.4-2.12,3.67h8.91c1.41-2.54,4.52-8.2,6.08-11.45l12.73,2.83c1.27.28,2.68,1,2.68,2,0,.42-.28.85-1.13,1.41-1.27.57-1.55,1-4,5.23h23.76V212h-23v5h15.7v9.76h-15.7v4.52h15.7v9.62h-15.7V246h23.9v9.19h-42.85a67.54,67.54,0,0,1,13.29,9.76l-9.47,10.46a106.87,106.87,0,0,0-13.72-9.9l8.49-10.32h-21.64V226.89a49.27,49.27,0,0,1-5.09,5.94l-7.78-6.65v32.38h-14.28V225.47l-3.11,3.11-2.12-2.12c-1.27,30-4,46.38-12.3,63.49l-15.84-7.35c2.69-4.1,5.23-7.78,8.06-19,2.4-9.75,4.52-27,4.52-46.24,0-16.68-1.27-33.93-1.83-41.29h48.36v-9.47l18.24,1.27c1.55.14,4.1.43,4.1,2,0,.85-.71,1.41-1.84,2.12s-1.84,1.13-1.84,1.84v2.26h49.21v13.29Zm-22.62,82a152.66,152.66,0,0,1-10.32,16l-14.57-7.35a98.57,98.57,0,0,0,13.43-18.67l12.45,6.51c.56.28,1.84.84,1.84,1.69S1335,270.86,1333.31,271.43Zm-18.24-82c.14,6.37.14,12.87.28,19.24,7.49-4.81,13.15-13.72,15.84-19.24Zm20.64,0,7.21,5.38c.71.42,2.55,2.68,2.55,3.67s-1.56.85-3.39,1.28c-1.56,1.69-4,4.66-5.94,7.21a2.35,2.35,0,0,1,1.55,2c0,.28,0,.71-1,1.55-1.41,1.14-1.84,2-1.84,3.12v4.94c2.83-2.54,4.25-3.81,9.62-11.31,7.49-10.75,8.63-14,9.9-17.82Zm73,94.75a91.31,91.31,0,0,0-9.62-10.75c-1.41,8.77-3.39,18.24-19.09,18.24h-27c-5.79,0-14.42-1.13-14.42-8.34V262.24l13.43.28c.85,0,4.39,0,4.39,1.84,0,.42-.14.85-1.13,1.41-1.28.85-1.42,1.42-1.42,2.13v7.21c0,2.26,1,3.39,5,3.39h19.94c3.25,0,6.93-.42,8.48-11l9.34,3.39c-2.41-2.26-3.82-3.53-6.37-5.65l11.74-9.19c7.64,5.37,15,13.57,18.81,18.8ZM1374.6,212H1361v5h13.58Zm0,14.28H1361v5h13.58Zm0,14.57H1361V246h13.58Z" transform="translate(-71.1 -57)"/><path class="cls-1" d="M1437,265.77c12.59-.84,21.07-2.12,26.59-3v-7.49h-27.72v-12h27.72v-5.66c-14,2-19.8,2.41-23.76,2.55l-5.09-9.76c15.41-.42,30.69-2.54,41.72-6.79h-40.87V212.18h52.32v-5.8h-34.79V194.93h34.79V189.7h-47.37V179h24.6a48.23,48.23,0,0,0-5.37-7.35l13-5.8a121.12,121.12,0,0,1,10,13.15h25.73a100,100,0,0,0,6.37-12.16l15.13,2.83c.71.14,2.4.56,2.4,1.55s-1.41,1.56-3,2.12a67.18,67.18,0,0,0-3.67,5.66h26V189.7h-47.08v5.23h34.78v11.45h-34.78v5.8h53v11.45h-23.47A145.37,145.37,0,0,1,1545,235.94l-8.91,6.5a115.71,115.71,0,0,0-11.6-12.87l7.36-5.94H1490.4l4,6.51a3.23,3.23,0,0,1,.43,1.27c0,.57-.14,1-1,1-.43,0-2.55-.7-3-.7s-9.9,2.26-11.74,2.68v8.91h24.32a119.27,119.27,0,0,1-2.68-16.4l13.43,1c1,.14,2.83.42,2.83,1.55,0,.43-2.26,2.12-2.26,2.83a65.55,65.55,0,0,0,2,11h40.15v12h-22.34l8.63,6.79a3.39,3.39,0,0,1,1.27,2.12,1,1,0,0,1-1.13,1,12.26,12.26,0,0,0-2.26-.14c-.71.42-7.36,4.8-8.35,5.51,4.25,4.24,7.64,4.95,8.77,4.95,2.83,0,3.54-4,4.67-11.17l11,7.07c-1.13,5.94-3.54,19.37-12.87,19.37-11.6,0-20.5-9.19-23.9-12.72A124.15,124.15,0,0,1,1492,289l-8.2-10.74a163,163,0,0,0,28.56-10.89,50,50,0,0,1-5.65-12h-27.58v5.37c4-.7,12.59-2,19.23-3.53v9.9c-5.23,1.41-9,2.12-19.23,4v10.88c0,8.21-4.38,10.61-21.92,10.61l-5.79-12.87c2.12.14,6.5.28,7.77.28,2.69,0,4.39,0,4.39-3.25v-3c-2.83.43-19.09,2.83-20.22,3.11-.57.15-2.27,2-2.83,2-1,0-1.42-1-1.56-2Zm84-10.46a18.41,18.41,0,0,0,3.11,5.66c4.52-2.41,6.22-3.4,9.76-5.66Z" transform="translate(-71.1 -57)"/><path class="cls-1" d="M1687.09,263a5.45,5.45,0,0,1-3.39-1.56v8.2h-37.33v6.22H1698v11.88H1577.36V275.81h51.47v-6.22h-36.48V258.14h36.48v-7.92l6.79.71-6.79-4.25a32.45,32.45,0,0,0,9.62-6.92c-6.08.42-14.71.84-21.78,1.27v8.06c0,4.81-7.07,7.07-14.42,7.07h-5l-4-10.61a44.46,44.46,0,0,0,5.94.57c3.39,0,3.39-1.56,3.39-4.53-2,0-13.85.57-17.39.57-2.69,0-3.11,0-4,.56a3.79,3.79,0,0,1-2.26,1.14c-.85,0-1.13-1.28-1.13-2.55l-.14-8.63c12.44-.14,17.53-.28,24.88-.28v-3.25l4.25.14,4.8-3.25h-29.27V218h51.62l3.53,5.23c-5.51,3.25-10.75,5.94-16.4,8.77,2.12,0,11.88-.28,19-.85v7.35a38.94,38.94,0,0,0,7.63-11.17,92.45,92.45,0,0,0-11-9.33l10.75-9.48c1.7,1.28,3.82,3.12,4.67,3.82a84.3,84.3,0,0,0,1.41-8.91l-11.17.71-.71-14,12-.85c-.14-5.79-.42-12.44-1.13-19.09l14.71.85c2,.14,4,.28,4,2,0,.71-.57,1.13-1.56,2a11,11,0,0,0-1.84,1.7c0,.71-.14,10.32-.14,11.59l21.21-1.41c-3.39,18.38-3.82,30.12-3.82,34.64,0,10.61,1.84,16.55,4,16.55,1.42,0,2.41-4.95,2.69-6.93l9.9,7.49C1697.56,253.61,1693.74,263,1687.09,263Zm-109-75.23v-9.9h25.59V168.2l16.83,1c1.42.14,2.55.29,2.55,1.42,0,.7-.43,1.13-1,1.69-1.13,1.14-1.42,1.28-1.42,1.84v3.68h26.3v9.9Zm6.93,25.73V191.82h53.87v21.63Zm39.31-13.15H1599.7v4.53h24.61ZM1673,236.22l-9,9.76c-1.55-2.12-3.11-4.25-6.36-8.06a54.74,54.74,0,0,1-11.6,13.85c1.14.15,3.4.43,3.4,2,0,.85-1.13,1.7-1.56,2-1.41,1-1.41,1.14-1.41,2.41h34.5C1675.92,251.07,1674.08,242.87,1673,236.22Zm-1.27-15c0-6.08.42-13.15.85-19.23l-5.52.42c-.84,10.19-1.69,14.57-3.39,20.93,4.38,4.67,6.65,7.21,8.91,10A98.42,98.42,0,0,1,1671.68,221.23Z" transform="translate(-71.1 -57)"/><path class="cls-1" d="M1827.79,291.37c-28.43-17.39-38.47-30.26-48.36-52.46-13.16,27.57-26.45,41.43-51,53.45l-13.86-12.45c32.66-13.15,45.67-32,52.89-61.65h-49.07V203h50.76c.57-6.22.57-13.43.57-15.56,0-8.2-.28-14.28-.57-18.8l18.81,1c1,0,2.4.14,2.4,1.69,0,1.14-1.41,2.41-2.68,3.54-.29,3-.29,1.13-.29,8.2,0,1.27-.28,13.29-.56,19.94H1840v15.27h-51.76c8.63,27.15,19.66,42.85,54.16,59.53Z" transform="translate(-71.1 -57)"/><path class="cls-1" d="M1962.54,228.58v-17h-83.85v17.67h-15.28V198.46h70.14c6.79-8.2,13-16.82,17.25-26.58l14,4.67c.85.28,2.41,1.27,2.41,2.4a.82.82,0,0,1-.57.85c-.42.42-3.53,1.13-4.1,1.7a120.43,120.43,0,0,1-11,17h26.58v30.12Zm-33.09,30.12v21.36c0,9.89-8.2,12.3-16.83,12.3h-8.9l-6.23-15c1.7.14,9.62.85,11.32.85,2.4,0,3.39-2.12,3.39-4.24V258.7h-48.79V244.85h48.79v-8.77l6.79,1.13a25.73,25.73,0,0,0,5.37-5.94H1886.6V218.12h64.06l4,6.22c-6.36,5.8-17.53,15-25.17,20.51h47.94V258.7Zm-44.4-61.51a86.82,86.82,0,0,0-12.16-18.81l13-7.91a85.93,85.93,0,0,1,12.58,18.24Zm32.1-2.83A97.35,97.35,0,0,0,1904,174l12.87-7.63a97.86,97.86,0,0,1,13.85,20.78Z" transform="translate(-71.1 -57)"/><path class="cls-1" d="M2050.21,188c-1.84.42-1.84.42-3.12,2.83-13.85,26-29.83,38.74-34.78,42.7l-15-10.32c17.11-10.6,30.12-28.85,36.48-47.37l17,8.06a2.88,2.88,0,0,1,1.7,2.12C2052.47,187.43,2051.19,187.86,2050.21,188Zm52,100.26c-2.12-4.67-3.39-7.21-5.94-12.3-34.36,4.94-60.24,6.92-72.4,7.77-2,.14-3.25.29-4.24,1.56-1.7,2.26-1.84,2.54-2.83,2.54-1.41,0-2.12-1.55-2.54-3.39l-4.39-18.52c3.12.14,4.81.14,20.08-.29,5.8-11.17,16-37.33,23.48-59.95l17.53,5.65c1.84.57,2.83,1.84,2.83,3,0,1.84-1,2.26-3.82,3.25-1.41.43-1.55,1-3.53,5.38-9.48,21.77-10.61,24.18-19.94,42.14,25-1.13,33.09-1.84,42.14-2.69-4.1-7.92-8.49-14-17.82-24.6l13.15-9.2a219.5,219.5,0,0,1,33.66,51ZM2113,233c-18.95-12.87-31.25-29.7-36.48-47.8H2064.2V170.89h26c.14,4.38.57,13.29,10,26.73a80.8,80.8,0,0,0,25.6,23.33Z" transform="translate(-71.1 -57)"/><path class="cls-1" d="M2143.53,201.86v-12.3h47.93v12.3Zm66.18,53.31c-.15.85-3.12,15.55-8.63,26.3l-11.74-3v9.05h-13.57v-4.1h-15.56v5.8h-13.43V244.7h42.56V274c.71-1.7,6.22-14.85,8.49-26.16l12.44,3.81c.85.29,1.56.71,1.56,1.7S2210.41,254.89,2209.71,255.17Zm-60.95-72.26v-12h36.34v12Zm0,36.48V207.8H2186v11.59Zm0,18.39V226h37.47v11.74Zm26.87,19.79h-15.42v12.87h15.42Zm78.62-32.38c-4,6.22-11.46,6.51-18.53,6.22a82.89,82.89,0,0,1,7.64,7.07l-8.34,11c-2.69-2.4-3-2.54-5.09-4.38-.15.56-2.41,2.54-2.41,3.25v23.33c0,2.69.85,3.68,3.4,3.68h3.53c1.84,0,2.83-1.41,3.39-3a54,54,0,0,0,2.83-10.32l14.57,8.91c-4.81,15.27-7.78,18.38-13.72,18.38h-17.25c-7.21,0-12.16-4.38-12.16-11v-36.2l14.71.56.56.15a125.53,125.53,0,0,0-10.75-8.35l9.2-10.32a72.58,72.58,0,0,1,8.2,5.94l-3.54-12.87-2.26,3.68a97.5,97.5,0,0,0-8.63-4.95c-4.52,7.07-8.76,11.74-16.82,18l-11.32-10c9.48-6.79,12-9.76,15.13-14.43-4-1.83-6.78-3.11-11.73-5.09l7.07-12.3c1.69.57,4.24,1.27,10.74,4a68.74,68.74,0,0,0,1.7-9.9h-18.52v-14h65.61C2261.6,173.15,2262.45,212.46,2254.25,225.19Zm-25.31-39a60.79,60.79,0,0,1-2.83,15.84c6.36,3.25,8.2,4.52,10.18,5.66l-5.23,8.48a30.31,30.31,0,0,0,6.08.42c2.83,0,4.52-.28,5.65-5.79a198.48,198.48,0,0,0,2.69-24.61Zm28.84,88.38A144,144,0,0,0,2243.93,249l11.31-6.65a105.14,105.14,0,0,1,14.42,24Z" transform="translate(-71.1 -57)"/><path class="cls-1" d="M2386.74,228.58v-17h-83.85v17.67h-15.28V198.46h70.14c6.79-8.2,13-16.82,17.25-26.58l14,4.67c.85.28,2.41,1.27,2.41,2.4a.82.82,0,0,1-.57.85c-.42.42-3.54,1.13-4.1,1.7a120.43,120.43,0,0,1-11,17h26.58v30.12Zm-33.09,30.12v21.36c0,9.89-8.2,12.3-16.83,12.3h-8.91l-6.22-15c1.7.14,9.62.85,11.31.85,2.41,0,3.4-2.12,3.4-4.24V258.7h-48.79V244.85h48.79v-8.77l6.79,1.13a25.73,25.73,0,0,0,5.37-5.94H2310.8V218.12h64.06l4,6.22c-6.36,5.8-17.53,15-25.17,20.51h47.94V258.7Zm-44.4-61.51a87.2,87.2,0,0,0-12.16-18.81l13-7.91a86.29,86.29,0,0,1,12.58,18.24Zm32.1-2.83A97.35,97.35,0,0,0,2328.2,174l12.87-7.63a97.86,97.86,0,0,1,13.85,20.78Z" transform="translate(-71.1 -57)"/><path class="cls-1" d="M2425.62,287V273h52.89V246.12h-32.25V231.41h32.25V208.65h-30.27a189.82,189.82,0,0,1-13,21.49l-15.14-8.06c5.24-6.22,8.63-10.32,13.3-19,7.35-13.72,9.75-23,12-31.67l14.84,4.1c3,.85,3.68,1.41,3.68,2.26s-.42,1.27-1.7,1.84a4.83,4.83,0,0,0-3,2.83,118.64,118.64,0,0,1-4.24,11.87h23.48v-25l17.11.85c2.26.15,3.39.71,3.39,2.12,0,.71-.42,1.28-1.56,2-1.69,1-2.12,1.7-2.12,2.69v17.39h44.83v14.29h-44.83v22.76h31.39v14.71h-31.39V273h51.05v14Z" transform="translate(-71.1 -57)"/><path class="cls-1" d="M2670.25,289.81v-4.95h-85.84v4.95h-16.54V171.88h119.2V289.81Zm0-103.22h-85.84v83.85h85.84ZM2652.57,219V254c0,10.46-1.84,13.15-21.78,13.29l-4.8-14.71a67.45,67.45,0,0,0,7.63.85c3.11,0,4.1-1.55,4.1-4.38V219h-48.64V204.26h48.64V189.41l16.12,1.56c.71,0,1.56.57,1.56,1.27a1.92,1.92,0,0,1-.85,1.28c-1.56,1.27-2,1.55-2,2.82v7.92H2667V219Zm-39.74,33.79a92.14,92.14,0,0,0-14.14-20.08l12-8.48a93.61,93.61,0,0,1,14.57,20.36Z" transform="translate(-71.1 -57)"/><path class="cls-1" d="M2822.11,266.2c-13-12.73-20.08-21.92-28.42-36.06v24h14.56v14.14h-14.56v21.35h-15.27V268.32h-14V254.18h14V228c-8.77,16.12-15.28,25.17-28.29,38.32L2735.57,259v30.26h-15.41V224.62a59.11,59.11,0,0,1-6.37,8.06l-12.44-8.76A176,176,0,0,0,2733.17,170l14.42,4.39c2.26.7,3.25,1.41,3.25,2.54a1.54,1.54,0,0,1-1.13,1.41c-2.83.85-3.11,1-3.54,2a201.28,201.28,0,0,1-9.47,18c1.41.85,2.69,1.7,2.69,3.11a3.35,3.35,0,0,1-1.28,2.27c-2.12,1.55-2.54,1.83-2.54,2.54v52.18c15.7-12,27.57-31.67,35.63-51.19h-25.31V193.52h32.53V169.33L2794,170c.71,0,2.69.14,2.69,1.7a2.46,2.46,0,0,1-1,1.7c-1.7,1.27-2,1.55-2,2.4v17.68h36.2v13.71h-31.68c6.79,15,15.84,32.24,36.77,48.5Z" transform="translate(-71.1 -57)"/></svg>