<?xml version="1.0" encoding="utf-8"?>
<!-- Generator: Adobe Illustrator 19.2.1, SVG Export Plug-In . SVG Version: 6.00 Build 0)  -->
<svg version="1.1" id="レイヤー_1" xmlns="http://www.w3.org/2000/svg" xmlns:xlink="http://www.w3.org/1999/xlink" x="0px"
	 y="0px" viewBox="0 0 780.7 142.6" style="enable-background:new 0 0 780.7 142.6;" xml:space="preserve">
<style type="text/css">
	.st0{fill:#FFFFFF;}
</style>
<g>
	<path class="st0" d="M201.4,76.8C184.6,69,177.3,62.6,170,48.3c-10,21.9-26,27.3-32.9,29.5l-7.9-9.4c5.6-1.2,14.8-3.3,23-11.7
		c7.1-7.3,9.2-15.2,10.1-19H138v-9.9h25.4V14h-30.8V4.3h75V14h-32.6c0,7.8-0.1,10.3-0.1,13.7h27.3v9.9h-26c1.8,4.5,5,13.1,14.8,20.8
		c7.5,5.8,14.9,8.1,18.5,9.3L201.4,76.8z"/>
	<path class="st0" d="M288.7,77.6c-11.7-3.3-19.5-7.1-30.1-15.9c-8.9,7-16.1,10.8-33,16.5l-7.8-8.5c4.6-1,9.9-2.1,18.3-5.8
		c8.5-3.8,11.7-6.4,15.2-9.3c-3.3-3.7-7.8-8.7-13.1-19c-3.2-6.1-4.4-9.7-5.9-14.1h-11.1v-9.1h31.6V1l10.7,0.8c0.4,0,2.2,0.3,2.2,1.1
		c0,0.4-0.4,0.8-0.9,1.1c-0.2,0.2-1.1,0.7-1.1,1.4v7h31.4v9.1h-12.3c-4.1,12.2-7.8,22.3-16.9,33.3c10,7.6,17.6,10.6,29.3,13.1
		L288.7,77.6z M243,21.4c4.9,13,9.1,19.3,15.2,26.3c7.5-9.1,10.8-19.4,12.7-26.3H243z"/>
	<path class="st0" d="M331.1,12.2c-1.2,7.5-2.4,11.9-4.3,17.7h15.5v36.3h-16.4v9.3h-8.8V49.1c-2,2.7-3.3,4.1-5.3,6l-8.2-6
		c11-10.8,15.9-20.9,17.8-36.9h-12.1V3.3h34.7v8.9H331.1z M334,38.6h-8.1v19h8.1V38.6z M376.9,39.3v37.5h-9.4V39.3h-7
		c-0.4,7.4-0.9,15.1-4.1,23.5c-3,8-6.8,11.6-10.3,15l-8.5-5.7c3.9-3.2,6.8-5.5,9.3-10.5c3.8-7.3,4.2-15.2,4.6-22.3h-7v-8.7h7V12.1
		h-4.3V3.6h36v8.5h-6.3v18.5h7.2v8.7H376.9z M367.4,12.1h-6.3v18.5h6.3V12.1z"/>
	<path class="st0" d="M462.3,76.7h-11.5c-4.4,0-8.3-1.7-8.3-6.5c0-1.7,1.9-18.4,2.2-20.7l-10.3,0.3c-3.5,12.9-14.7,23.5-32.3,27.7
		l-7.8-9.8c17.6-1.9,27.1-10,29.3-17.5l-22.7,0.6v-9.5l24.5-0.6c0.1-1.5,0.3-4.2,0.2-9.1l10,0.4v-2.8V15.2H423l7.2,3.3
		c0.7,0.4,1.1,0.6,1.1,1.1c0,0.3-0.2,0.7-0.4,0.9c-0.3,0.2-1.9,0.7-2.2,1c-5.4,9.4-10.9,13.7-21.1,17.2l-6.3-8
		c3.8-0.9,8.6-2,13.4-6.5c3.8-3.5,4.7-6.4,5.5-8.8h-12.3v10h-9.6v-19h30.5V1.1l11.8,0.7c0.2,0,1.7,0.1,1.7,1.1
		c0,0.3-0.1,0.4-0.3,0.6c-0.2,0.2-1.6,1.1-1.6,1.3v1.4h30.6v18.3h-6.2c-2.5,9.8-4.9,11.4-10.8,11.4h-14c-1.1,0-2.2-0.2-3.3-0.9
		c-0.2,2.3-0.3,3.5-0.5,5.3l20-0.6c-1.8,12.3-2.8,23.4-2.8,23.8c0,2.9,2.1,3.1,2.6,3.1h4.1c2.9,0,3.3-2.5,4.1-8.2l9.4,3.8
		C471.9,71.8,470,76.7,462.3,76.7z M461.2,15.2h-15.9v9.7c0,1.3,0.8,2.2,2.4,2.2h4.1c2.1,0,2.7-2,3.9-5.7l5.5,1.8V15.2z"/>
	<path class="st0" d="M554.2,66.7c-4.5-3.2-8.1-6-13.6-12v8.5h-12.9v14.2h-10.3V63.3h-12.2v-8.8h12.2v-20c-5.3,11.5-16,25.4-25,33.6
		l-8.4-5.9c11.7-8.9,22.9-24.9,27.4-36.8h-26.6v-9.5h32.6V1.1l8.6,0.4c1.1,0.1,3.3,0.4,3.3,1.4c0,0.4-0.3,0.6-0.8,1
		c-0.5,0.4-0.8,0.7-0.8,1.1v10.8H560v9.5h-27.7c5.7,14.2,16.6,25.5,29.1,34.4L554.2,66.7z M527.7,35.5v19h12.7
		C532.7,45.7,529.8,39.6,527.7,35.5z"/>
	<path class="st0" d="M572.9,39.4v-8.2h9.7c-1.5-4.7-3.3-8.4-5-11.3l6.2-2.6h-8.3V9.5h14.2V1l11.7,0.6c1,0.1,1.4,0.3,1.4,1
		c0,0.4-0.2,0.6-0.6,0.9c-1.2,0.9-1.3,1-1.3,1.3v4.8h12.3v7.8h-9.4l7,4.1c0.7,0.4,1,0.8,1,1.1c0,0.5-0.4,0.8-0.9,1
		c-1.2,0.4-1.4,0.4-1.8,1.3c-1.3,4-2.2,5.6-2.7,6.4h8v8.2H572.9z M600.7,76v-2.2h-14.8v2.8h-8.8V44.3h33.1V76H600.7z M585.9,17.3
		c2.6,4.8,4,8.3,5.1,11.9l-4.8,2h10.7c2.5-4.8,4.4-9.3,5.4-13.9H585.9z M600.7,53.2h-14.8v11.6h14.8V53.2z M632.3,69.4l-6.1-9v16.4
		h-9.1V4.9h29l3.3,4.8c-6.9,14.1-7.7,15.7-10.9,22.4c3.8,3.4,11,10,11,20.4C649.5,59.6,645.6,68.9,632.3,69.4z M629.2,32.6
		c1.6-3.9,4.8-12.2,7-19.6h-10v46c1.5,0.2,4,0.3,4.8,0.3c6,0,9.2-4.1,9.2-7.8C640.1,44.2,632,35.5,629.2,32.6z"/>
</g>
<g>
	<path class="st0" d="M111.3,125.1h-11.1l-2.2,6.8h-4.7l10.6-30.2h3.7l10.6,30.2h-4.7L111.3,125.1z M110,121.1l-4.2-13.2h-0.1
		l-4.2,13.2H110z"/>
	<path class="st0" d="M122.4,125.3c1.7,1.8,3.9,2.8,6.6,2.8c1.2,0,2.2-0.2,3-0.7c0.8-0.5,1.1-1.2,1.1-2c0-0.8-0.2-1.3-0.7-1.6
		c-0.5-0.3-1.1-0.5-1.9-0.5l-3.7-0.3c-1.8-0.2-3.2-0.8-4.3-1.8c-1.1-1-1.7-2.5-1.7-4.3c0-2.2,0.8-3.9,2.3-5c1.4-1.1,3.3-1.7,5.5-1.7
		c1,0,1.8,0.1,2.6,0.2c0.8,0.1,1.5,0.3,2.1,0.6c1.3,0.5,2.4,1.3,3.5,2.2l-2.6,3.1c-0.8-0.6-1.7-1.1-2.6-1.5
		c-0.9-0.3-1.9-0.5-3.1-0.5c-1.3,0-2.2,0.2-2.8,0.7c-0.5,0.5-0.8,1.1-0.8,1.9c0,0.5,0.2,0.9,0.6,1.3c0.4,0.4,1.1,0.7,2.1,0.8
		l3.5,0.3c2.2,0.2,3.7,0.8,4.7,2c0.9,1.2,1.3,2.6,1.3,4.4c0,2.1-0.8,3.7-2.5,4.8c-1.6,1.2-3.7,1.8-6.2,1.8c-3.4,0-6.5-1.3-9.2-3.8
		L122.4,125.3z"/>
	<path class="st0" d="M142.4,103.9h4.2v6.5h3v3.3h-3v12.5c0,1.1,0.5,1.6,1.5,1.6h1.6v4.1h-2.2c-1.5,0-2.7-0.5-3.6-1.4
		c-1-0.9-1.4-2.2-1.4-3.9v-12.9h-2.1v-3.3h2.1V103.9z"/>
	<path class="st0" d="M153.9,110.4h4.2v2.3h0.1c1.4-1.7,3.2-2.5,5.4-2.5c1.7,0,3.1,0.6,4.4,1.7l-3.1,3.7c-0.9-0.7-1.8-1.1-2.8-1.1
		c-1.1,0-2,0.4-2.8,1.1c-0.9,0.7-1.3,1.8-1.3,3.4v13h-4.2V110.4z"/>
	<path class="st0" d="M169.4,121.1c0-2.3,0.2-4,0.5-5.2c0.4-1.2,0.9-2.2,1.7-3c0.6-0.7,1.4-1.4,2.4-1.9c1-0.5,2.3-0.8,3.9-0.8
		c1.6,0,3,0.3,4,0.8c1,0.6,1.8,1.2,2.3,1.9c0.8,0.8,1.4,1.8,1.8,3c0.3,1.2,0.5,3,0.5,5.2c0,2.3-0.2,4-0.5,5.2
		c-0.3,1.2-0.9,2.2-1.8,3.1c-0.3,0.3-0.6,0.6-1,0.9c-0.3,0.3-0.8,0.6-1.3,0.9c-1,0.6-2.3,0.9-4,0.9c-1.6,0-2.9-0.3-3.9-0.9
		c-1-0.5-1.8-1.1-2.4-1.8c-0.8-0.9-1.4-1.9-1.7-3.1C169.6,125.1,169.4,123.4,169.4,121.1z M182.4,121.2c0-1.5-0.1-2.7-0.2-3.4
		c-0.1-0.7-0.4-1.3-0.8-1.8c-0.3-0.5-0.8-0.9-1.4-1.1c-0.6-0.3-1.2-0.4-2-0.4c-0.7,0-1.4,0.1-2,0.4c-0.6,0.3-1,0.7-1.4,1.1
		c-0.4,0.5-0.6,1.1-0.8,1.8c-0.2,0.7-0.2,1.8-0.2,3.3c0,1.5,0.1,2.6,0.2,3.3c0.2,0.7,0.4,1.3,0.8,1.9c0.4,0.4,0.8,0.8,1.4,1.1
		c0.6,0.3,1.3,0.5,2,0.5c0.8,0,1.4-0.2,2-0.5c0.6-0.3,1.1-0.7,1.4-1.1c0.4-0.5,0.7-1.2,0.8-1.9C182.3,123.7,182.4,122.6,182.4,121.2
		z"/>
	<path class="st0" d="M191.6,110.4h4.2v2.3h0.1c1.4-1.7,3.2-2.5,5.4-2.5c1.7,0,3.3,0.6,4.7,1.9c1.4,1.3,2.2,3.1,2.2,5.6v14.3h-4.2
		v-12.8c0-1.5-0.4-2.7-1.2-3.4c-0.8-0.8-1.7-1.2-2.9-1.2s-2.2,0.4-3,1.2c-0.8,0.8-1.2,1.9-1.2,3.4v12.8h-4.2V110.4z"/>
	<path class="st0" d="M213.4,121.1c0-2.3,0.2-4,0.5-5.2c0.4-1.2,0.9-2.2,1.7-3c0.6-0.7,1.4-1.4,2.4-1.9c1-0.5,2.3-0.8,3.9-0.8
		c1.6,0,3,0.3,4,0.8c1,0.6,1.8,1.2,2.3,1.9c0.8,0.8,1.4,1.8,1.8,3c0.3,1.2,0.5,3,0.5,5.2c0,2.3-0.2,4-0.5,5.2
		c-0.3,1.2-0.9,2.2-1.8,3.1c-0.3,0.3-0.6,0.6-1,0.9c-0.3,0.3-0.8,0.6-1.3,0.9c-1,0.6-2.3,0.9-4,0.9c-1.6,0-2.9-0.3-3.9-0.9
		c-1-0.5-1.8-1.1-2.4-1.8c-0.8-0.9-1.4-1.9-1.7-3.1C213.5,125.1,213.4,123.4,213.4,121.1z M226.4,121.2c0-1.5-0.1-2.7-0.2-3.4
		c-0.1-0.7-0.4-1.3-0.8-1.8c-0.3-0.5-0.8-0.9-1.4-1.1c-0.6-0.3-1.2-0.4-2-0.4c-0.7,0-1.4,0.1-2,0.4c-0.6,0.3-1,0.7-1.4,1.1
		c-0.4,0.5-0.6,1.1-0.8,1.8c-0.2,0.7-0.2,1.8-0.2,3.3c0,1.5,0.1,2.6,0.2,3.3c0.2,0.7,0.4,1.3,0.8,1.9c0.4,0.4,0.8,0.8,1.4,1.1
		c0.6,0.3,1.3,0.5,2,0.5c0.8,0,1.4-0.2,2-0.5c0.6-0.3,1.1-0.7,1.4-1.1c0.4-0.5,0.7-1.2,0.8-1.9C226.3,123.7,226.4,122.6,226.4,121.2
		z"/>
	<path class="st0" d="M235.4,110.4h4.2v2.3h0.1c1.4-1.7,3.3-2.5,5.6-2.5c1.5,0,2.7,0.3,3.6,0.8c0.9,0.5,1.7,1.2,2.5,2.1
		c1.7-1.9,3.9-2.8,6.8-2.8c1.8,0,3.4,0.6,4.9,1.9c1.5,1.3,2.2,3.1,2.3,5.6v14.3h-4.2v-12.8c0-1.5-0.4-2.7-1.2-3.4
		c-0.8-0.8-1.8-1.2-3.1-1.2c-1.3,0-2.3,0.4-3.1,1.2c-0.8,0.8-1.2,1.9-1.2,3.4v12.8h-4.2v-12.8c0-1.5-0.4-2.7-1.2-3.4
		c-0.8-0.8-1.9-1.2-3.1-1.2c-1.3,0-2.3,0.4-3.1,1.2c-0.8,0.8-1.3,1.9-1.3,3.4v12.8h-4.2V110.4z"/>
	<path class="st0" d="M268.7,110.4h4.4l4.9,15.1h0.1l4.9-15.1h4.5l-9,26c-0.6,1.6-1.4,2.7-2.4,3.4c-1,0.6-2.2,0.9-3.5,0.9h-1.4v-4.1
		h1.2c0.5,0,1.1-0.2,1.5-0.5c0.5-0.3,0.8-0.8,1-1.4l1.1-3.6L268.7,110.4z"/>
	<path class="st0" d="M301.1,101.7h11.4c2.4,0,4.4,0.7,6,2c1.9,1.5,2.8,3.7,2.9,6.4c-0.1,4.1-1.9,6.9-5.6,8.4l6.8,13.4h-5.3
		l-6.1-12.9h-5.7v12.9h-4.4V101.7z M305.5,114.9h6.7c1.7,0,2.9-0.5,3.7-1.5c0.8-0.9,1.2-2,1.2-3.3c0-1.6-0.5-2.7-1.5-3.4
		c-0.8-0.6-1.8-0.9-3.3-0.9h-7V114.9z"/>
	<path class="st0" d="M329.8,122.8c0,1.7,0.5,3,1.4,3.9c0.9,0.9,2.1,1.4,3.5,1.4c1.7,0,3.2-0.7,4.6-2.1l3,2.7
		c-2.1,2.3-4.6,3.5-7.5,3.5c-1.1,0-2.2-0.2-3.2-0.5c-0.5-0.2-1-0.4-1.5-0.7c-0.5-0.3-1-0.6-1.5-1c-0.9-0.8-1.6-1.9-2.1-3.4
		c-0.6-1.4-0.9-3.2-0.9-5.4c0-2.1,0.3-3.9,0.8-5.3c0.5-1.4,1.2-2.6,2-3.4c0.8-0.8,1.8-1.5,2.8-1.8c1-0.4,2-0.6,3-0.6
		c2.4,0,4.4,0.8,6,2.4c1.7,1.6,2.5,3.8,2.5,6.7v3.6H329.8z M338.6,119.2c-0.1-1.7-0.5-2.9-1.3-3.8c-0.8-0.8-1.8-1.2-3.1-1.2
		c-1.3,0-2.3,0.4-3.1,1.2c-0.8,0.9-1.2,2.1-1.3,3.8H338.6z"/>
	<path class="st0" d="M348.4,125.3c1.7,1.8,3.9,2.8,6.6,2.8c1.2,0,2.2-0.2,3-0.7c0.8-0.5,1.1-1.2,1.1-2c0-0.8-0.2-1.3-0.7-1.6
		c-0.5-0.3-1.1-0.5-1.9-0.5l-3.7-0.3c-1.8-0.2-3.2-0.8-4.3-1.8c-1.1-1-1.7-2.5-1.7-4.3c0-2.2,0.8-3.9,2.3-5c1.4-1.1,3.3-1.7,5.5-1.7
		c1,0,1.8,0.1,2.6,0.2c0.8,0.1,1.5,0.3,2.1,0.6c1.3,0.5,2.4,1.3,3.5,2.2l-2.6,3.1c-0.8-0.6-1.7-1.1-2.6-1.5
		c-0.9-0.3-1.9-0.5-3.1-0.5c-1.3,0-2.2,0.2-2.8,0.7c-0.5,0.5-0.8,1.1-0.8,1.9c0,0.5,0.2,0.9,0.6,1.3c0.4,0.4,1.1,0.7,2.1,0.8
		l3.5,0.3c2.2,0.2,3.7,0.8,4.7,2c0.9,1.2,1.3,2.6,1.3,4.4c0,2.1-0.8,3.7-2.5,4.8c-1.6,1.2-3.7,1.8-6.2,1.8c-3.4,0-6.5-1.3-9.2-3.8
		L348.4,125.3z"/>
	<path class="st0" d="M371.3,122.8c0,1.7,0.5,3,1.4,3.9c0.9,0.9,2.1,1.4,3.5,1.4c1.7,0,3.2-0.7,4.6-2.1l3,2.7
		c-2.1,2.3-4.6,3.5-7.5,3.5c-1.1,0-2.2-0.2-3.2-0.5c-0.5-0.2-1-0.4-1.5-0.7c-0.5-0.3-1-0.6-1.5-1c-0.9-0.8-1.6-1.9-2.1-3.4
		c-0.6-1.4-0.9-3.2-0.9-5.4c0-2.1,0.3-3.9,0.8-5.3c0.5-1.4,1.2-2.6,2-3.4c0.8-0.8,1.8-1.5,2.8-1.8c1-0.4,2-0.6,3-0.6
		c2.4,0,4.4,0.8,6,2.4c1.7,1.6,2.5,3.8,2.5,6.7v3.6H371.3z M380.1,119.2c-0.1-1.7-0.5-2.9-1.3-3.8c-0.8-0.8-1.8-1.2-3.1-1.2
		c-1.3,0-2.3,0.4-3.1,1.2c-0.8,0.9-1.2,2.1-1.3,3.8H380.1z"/>
	<path class="st0" d="M400.3,130L400.3,130c-0.5,0.7-1.1,1.3-1.9,1.6c-0.8,0.4-1.9,0.5-3.3,0.5c-2.3,0-4.1-0.7-5.4-1.9
		c-1.3-1.2-2-2.8-2-4.7c0-1.8,0.6-3.3,1.7-4.5c1.1-1.2,2.8-1.8,5.1-1.9h5.8V117c0-1.9-1.4-2.8-4.3-2.8c-1,0-1.9,0.1-2.5,0.3
		c-0.6,0.3-1.1,0.7-1.5,1.3l-3.3-2.6c1.6-2.1,3.9-3.2,7-3.1c2.6,0,4.7,0.5,6.3,1.5c1.6,1.1,2.4,2.9,2.4,5.5v14.7h-4.2V130z
		 M400.3,122.8h-5c-2.4,0.1-3.6,0.9-3.6,2.6c0,0.7,0.3,1.4,0.9,1.9c0.6,0.6,1.6,0.8,3,0.8c1.8,0,3-0.2,3.7-0.6c0.7-0.5,1-1.5,1-3.1
		V122.8z"/>
	<path class="st0" d="M410.6,110.4h4.2v2.3h0.1c1.4-1.7,3.2-2.5,5.4-2.5c1.7,0,3.1,0.6,4.4,1.7l-3.1,3.7c-0.9-0.7-1.8-1.1-2.8-1.1
		c-1.1,0-2,0.4-2.8,1.1c-0.9,0.7-1.3,1.8-1.3,3.4v13h-4.2V110.4z"/>
	<path class="st0" d="M442.4,128.4c-0.9,1.1-2,1.9-3.2,2.6c-1.2,0.7-2.7,1.1-4.3,1.1c-2.5,0-4.6-0.9-6.5-2.6c-1.9-1.7-2.9-4.5-3-8.4
		c0.1-3.9,1-6.7,3-8.5c1.9-1.7,4-2.6,6.5-2.5c1.6,0,3,0.4,4.3,1c1.2,0.7,2.3,1.6,3.2,2.7l-3.1,2.8c-1.1-1.5-2.5-2.2-4.2-2.3
		c-3.6-0.1-5.4,2.2-5.4,6.7c0.1,4.5,1.9,6.7,5.4,6.7c1.8,0,3.2-0.8,4.2-2.2L442.4,128.4z"/>
	<path class="st0" d="M445.9,101.7h4.2v11h0.1c1.4-1.7,3.2-2.5,5.4-2.5c1.7,0,3.3,0.6,4.7,1.9c1.4,1.3,2.2,3.1,2.2,5.6v14.3h-4.2
		v-12.8c0-1.5-0.4-2.7-1.2-3.4c-0.8-0.8-1.7-1.2-2.9-1.2c-1.2,0-2.2,0.4-3,1.2c-0.8,0.8-1.2,1.9-1.2,3.4v12.8h-4.2V101.7z"/>
	<path class="st0" d="M479.3,101.7h10.2c4,0,6.9,1.7,8.9,5.1c0.7,1.1,1.2,2.3,1.3,3.6c0.1,1.2,0.2,3.4,0.2,6.4
		c0,3.2-0.1,5.5-0.3,6.8c-0.1,0.6-0.3,1.2-0.5,1.7c-0.2,0.5-0.5,1-0.8,1.6c-0.9,1.4-2,2.6-3.6,3.5c-1.5,1-3.4,1.5-5.6,1.5h-9.9
		V101.7z M483.7,127.6h5.3c2.5,0,4.3-0.9,5.4-2.6c0.5-0.6,0.8-1.5,0.9-2.5c0.1-1,0.2-2.8,0.2-5.5c0-2.6-0.1-4.5-0.2-5.6
		c-0.2-1.1-0.5-2.1-1.1-2.8c-1.2-1.8-3-2.6-5.2-2.6h-5.3V127.6z"/>
	<path class="st0" d="M508.7,122.8c0,1.7,0.5,3,1.4,3.9c0.9,0.9,2.1,1.4,3.5,1.4c1.7,0,3.2-0.7,4.6-2.1l3,2.7
		c-2.1,2.3-4.6,3.5-7.5,3.5c-1.1,0-2.2-0.2-3.2-0.5c-0.5-0.2-1-0.4-1.5-0.7c-0.5-0.3-1-0.6-1.5-1c-0.9-0.8-1.6-1.9-2.1-3.4
		c-0.6-1.4-0.9-3.2-0.9-5.4c0-2.1,0.3-3.9,0.8-5.3c0.5-1.4,1.2-2.6,2-3.4c0.8-0.8,1.8-1.5,2.8-1.8c1-0.4,2-0.6,3-0.6
		c2.4,0,4.4,0.8,6,2.4c1.7,1.6,2.5,3.8,2.5,6.7v3.6H508.7z M517.5,119.2c-0.1-1.7-0.5-2.9-1.3-3.8c-0.8-0.8-1.8-1.2-3.1-1.2
		c-1.3,0-2.3,0.4-3.1,1.2c-0.8,0.9-1.2,2.1-1.3,3.8H517.5z"/>
	<path class="st0" d="M526.8,110.4h4.2v2.2c1.4-1.6,3.2-2.4,5.4-2.5c2.6,0.1,4.4,1,5.6,2.8c0.6,0.7,1,1.6,1.2,2.7
		c0.2,1.1,0.3,2.9,0.3,5.6c0,2.5-0.1,4.4-0.3,5.5c-0.2,1.1-0.6,2-1.2,2.7c-0.6,0.8-1.3,1.5-2.3,2c-0.9,0.5-2,0.8-3.3,0.8
		c-1.1,0-2-0.2-2.9-0.7c-0.9-0.4-1.7-1-2.5-1.8v11h-4.2V110.4z M535.1,127.8c1,0,1.8-0.2,2.3-0.6c0.6-0.4,1-0.9,1.2-1.5
		c0.3-0.7,0.4-1.4,0.5-2.2c0-0.8,0-1.6,0-2.4c0-0.9,0-1.7,0-2.5c-0.1-0.8-0.3-1.5-0.5-2.2c-0.2-0.7-0.6-1.2-1.2-1.5
		c-0.6-0.3-1.4-0.5-2.3-0.5c-0.9,0-1.7,0.2-2.2,0.6c-0.6,0.4-1,0.9-1.3,1.6c-0.3,0.7-0.4,1.4-0.5,2.1c-0.1,0.8-0.1,1.6-0.1,2.4
		c0,0.8,0,1.5,0.1,2.3c0.1,0.8,0.2,1.5,0.5,2.2c0.3,0.7,0.7,1.2,1.3,1.6C533.4,127.6,534.2,127.8,535.1,127.8z"/>
	<path class="st0" d="M559.8,130L559.8,130c-0.5,0.7-1.1,1.3-1.9,1.6c-0.8,0.4-1.9,0.5-3.3,0.5c-2.3,0-4.1-0.7-5.4-1.9
		c-1.3-1.2-2-2.8-2-4.7c0-1.8,0.6-3.3,1.7-4.5c1.1-1.2,2.8-1.8,5.1-1.9h5.8V117c0-1.9-1.4-2.8-4.3-2.8c-1,0-1.9,0.1-2.5,0.3
		c-0.6,0.3-1.1,0.7-1.5,1.3l-3.3-2.6c1.6-2.1,3.9-3.2,7-3.1c2.6,0,4.7,0.5,6.3,1.5c1.6,1.1,2.4,2.9,2.4,5.5v14.7h-4.2V130z
		 M559.8,122.8h-5c-2.4,0.1-3.6,0.9-3.6,2.6c0,0.7,0.3,1.4,0.9,1.9c0.6,0.6,1.6,0.8,3,0.8c1.8,0,3-0.2,3.7-0.6c0.7-0.5,1-1.5,1-3.1
		V122.8z"/>
	<path class="st0" d="M570,110.4h4.2v2.3h0.1c1.4-1.7,3.2-2.5,5.4-2.5c1.7,0,3.1,0.6,4.4,1.7l-3.1,3.7c-0.9-0.7-1.8-1.1-2.8-1.1
		c-1.1,0-2,0.4-2.8,1.1c-0.9,0.7-1.3,1.8-1.3,3.4v13H570V110.4z"/>
	<path class="st0" d="M586.8,103.9h4.2v6.5h3v3.3h-3v12.5c0,1.1,0.5,1.6,1.5,1.6h1.6v4.1h-2.2c-1.5,0-2.7-0.5-3.6-1.4
		c-1-0.9-1.4-2.2-1.4-3.9v-12.9h-2.1v-3.3h2.1V103.9z"/>
	<path class="st0" d="M598.2,110.4h4.2v2.3h0.1c1.4-1.7,3.3-2.5,5.6-2.5c1.5,0,2.7,0.3,3.6,0.8c0.9,0.5,1.7,1.2,2.5,2.1
		c1.7-1.9,3.9-2.8,6.8-2.8c1.8,0,3.4,0.6,4.9,1.9c1.5,1.3,2.2,3.1,2.3,5.6v14.3h-4.2v-12.8c0-1.5-0.4-2.7-1.2-3.4
		c-0.8-0.8-1.8-1.2-3.1-1.2c-1.3,0-2.3,0.4-3.1,1.2c-0.8,0.8-1.2,1.9-1.2,3.4v12.8H611v-12.8c0-1.5-0.4-2.7-1.2-3.4
		c-0.8-0.8-1.9-1.2-3.1-1.2s-2.3,0.4-3.1,1.2c-0.8,0.8-1.3,1.9-1.3,3.4v12.8h-4.2V110.4z"/>
	<path class="st0" d="M637.6,122.8c0,1.7,0.5,3,1.4,3.9c0.9,0.9,2.1,1.4,3.5,1.4c1.7,0,3.2-0.7,4.6-2.1l3,2.7
		c-2.1,2.3-4.6,3.5-7.5,3.5c-1.1,0-2.2-0.2-3.2-0.5c-0.5-0.2-1-0.4-1.5-0.7c-0.5-0.3-1-0.6-1.5-1c-0.9-0.8-1.6-1.9-2.1-3.4
		c-0.6-1.4-0.9-3.2-0.9-5.4c0-2.1,0.3-3.9,0.8-5.3c0.5-1.4,1.2-2.6,2-3.4c0.8-0.8,1.8-1.5,2.8-1.8c1-0.4,2-0.6,3-0.6
		c2.4,0,4.4,0.8,6,2.4c1.7,1.6,2.5,3.8,2.5,6.7v3.6H637.6z M646.4,119.2c-0.1-1.7-0.5-2.9-1.3-3.8c-0.8-0.8-1.8-1.2-3.1-1.2
		c-1.3,0-2.3,0.4-3.1,1.2c-0.8,0.9-1.2,2.1-1.3,3.8H646.4z"/>
	<path class="st0" d="M655.7,110.4h4.2v2.3h0.1c1.4-1.7,3.2-2.5,5.4-2.5c1.7,0,3.3,0.6,4.7,1.9c1.4,1.3,2.2,3.1,2.2,5.6v14.3h-4.2
		v-12.8c0-1.5-0.4-2.7-1.2-3.4c-0.8-0.8-1.7-1.2-2.9-1.2c-1.2,0-2.2,0.4-3,1.2c-0.8,0.8-1.2,1.9-1.2,3.4v12.8h-4.2V110.4z"/>
	<path class="st0" d="M678.7,103.9h4.2v6.5h3v3.3h-3v12.5c0,1.1,0.5,1.6,1.5,1.6h1.6v4.1h-2.2c-1.5,0-2.7-0.5-3.6-1.4
		c-1-0.9-1.4-2.2-1.4-3.9v-12.9h-2.1v-3.3h2.1V103.9z"/>
</g>
</svg>
