<?xml version="1.0" encoding="utf-8"?>
<!-- Generator: Adobe Illustrator 21.0.2, SVG Export Plug-In . SVG Version: 6.00 Build 0)  -->
<svg version="1.1" id="レイヤー_1" xmlns="http://www.w3.org/2000/svg" xmlns:xlink="http://www.w3.org/1999/xlink" x="0px"
	 y="0px" viewBox="0 0 780.7 142.6" style="enable-background:new 0 0 780.7 142.6;" xml:space="preserve">
<style type="text/css">
	.st0{fill:#FFFFFF;}
</style>
<g>
	<path class="st0" d="M146,62.7c-1.7,0.6-9.7,3.2-10.4,3.7c-0.2,0.2-1.1,1.6-1.5,1.6c-0.4,0-0.6-0.4-0.9-1.7l-1.7-8.4
		c4-0.9,7.6-1.9,10.6-2.9V37.6h-7.5V29h7.5V14.9h-8.8v-8h27.2v8h-8.9V29h7.5v8.6h-7.5v14.5c3.3-0.8,5.3-1.4,9.4-2.8V57
		C156.1,59,151.1,60.8,146,62.7z M156.7,75.6v-8.2h24.7V59h-14.9v-7.9h14.9v-8.2H165V5.3H207v37.6h-16.4v8.2h15.6V59h-15.6v8.4h18.4
		v8.2H156.7z M181.4,13.2h-7.5v7h7.5V13.2z M181.4,27.6h-7.5v7.8h7.5V27.6z M198.1,13.2h-7.6v7h7.6V13.2z M198.1,27.6h-7.6v7.8h7.6
		V27.6z"/>
	<path class="st0" d="M285,39.8V29.3h-52.1v11h-9.5V21.1H267c4.2-5.1,8.1-10.5,10.7-16.5l8.7,2.9c0.5,0.2,1.5,0.8,1.5,1.5
		c0,0.4-0.2,0.4-0.4,0.5c-0.3,0.3-2.2,0.7-2.5,1.1c-1.8,3.4-3.6,6.2-6.9,10.5h16.5v18.7H285z M264.5,58.6v13.3
		c0,6.2-5.1,7.6-10.5,7.6h-5.5l-3.9-9.3c1.1,0.1,6,0.5,7,0.5c1.5,0,2.1-1.3,2.1-2.6v-9.5h-30.3v-8.6h30.3v-5.5l4.2,0.7
		c1.9-1.7,2.6-2.6,3.3-3.7h-23.5v-8.2h39.8l2.5,3.9c-4,3.6-10.9,9.3-15.6,12.7h29.8v8.6H264.5z M236.9,20.3
		c-2.1-4.3-4.1-7.6-7.6-11.7l8.1-4.9c2.9,3.3,5.5,6.7,7.8,11.3L236.9,20.3z M256.8,18.6c-2.2-4.5-4.5-8.2-8.2-12.7l8-4.7
		c4.1,4.8,6.6,8.9,8.6,12.9L256.8,18.6z"/>
	<path class="st0" d="M331.8,13.5c-1.2,7.5-2.4,11.9-4.3,17.7H343v36.2h-16.4v9.2h-8.8V50.3c-2,2.7-3.3,4.1-5.3,6l-8.2-6
		c11-10.7,15.8-20.8,17.8-36.8h-12V4.6h34.6v8.9H331.8z M334.7,39.8h-8.1v19h8.1V39.8z M377.4,40.5V78H368V40.5h-7
		c-0.4,7.4-0.9,15-4,23.5c-3,8-6.8,11.6-10.3,14.9l-8.4-5.7c3.9-3.2,6.8-5.5,9.3-10.5c3.8-7.3,4.2-15.2,4.6-22.2h-7v-8.7h7V13.4
		h-4.3V4.9h35.9v8.5h-6.2v18.5h7.2v8.7H377.4z M368,13.4h-6.3v18.5h6.3V13.4z"/>
	<path class="st0" d="M462.6,77.8h-11.5c-4.4,0-8.3-1.7-8.3-6.5c0-1.7,1.9-18.4,2.2-20.7l-10.3,0.3c-3.5,12.8-14.7,23.5-32.2,27.6
		l-7.7-9.8c17.6-1.9,27.1-10,29.3-17.5l-22.7,0.6v-9.5l24.4-0.6c0.1-1.5,0.3-4.2,0.2-9.1l9.9,0.4v-2.8V16.5h-12.5l7.2,3.3
		c0.7,0.4,1.1,0.6,1.1,1.1c0,0.3-0.2,0.7-0.4,0.9c-0.3,0.2-1.9,0.7-2.2,1c-5.4,9.4-10.9,13.6-21,17.1l-6.3-8c3.8-0.9,8.6-2,13.4-6.5
		c3.8-3.5,4.7-6.4,5.5-8.8h-12.3v10h-9.6v-19h30.4V2.4l11.8,0.7c0.2,0,1.7,0.1,1.7,1.1c0,0.3-0.1,0.4-0.3,0.6
		c-0.2,0.2-1.6,1.1-1.6,1.3v1.4h30.5v18.3h-6.2c-2.5,9.8-4.9,11.3-10.8,11.3h-14c-1.1,0-2.2-0.2-3.3-0.9c-0.2,2.3-0.3,3.5-0.5,5.3
		l20-0.6c-1.8,12.3-2.8,23.3-2.8,23.7c0,2.9,2.1,3.1,2.5,3.1h4.1c2.9,0,3.3-2.5,4.1-8.2l9.4,3.8C472.2,73,470.3,77.8,462.6,77.8z
		 M461.6,16.5h-15.8v9.7c0,1.3,0.8,2.2,2.4,2.2h4.1c2.1,0,2.7-2,3.9-5.7l5.5,1.8V16.5z"/>
	<path class="st0" d="M554.3,67.9c-4.5-3.2-8.1-6-13.5-12v8.5h-12.8v14.2h-10.3V64.5h-12.1v-8.8h12.1v-20
		c-5.3,11.4-15.9,25.3-25,33.5l-8.4-5.9c11.7-8.9,22.9-24.9,27.3-36.7h-26.5v-9.5h32.5V2.4l8.6,0.4c1.1,0.1,3.3,0.4,3.3,1.4
		c0,0.4-0.3,0.6-0.8,1c-0.5,0.4-0.8,0.7-0.8,1.1v10.8h32.2v9.5h-27.6c5.7,14.2,16.5,25.4,29,34.3L554.3,67.9z M527.9,36.7v19h12.7
		C532.8,46.9,529.9,40.8,527.9,36.7z"/>
	<path class="st0" d="M572.9,40.6v-8.2h9.7c-1.5-4.7-3.3-8.4-5-11.3l6.2-2.6h-8.3v-7.7h14.2V2.3l11.7,0.6c1,0.1,1.4,0.3,1.4,1
		c0,0.4-0.2,0.6-0.6,0.9c-1.2,0.9-1.3,1-1.3,1.3v4.7h12.3v7.7h-9.4l6.9,4c0.7,0.4,1,0.8,1,1.1c0,0.5-0.4,0.8-0.9,1
		c-1.2,0.4-1.4,0.4-1.8,1.3c-1.3,4-2.2,5.5-2.7,6.4h8v8.2H572.9z M600.7,77.1v-2.2h-14.8v2.8h-8.8V45.5h33.1v31.6H600.7z
		 M585.9,18.6c2.5,4.7,4,8.3,5.1,11.9l-4.8,2h10.6c2.5-4.8,4.4-9.3,5.4-13.9H585.9z M600.7,54.3h-14.8v11.6h14.8V54.3z M632.2,70.5
		l-6.1-9v16.4h-9.1V6.2H646l3.3,4.8c-6.9,14.1-7.6,15.6-10.9,22.3c3.8,3.4,11,10,11,20.4C649.4,60.8,645.5,70.1,632.2,70.5z
		 M629.1,33.9c1.6-3.9,4.7-12.1,7-19.5h-10v45.9c1.5,0.2,4,0.3,4.7,0.3c6,0,9.1-4,9.1-7.7C640,45.4,631.9,36.8,629.1,33.9z"/>
</g>
<g>
	<path class="st0" d="M129.6,125.8c2.3,2,5,2.9,8.2,3c3.8-0.1,5.7-1.4,5.7-4.2c0-2.2-1.2-3.6-3.8-4c-1.2-0.2-2.4-0.3-3.8-0.6
		c-2.5-0.4-4.4-1.4-5.7-2.8c-1.3-1.5-2-3.4-2-5.5c0-2.6,0.8-4.7,2.5-6.3c1.6-1.6,3.9-2.4,6.9-2.4c3.6,0.1,6.7,1.1,9.4,3.1l-2.4,3.7
		c-2.2-1.5-4.6-2.2-7.2-2.3c-1.3,0-2.5,0.3-3.4,1c-0.9,0.7-1.4,1.8-1.4,3.2c0,0.9,0.3,1.6,1,2.3c0.6,0.7,1.7,1.2,3.1,1.5
		c0.8,0.1,1.9,0.3,3.2,0.5c2.7,0.4,4.7,1.4,6,3c1.3,1.6,1.9,3.5,1.9,5.6c-0.1,5.7-3.5,8.6-10.1,8.7c-4.3,0-7.9-1.4-11-4.1
		L129.6,125.8z"/>
	<path class="st0" d="M168,129.6c-0.9,1.1-2,1.9-3.2,2.6c-1.2,0.7-2.6,1.1-4.2,1.1c-2.4,0-4.6-0.9-6.4-2.6c-1.9-1.7-2.9-4.5-2.9-8.3
		c0.1-3.9,1-6.7,2.9-8.4c1.8-1.7,4-2.5,6.4-2.5c1.6,0,3,0.4,4.2,1c1.2,0.7,2.3,1.6,3.2,2.7l-3.1,2.8c-1-1.4-2.4-2.2-4.2-2.2
		c-3.5-0.1-5.3,2.2-5.3,6.6c0.1,4.5,1.8,6.7,5.3,6.6c1.7,0,3.1-0.8,4.2-2.2L168,129.6z"/>
	<path class="st0" d="M171.6,103.2h4.1v4.3h-4.1V103.2z M171.6,111.8h4.1V133h-4.1V111.8z"/>
	<path class="st0" d="M184.6,124c0,1.7,0.5,3,1.4,3.9c0.9,0.9,2,1.4,3.5,1.4c1.7,0,3.2-0.7,4.5-2.1l3,2.6c-2.1,2.3-4.6,3.5-7.4,3.4
		c-1.1,0-2.1-0.2-3.2-0.5c-0.5-0.2-1-0.4-1.5-0.7c-0.5-0.3-1-0.6-1.4-1c-0.9-0.8-1.6-1.9-2.1-3.3c-0.6-1.4-0.9-3.1-0.9-5.3
		c0-2.1,0.3-3.8,0.8-5.2c0.5-1.4,1.2-2.5,2-3.4c0.8-0.8,1.7-1.4,2.8-1.8c1-0.4,2-0.6,3-0.6c2.3,0,4.3,0.8,6,2.4
		c1.6,1.6,2.5,3.8,2.5,6.6v3.5H184.6z M193.3,120.5c-0.1-1.7-0.5-2.9-1.3-3.8c-0.8-0.8-1.8-1.2-3.1-1.2c-1.2,0-2.3,0.4-3.1,1.2
		c-0.8,0.8-1.2,2.1-1.3,3.8H193.3z"/>
	<path class="st0" d="M202.4,111.8h4.1v2.2h0.1c1.4-1.7,3.1-2.5,5.3-2.5c1.7,0,3.3,0.6,4.7,1.9c1.4,1.3,2.1,3.1,2.2,5.5V133h-4.1
		v-12.7c0-1.5-0.4-2.6-1.1-3.4c-0.8-0.8-1.7-1.2-2.9-1.2c-1.2,0-2.2,0.4-2.9,1.2c-0.8,0.8-1.2,1.9-1.2,3.4V133h-4.1V111.8z"/>
	<path class="st0" d="M240.1,129.6c-0.9,1.1-2,1.9-3.2,2.6c-1.2,0.7-2.6,1.1-4.2,1.1c-2.4,0-4.6-0.9-6.4-2.6
		c-1.9-1.7-2.9-4.5-2.9-8.3c0.1-3.9,1-6.7,2.9-8.4c1.8-1.7,4-2.5,6.4-2.5c1.6,0,3,0.4,4.2,1c1.2,0.7,2.3,1.6,3.2,2.7L237,118
		c-1-1.4-2.4-2.2-4.2-2.2c-3.5-0.1-5.3,2.2-5.3,6.6c0.1,4.5,1.8,6.7,5.3,6.6c1.7,0,3.1-0.8,4.2-2.2L240.1,129.6z"/>
	<path class="st0" d="M246.6,124c0,1.7,0.5,3,1.4,3.9c0.9,0.9,2,1.4,3.5,1.4c1.7,0,3.2-0.7,4.5-2.1l3,2.6c-2.1,2.3-4.6,3.5-7.4,3.4
		c-1.1,0-2.1-0.2-3.2-0.5c-0.5-0.2-1-0.4-1.5-0.7c-0.5-0.3-1-0.6-1.4-1c-0.9-0.8-1.6-1.9-2.1-3.3c-0.6-1.4-0.9-3.1-0.9-5.3
		c0-2.1,0.3-3.8,0.8-5.2c0.5-1.4,1.2-2.5,2-3.4c0.8-0.8,1.7-1.4,2.8-1.8c1-0.4,2-0.6,3-0.6c2.3,0,4.3,0.8,6,2.4
		c1.7,1.6,2.5,3.8,2.5,6.6v3.5H246.6z M255.3,120.5c-0.1-1.7-0.5-2.9-1.3-3.8c-0.8-0.8-1.8-1.2-3.1-1.2s-2.3,0.4-3.1,1.2
		c-0.8,0.8-1.2,2.1-1.3,3.8H255.3z"/>
	<path class="st0" d="M274.9,103.2h11.3c2.4,0,4.4,0.7,5.9,2c1.8,1.5,2.8,3.6,2.9,6.4c-0.1,4-1.9,6.8-5.6,8.3L296,133h-5.2l-6-12.7
		h-5.6V133h-4.4V103.2z M279.2,116.3h6.6c1.6,0,2.9-0.5,3.7-1.5c0.8-0.9,1.2-2,1.2-3.3c0-1.6-0.5-2.7-1.4-3.4
		c-0.7-0.6-1.8-0.9-3.2-0.9h-6.9V116.3z"/>
	<path class="st0" d="M303.1,124c0,1.7,0.5,3,1.4,3.9c0.9,0.9,2,1.4,3.5,1.4c1.7,0,3.2-0.7,4.5-2.1l3,2.6c-2.1,2.3-4.6,3.5-7.4,3.4
		c-1.1,0-2.1-0.2-3.2-0.5c-0.5-0.2-1-0.4-1.5-0.7c-0.5-0.3-1-0.6-1.4-1c-0.9-0.8-1.6-1.9-2.1-3.3c-0.6-1.4-0.9-3.1-0.9-5.3
		c0-2.1,0.3-3.8,0.8-5.2c0.5-1.4,1.2-2.5,2-3.4c0.8-0.8,1.7-1.4,2.8-1.8c1-0.4,2-0.6,3-0.6c2.3,0,4.3,0.8,6,2.4
		c1.7,1.6,2.5,3.8,2.5,6.6v3.5H303.1z M311.8,120.5c-0.1-1.7-0.5-2.9-1.3-3.8c-0.8-0.8-1.8-1.2-3.1-1.2s-2.3,0.4-3.1,1.2
		c-0.8,0.8-1.2,2.1-1.3,3.8H311.8z"/>
	<path class="st0" d="M321.6,126.5c1.7,1.8,3.9,2.7,6.5,2.7c1.2,0,2.2-0.2,2.9-0.7c0.8-0.5,1.1-1.1,1.1-2c0-0.8-0.2-1.3-0.7-1.6
		c-0.5-0.3-1.1-0.5-1.8-0.5l-3.7-0.3c-1.7-0.2-3.1-0.8-4.2-1.8c-1.1-1-1.7-2.4-1.7-4.2c0-2.2,0.8-3.8,2.2-4.9
		c1.4-1.1,3.2-1.6,5.4-1.6c1,0,1.8,0.1,2.6,0.2c0.8,0.1,1.5,0.3,2.1,0.6c1.3,0.5,2.4,1.2,3.4,2.1l-2.6,3.1c-0.8-0.6-1.6-1.1-2.5-1.5
		c-0.9-0.3-1.9-0.5-3-0.5c-1.3,0-2.2,0.2-2.7,0.7c-0.5,0.5-0.8,1.1-0.8,1.8c0,0.5,0.2,0.9,0.6,1.2c0.4,0.4,1.1,0.6,2.1,0.8l3.4,0.3
		c2.1,0.2,3.7,0.8,4.6,2c0.9,1.1,1.3,2.6,1.3,4.4c0,2.1-0.8,3.7-2.4,4.8c-1.6,1.1-3.6,1.7-6.1,1.8c-3.4,0-6.4-1.3-9.1-3.8
		L321.6,126.5z"/>
	<path class="st0" d="M344.2,124c0,1.7,0.5,3,1.4,3.9c0.9,0.9,2,1.4,3.5,1.4c1.7,0,3.2-0.7,4.5-2.1l3,2.6c-2.1,2.3-4.6,3.5-7.4,3.4
		c-1.1,0-2.1-0.2-3.2-0.5c-0.5-0.2-1-0.4-1.5-0.7c-0.5-0.3-1-0.6-1.4-1c-0.9-0.8-1.6-1.9-2.1-3.3c-0.6-1.4-0.9-3.1-0.9-5.3
		c0-2.1,0.3-3.8,0.8-5.2c0.5-1.4,1.2-2.5,2-3.4c0.8-0.8,1.7-1.4,2.8-1.8c1-0.4,2-0.6,3-0.6c2.3,0,4.3,0.8,6,2.4
		c1.6,1.6,2.5,3.8,2.5,6.6v3.5H344.2z M352.9,120.5c-0.1-1.7-0.5-2.9-1.3-3.8c-0.8-0.8-1.8-1.2-3.1-1.2c-1.2,0-2.3,0.4-3.1,1.2
		c-0.8,0.8-1.2,2.1-1.3,3.8H352.9z"/>
	<path class="st0" d="M372.8,131.1L372.8,131.1c-0.5,0.7-1.1,1.3-1.9,1.6c-0.8,0.4-1.9,0.5-3.3,0.5c-2.3,0-4.1-0.7-5.3-1.9
		c-1.3-1.2-2-2.7-2-4.6c0-1.8,0.6-3.3,1.7-4.4c1.1-1.2,2.8-1.8,5-1.8h5.7v-2.2c0-1.9-1.4-2.8-4.2-2.7c-1,0-1.8,0.1-2.4,0.3
		c-0.6,0.3-1.1,0.7-1.5,1.3l-3.2-2.6c1.6-2.1,3.9-3.1,6.9-3.1c2.6,0,4.7,0.5,6.2,1.5c1.5,1.1,2.3,2.9,2.4,5.5V133h-4.1V131.1z
		 M372.8,124h-5c-2.4,0.1-3.6,0.9-3.6,2.6c0,0.7,0.3,1.3,0.9,1.8c0.6,0.6,1.6,0.8,3,0.8c1.7,0,3-0.2,3.7-0.6c0.6-0.5,1-1.5,1-3.1
		V124z"/>
	<path class="st0" d="M382.9,111.8h4.1v2.2h0.1c1.4-1.7,3.1-2.5,5.3-2.5c1.7,0,3.1,0.6,4.3,1.6l-3,3.7c-0.9-0.7-1.8-1.1-2.7-1.1
		c-1.1,0-2,0.4-2.7,1.1c-0.8,0.7-1.3,1.8-1.3,3.4V133h-4.1V111.8z"/>
	<path class="st0" d="M413.6,129.6c-0.9,1.1-2,1.9-3.2,2.6c-1.2,0.7-2.6,1.1-4.2,1.1c-2.4,0-4.6-0.9-6.4-2.6
		c-1.9-1.7-2.9-4.5-2.9-8.3c0.1-3.9,1-6.7,2.9-8.4c1.8-1.7,4-2.5,6.4-2.5c1.6,0,3,0.4,4.2,1c1.2,0.7,2.3,1.6,3.2,2.7l-3.1,2.8
		c-1-1.4-2.4-2.2-4.2-2.2c-3.5-0.1-5.3,2.2-5.3,6.6c0.1,4.5,1.8,6.7,5.3,6.6c1.7,0,3.1-0.8,4.2-2.2L413.6,129.6z"/>
	<path class="st0" d="M417.1,103.2h4.1V114h0.1c1.4-1.7,3.1-2.5,5.3-2.5c1.7,0,3.3,0.6,4.7,1.9c1.4,1.3,2.1,3.1,2.2,5.5V133h-4.1
		v-12.7c0-1.5-0.4-2.6-1.2-3.4c-0.8-0.8-1.7-1.2-2.9-1.2c-1.2,0-2.2,0.4-2.9,1.2c-0.8,0.8-1.2,1.9-1.2,3.4V133h-4.1V103.2z"/>
	<path class="st0" d="M450,103.2h10.1c3.9,0,6.8,1.7,8.8,5c0.7,1.1,1.1,2.3,1.3,3.5c0.1,1.2,0.2,3.3,0.2,6.4c0,3.2-0.1,5.4-0.3,6.7
		c-0.1,0.6-0.3,1.2-0.5,1.7c-0.2,0.5-0.5,1-0.8,1.5c-0.8,1.4-2,2.6-3.5,3.5c-1.5,1-3.3,1.5-5.5,1.5H450V103.2z M454.3,128.7h5.2
		c2.5,0,4.2-0.9,5.4-2.6c0.5-0.6,0.8-1.5,0.9-2.4c0.1-1,0.2-2.8,0.2-5.5c0-2.6-0.1-4.5-0.2-5.6c-0.2-1.1-0.5-2-1.1-2.7
		c-1.2-1.7-2.9-2.6-5.2-2.5h-5.2V128.7z"/>
	<path class="st0" d="M479.1,124c0,1.7,0.5,3,1.4,3.9c0.9,0.9,2,1.4,3.5,1.4c1.7,0,3.2-0.7,4.5-2.1l3,2.6c-2.1,2.3-4.6,3.5-7.4,3.4
		c-1.1,0-2.1-0.2-3.2-0.5c-0.5-0.2-1-0.4-1.5-0.7c-0.5-0.3-1-0.6-1.4-1c-0.9-0.8-1.6-1.9-2.1-3.3c-0.6-1.4-0.9-3.1-0.9-5.3
		c0-2.1,0.3-3.8,0.8-5.2c0.5-1.4,1.2-2.5,2-3.4c0.8-0.8,1.7-1.4,2.8-1.8c1-0.4,2-0.6,3-0.6c2.3,0,4.3,0.8,6,2.4
		c1.6,1.6,2.5,3.8,2.5,6.6v3.5H479.1z M487.8,120.5c-0.1-1.7-0.5-2.9-1.3-3.8c-0.8-0.8-1.8-1.2-3.1-1.2c-1.2,0-2.3,0.4-3.1,1.2
		c-0.8,0.8-1.2,2.1-1.3,3.8H487.8z"/>
	<path class="st0" d="M496.9,111.8h4.1v2.2c1.4-1.6,3.1-2.4,5.3-2.5c2.5,0.1,4.4,1,5.5,2.8c0.6,0.7,1,1.5,1.2,2.6
		c0.2,1.1,0.3,2.9,0.3,5.5c0,2.5-0.1,4.3-0.3,5.4c-0.2,1.1-0.6,2-1.2,2.7c-0.6,0.8-1.3,1.5-2.2,2c-0.9,0.5-2,0.8-3.3,0.8
		c-1.1,0-2-0.2-2.8-0.7c-0.9-0.4-1.7-1-2.5-1.8v10.8h-4.1V111.8z M505.1,129c1,0,1.8-0.2,2.3-0.6c0.6-0.4,1-0.9,1.2-1.5
		c0.3-0.6,0.4-1.4,0.5-2.1c0-0.8,0-1.6,0-2.4c0-0.8,0-1.7,0-2.5c-0.1-0.8-0.3-1.5-0.5-2.1c-0.2-0.6-0.6-1.1-1.2-1.5
		c-0.6-0.3-1.3-0.5-2.3-0.5c-0.9,0-1.7,0.2-2.2,0.6c-0.6,0.4-1,0.9-1.2,1.6c-0.3,0.6-0.4,1.3-0.5,2.1c-0.1,0.8-0.1,1.6-0.1,2.4
		c0,0.8,0,1.5,0.1,2.3c0.1,0.8,0.2,1.5,0.5,2.2c0.3,0.6,0.7,1.2,1.2,1.6C503.4,128.8,504.2,129,505.1,129z"/>
	<path class="st0" d="M529.4,131.1L529.4,131.1c-0.5,0.7-1.1,1.3-1.9,1.6c-0.8,0.4-1.9,0.5-3.3,0.5c-2.3,0-4.1-0.7-5.3-1.9
		c-1.3-1.2-2-2.7-2-4.6c0-1.8,0.6-3.3,1.7-4.4c1.1-1.2,2.8-1.8,5-1.8h5.7v-2.2c0-1.9-1.4-2.8-4.2-2.7c-1,0-1.8,0.1-2.4,0.3
		c-0.6,0.3-1.1,0.7-1.5,1.3l-3.2-2.6c1.6-2.1,3.9-3.1,6.9-3.1c2.6,0,4.7,0.5,6.2,1.5c1.5,1.1,2.3,2.9,2.4,5.5V133h-4.1V131.1z
		 M529.4,124h-5c-2.4,0.1-3.6,0.9-3.6,2.6c0,0.7,0.3,1.3,0.9,1.8c0.6,0.6,1.6,0.8,3,0.8c1.7,0,3-0.2,3.7-0.6c0.6-0.5,1-1.5,1-3.1
		V124z"/>
	<path class="st0" d="M539.6,111.8h4.1v2.2h0.1c1.4-1.7,3.1-2.5,5.3-2.5c1.7,0,3.1,0.6,4.3,1.6l-3,3.7c-0.9-0.7-1.8-1.1-2.7-1.1
		c-1.1,0-2,0.4-2.7,1.1c-0.8,0.7-1.3,1.8-1.3,3.4V133h-4.1V111.8z"/>
	<path class="st0" d="M556.1,105.3h4.1v6.5h3v3.3h-3v12.4c0,1.1,0.5,1.6,1.5,1.6h1.5v4h-2.2c-1.5,0-2.6-0.5-3.6-1.4
		c-0.9-0.9-1.4-2.2-1.4-3.8V115h-2.1v-3.3h2.1V105.3z"/>
	<path class="st0" d="M567.4,111.8h4.1v2.2h0.1c1.4-1.7,3.3-2.5,5.5-2.5c1.5,0,2.7,0.3,3.6,0.8c0.9,0.5,1.7,1.2,2.4,2
		c1.7-1.9,3.9-2.8,6.7-2.8c1.8,0,3.4,0.6,4.8,1.9c1.4,1.3,2.2,3.1,2.2,5.5V133h-4.1v-12.7c0-1.5-0.4-2.6-1.2-3.4
		c-0.8-0.8-1.8-1.2-3.1-1.2c-1.2,0-2.3,0.4-3.1,1.2c-0.8,0.8-1.2,1.9-1.2,3.4V133h-4.1v-12.7c0-1.5-0.4-2.6-1.2-3.4
		c-0.8-0.8-1.8-1.2-3.1-1.2c-1.2,0-2.3,0.4-3.1,1.2c-0.8,0.8-1.2,1.9-1.2,3.4V133h-4.1V111.8z"/>
	<path class="st0" d="M606.3,124c0,1.7,0.5,3,1.4,3.9c0.9,0.9,2,1.4,3.5,1.4c1.7,0,3.2-0.7,4.5-2.1l3,2.6c-2.1,2.3-4.6,3.5-7.4,3.4
		c-1.1,0-2.1-0.2-3.2-0.5c-0.5-0.2-1-0.4-1.5-0.7c-0.5-0.3-1-0.6-1.4-1c-0.9-0.8-1.6-1.9-2.1-3.3c-0.6-1.4-0.9-3.1-0.9-5.3
		c0-2.1,0.3-3.8,0.8-5.2c0.5-1.4,1.2-2.5,2-3.4c0.8-0.8,1.7-1.4,2.8-1.8c1-0.4,2-0.6,3-0.6c2.3,0,4.3,0.8,6,2.4
		c1.6,1.6,2.5,3.8,2.5,6.6v3.5H606.3z M615,120.5c-0.1-1.7-0.5-2.9-1.3-3.8c-0.8-0.8-1.8-1.2-3.1-1.2c-1.2,0-2.3,0.4-3.1,1.2
		c-0.8,0.8-1.2,2.1-1.3,3.8H615z"/>
	<path class="st0" d="M624.1,111.8h4.1v2.2h0.1c1.4-1.7,3.1-2.5,5.3-2.5c1.7,0,3.3,0.6,4.7,1.9c1.4,1.3,2.1,3.1,2.2,5.5V133h-4.1
		v-12.7c0-1.5-0.4-2.6-1.1-3.4c-0.8-0.8-1.7-1.2-2.9-1.2c-1.2,0-2.2,0.4-2.9,1.2c-0.8,0.8-1.2,1.9-1.2,3.4V133h-4.1V111.8z"/>
	<path class="st0" d="M646.9,105.3h4.1v6.5h3v3.3h-3v12.4c0,1.1,0.5,1.6,1.5,1.6h1.5v4h-2.2c-1.5,0-2.6-0.5-3.6-1.4
		c-0.9-0.9-1.4-2.2-1.4-3.8V115h-2.1v-3.3h2.1V105.3z"/>
</g>
</svg>
