<?xml version="1.0" encoding="utf-8"?>
<!-- Generator: Adobe Illustrator 22.1.0, SVG Export Plug-In . SVG Version: 6.00 Build 0)  -->
<svg version="1.1" id="レイヤー_1" xmlns="http://www.w3.org/2000/svg" xmlns:xlink="http://www.w3.org/1999/xlink" x="0px"
	 y="0px" width="526px" height="142.3px" viewBox="0 0 526 142.3" style="enable-background:new 0 0 526 142.3;"
	 xml:space="preserve">
<style type="text/css">
	.st0{fill:#FFFFFF;}
</style>
<g>
	<path class="st0" d="M0,72V61.7h32.7V17.7h-27v-10h65.1v10H43.7v43.9h32.5V72H0z"/>
	<path class="st0" d="M154.4,39.4V28.7h-53.2v11.2h-9.7V20.3h44.5c4.3-5.2,8.2-10.7,10.9-16.9l8.9,3c0.5,0.2,1.5,0.8,1.5,1.5
		c0,0.4-0.2,0.4-0.4,0.5c-0.3,0.3-2.2,0.7-2.6,1.1c-1.9,3.5-3.7,6.4-7,10.8h16.9v19.1H154.4z M133.5,58.5v13.5
		c0,6.3-5.2,7.8-10.7,7.8h-5.6l-3.9-9.5c1.1,0.1,6.1,0.5,7.2,0.5c1.5,0,2.2-1.3,2.2-2.7v-9.7H91.6v-8.8h30.9v-5.6l4.3,0.7
		c2-1.7,2.7-2.7,3.4-3.8h-23.9v-8.3h40.6l2.5,3.9c-4,3.7-11.1,9.5-16,13h30.4v8.8H133.5z M105.3,19.5c-2.2-4.4-4.2-7.7-7.7-11.9
		l8.2-5c3,3.4,5.6,6.8,8,11.6L105.3,19.5z M125.7,17.7c-2.2-4.6-4.6-8.3-8.3-12.9l8.2-4.8c4.2,4.9,6.7,9.1,8.8,13.2L125.7,17.7z"/>
	<path class="st0" d="M202.1,12.5c-1.3,7.6-2.4,12.1-4.4,18h15.8v36.9h-16.7v9.4h-9V50.1c-2.1,2.8-3.4,4.2-5.4,6.1l-8.3-6.1
		c11.2-10.9,16.1-21.2,18.1-37.6H180V3.5h35.3v9.1H202.1z M205.1,39.4h-8.2v19.4h8.2V39.4z M248.6,40.2v38.2h-9.6V40.2h-7.2
		c-0.4,7.5-0.9,15.3-4.1,23.9c-3,8.2-6.9,11.8-10.5,15.2l-8.6-5.8c3.9-3.2,6.9-5.6,9.5-10.7c3.9-7.4,4.3-15.5,4.7-22.7h-7.2v-8.9
		h7.2V12.5h-4.4V3.8H255v8.7h-6.4v18.8h7.4v8.9H248.6z M239.1,12.5h-6.5v18.8h6.5V12.5z"/>
	<path class="st0" d="M335.5,78.2h-11.7c-4.5,0-8.4-1.7-8.4-6.6c0-1.7,2-18.7,2.2-21.1l-10.5,0.3c-3.6,13.1-15,23.9-32.8,28.1
		l-7.9-9.9c17.9-2,27.6-10.2,29.8-17.8l-23.1,0.6V42l24.9-0.6c0.1-1.5,0.3-4.3,0.2-9.2l10.1,0.4v-2.9V15.6h-12.7l7.3,3.3
		c0.7,0.4,1.1,0.6,1.1,1.1c0,0.3-0.2,0.7-0.4,0.9s-2,0.7-2.2,1c-5.5,9.6-11.1,13.9-21.4,17.5l-6.5-8.2c3.9-0.9,8.8-2.1,13.6-6.6
		c3.9-3.6,4.8-6.5,5.6-9h-12.5v10.2h-9.8V6.5h31V1.3l12,0.7c0.2,0,1.7,0.1,1.7,1.1c0,0.3-0.1,0.4-0.3,0.6c-0.2,0.2-1.6,1.1-1.6,1.3
		v1.4h31.1v18.6H338c-2.5,9.9-5,11.6-11,11.6h-14.3c-1.1,0-2.2-0.2-3.3-0.9c-0.2,2.3-0.3,3.6-0.5,5.4l20.3-0.6
		c-1.8,12.5-2.9,23.8-2.9,24.2c0,3,2.2,3.1,2.6,3.1h4.2c3,0,3.3-2.5,4.2-8.3l9.6,3.9C345.3,73.2,343.4,78.2,335.5,78.2z M334.4,15.6
		h-16.1v9.9c0,1.3,0.8,2.2,2.4,2.2h4.2c2.2,0,2.8-2.1,3.9-5.8l5.6,1.8V15.6z"/>
	<path class="st0" d="M429,68c-4.6-3.2-8.2-6.1-13.8-12.2v8.7h-13.1V79h-10.5V64.5h-12.4v-9h12.4V35.2
		c-5.4,11.7-16.2,25.8-25.5,34.1l-8.5-6c11.9-9.1,23.3-25.4,27.9-37.5h-27.1v-9.7h33.2v-15l8.8,0.4c1.2,0.1,3.3,0.4,3.3,1.4
		c0,0.4-0.3,0.6-0.8,1c-0.5,0.4-0.8,0.7-0.8,1.1v11h32.8v9.7h-28.1c5.8,14.4,16.9,25.9,29.6,35L429,68z M402.1,36.2v19.4H415
		C407.1,46.6,404.2,40.4,402.1,36.2z"/>
	<path class="st0" d="M448,40.2v-8.3h9.9c-1.5-4.8-3.4-8.5-5.1-11.5l6.3-2.7h-8.4V9.9H465V1.2L477,1.8c1,0.1,1.4,0.3,1.4,1
		c0,0.4-0.2,0.6-0.6,0.9c-1.3,0.9-1.3,1-1.3,1.3v4.8H489v7.9h-9.6l7.1,4.1c0.7,0.4,1,0.8,1,1.2c0,0.5-0.4,0.8-0.9,1
		c-1.3,0.4-1.4,0.4-1.8,1.3c-1.3,4-2.2,5.6-2.8,6.5h8.2v8.3H448z M476.3,77.4v-2.2h-15.1v2.9h-9V45.2H486v32.3H476.3z M461.3,17.7
		c2.6,4.8,4,8.4,5.2,12.1l-4.9,2.1h10.8c2.5-4.9,4.5-9.5,5.5-14.2H461.3z M476.3,54.2h-15.1v11.8h15.1V54.2z M508.4,70.7l-6.2-9.1
		v16.7H493V5.1h29.5l3.4,4.9c-7,14.3-7.8,16-11.1,22.8C518.6,36.3,526,43,526,53.6C526,60.8,522,70.3,508.4,70.7z M505.3,33.3
		c1.6-3.9,4.8-12.4,7.2-19.9h-10.2v46.8c1.5,0.2,4,0.3,4.8,0.3c6.1,0,9.3-4.1,9.3-7.9C516.4,45.1,508.1,36.3,505.3,33.3z"/>
</g>
<g>
	<path class="st0" d="M51.9,102.5h18.4v4.5h-13v8.1h11v4.5h-11v8.4h13.1v4.5H51.9V102.5z"/>
	<path class="st0" d="M74,110.9h3.9l0.5,1.9c1.4-1.7,3-2.3,5.7-2.3c3.7,0,6.1,1.4,7.1,4.2c0.5,1.2,0.6,2.9,0.6,5.5v12.3h-5.2v-11.7
		c0-4.2-1-5.8-3.6-5.8c-2.8,0-3.9,1.7-3.9,6.4v11.1H74V110.9z"/>
	<path class="st0" d="M108.5,131.4c-1.4,1-2.9,1.5-5.1,1.5c-5.5,0-7.9-2.9-7.9-9.6v-3.1c0-6.8,2.4-9.6,8.1-9.6
		c2.6,0,4.2,0.5,5.6,1.9l0.5-1.4h4v21c0,7-3.1,10.4-9.6,10.4c-4,0-6.5-1.3-8.1-4.1l3.9-2.2c1,1.7,2.1,2.3,4.1,2.3
		c3.1,0,4.5-1.7,4.6-5.8L108.5,131.4z M100.7,122.8c0,4,1.2,5.8,3.9,5.8s3.9-1.6,3.9-4.9v-4.2c0-3.4-1.3-4.9-3.9-4.9
		s-3.9,1.8-3.9,5.9V122.8z"/>
	<path class="st0" d="M118.3,102.2h5.2v5.3h-5.2V102.2z M118.3,110.9h5.2v21.5h-5.2V110.9z"/>
	<path class="st0" d="M128.1,110.9h3.9l0.5,1.9c1.4-1.7,3-2.3,5.7-2.3c3.7,0,6.1,1.4,7.1,4.2c0.5,1.2,0.6,2.9,0.6,5.5v12.3h-5.2
		v-11.7c0-4.2-1-5.8-3.6-5.8c-2.8,0-3.9,1.7-3.9,6.4v11.1h-5.2V110.9z"/>
	<path class="st0" d="M154.9,123.6c0,3.4,1.6,5.2,4.7,5.2c2.1,0,3.3-0.6,4.4-2.2l3.8,2.2c-1.8,2.9-4.3,4.1-8.8,4.1
		c-6.5,0-9.3-3.1-9.3-10.3V121c0-7.5,2.7-10.6,9.2-10.6c6.5,0,9.2,3.1,9.2,10.6v1.9h-13.2V123.6z M163.2,119.3v-0.5
		c0-2.9-1.5-4.5-4.2-4.5c-2.6,0-4.2,1.6-4.2,4.5v0.5H163.2z"/>
	<path class="st0" d="M176.2,123.6c0,3.4,1.6,5.2,4.7,5.2c2.1,0,3.3-0.6,4.4-2.2l3.8,2.2c-1.8,2.9-4.3,4.1-8.8,4.1
		c-6.5,0-9.3-3.1-9.3-10.3V121c0-7.5,2.7-10.6,9.2-10.6c6.5,0,9.2,3.1,9.2,10.6v1.9h-13.2V123.6z M184.5,119.3v-0.5
		c0-2.9-1.5-4.5-4.2-4.5c-2.6,0-4.2,1.6-4.2,4.5v0.5H184.5z"/>
	<path class="st0" d="M192.9,110.9h4l0.6,1.6c1.3-1.5,2.6-2,4.4-2c1.6,0,2.9,0.4,4.6,1.3l-2.3,4.3c-1.1-0.8-1.9-1.1-2.9-1.1
		c-2.4,0-3.4,2.1-3.4,7.1v10.4h-5.2V110.9z"/>
	<path class="st0" d="M208.7,102.2h5.2v5.3h-5.2V102.2z M208.7,110.9h5.2v21.5h-5.2V110.9z"/>
	<path class="st0" d="M218.4,110.9h3.9l0.5,1.9c1.4-1.7,3-2.3,5.7-2.3c3.7,0,6.1,1.4,7.1,4.2c0.5,1.2,0.6,2.9,0.6,5.5v12.3h-5.2
		v-11.7c0-4.2-1-5.8-3.6-5.8c-2.8,0-3.9,1.7-3.9,6.4v11.1h-5.2V110.9z"/>
	<path class="st0" d="M253,131.4c-1.4,1-2.9,1.5-5.1,1.5c-5.5,0-7.9-2.9-7.9-9.6v-3.1c0-6.8,2.4-9.6,8.1-9.6c2.6,0,4.2,0.5,5.6,1.9
		l0.5-1.4h4v21c0,7-3.1,10.4-9.6,10.4c-4,0-6.5-1.3-8.1-4.1l3.9-2.2c1,1.7,2.1,2.3,4.1,2.3c3.1,0,4.5-1.7,4.6-5.8L253,131.4z
		 M245.1,122.8c0,4,1.2,5.8,3.9,5.8s3.9-1.6,3.9-4.9v-4.2c0-3.4-1.3-4.9-3.9-4.9s-3.9,1.8-3.9,5.9V122.8z"/>
	<path class="st0" d="M270,102.5h10.1c7.8-0.1,11.6,3.7,11.4,11.6v6.7c0.2,7.9-3.5,11.7-11.4,11.6H270V102.5z M279.2,128
		c5.1,0.1,6.8-1.8,6.8-7.6v-5.9c-0.1-5.8-1.8-7.7-6.8-7.6h-3.7V128H279.2z"/>
	<path class="st0" d="M300.5,123.6c0,3.4,1.6,5.2,4.7,5.2c2.1,0,3.3-0.6,4.4-2.2l3.8,2.2c-1.8,2.9-4.3,4.1-8.8,4.1
		c-6.5,0-9.3-3.1-9.3-10.3V121c0-7.5,2.7-10.6,9.2-10.6s9.2,3.1,9.2,10.6v1.9h-13.2V123.6z M308.8,119.3v-0.5c0-2.9-1.5-4.5-4.2-4.5
		c-2.6,0-4.2,1.6-4.2,4.5v0.5H308.8z"/>
	<path class="st0" d="M317.2,110.9h4l0.5,1.4c1.6-1.3,3.2-1.8,5.5-1.8c5.7,0,8.1,2.9,8.1,9.6v3.1c0,6.8-2.4,9.6-8.1,9.6
		c-1.9,0-3.3-0.4-4.9-1.4v10.4h-5.2V110.9z M330.3,120.5c0-4.1-1.2-5.9-3.9-5.9s-3.9,1.6-3.9,4.9v4.2c0,3.4,1.3,4.9,3.9,4.9
		s3.9-1.8,3.9-5.8V120.5z"/>
	<path class="st0" d="M350.3,118.4c0-2.7-1.1-3.9-3.6-3.9c-1.8,0-3.2,0.7-4.4,2.1l-3.6-2.6c1.9-2.5,4.7-3.7,8.5-3.7
		c3.8,0,6.4,1.3,7.5,3.6c0.6,1.2,0.8,2.6,0.8,5.3v13h-4.1l-0.3-1.3c-1.4,1.3-2.9,1.7-5.9,1.7c-5.3,0-7.3-1.8-7.3-6.7
		c0-5.2,2-6.8,8.1-6.8h4.4V118.4z M346.6,122.9c-2.7,0-3.7,0.9-3.7,3.1c0,2.2,0.9,2.9,3.7,2.9c1.7,0,2.7-0.4,3.3-1.2
		c0.4-0.5,0.5-1,0.5-2.5v-2.3H346.6z"/>
	<path class="st0" d="M359.9,110.9h4l0.6,1.6c1.3-1.5,2.6-2,4.4-2c1.6,0,2.9,0.4,4.6,1.3l-2.3,4.3c-1.1-0.8-1.9-1.1-2.9-1.1
		c-2.4,0-3.4,2.1-3.4,7.1v10.4h-5.2V110.9z"/>
	<path class="st0" d="M374.8,115v-4.1h2.4l0.3-6.3h4.9v6.3h4.3v4.1h-4.3v8.9c0,3.3,0.8,4.3,3.7,4.2h0.6v4.2h-0.8
		c-7.2,0-8.7-1.6-8.7-9V115H374.8z"/>
	<path class="st0" d="M389.6,110.9h3.9l0.4,1.8c1.1-1.5,2.9-2.3,5.2-2.3c2.6,0,4.7,1,5.9,2.8c1.2-1.9,3.1-2.8,6-2.8
		c3.7,0,6,1.4,7,4.2c0.4,1.2,0.6,2.9,0.6,5.5v12.3h-5.2v-11.8c0-4.1-0.9-5.7-3.3-5.7c-2.4,0-3.4,1.8-3.4,6.2v11.3h-5.2v-11.7
		c0-4.2-0.9-5.8-3.2-5.8c-2.5,0-3.4,1.8-3.4,6.4v11.2h-5.2V110.9z"/>
	<path class="st0" d="M427.5,123.6c0,3.4,1.6,5.2,4.7,5.2c2.1,0,3.3-0.6,4.4-2.2l3.8,2.2c-1.8,2.9-4.3,4.1-8.8,4.1
		c-6.5,0-9.3-3.1-9.3-10.3V121c0-7.5,2.7-10.6,9.2-10.6c6.5,0,9.2,3.1,9.2,10.6v1.9h-13.2V123.6z M435.8,119.3v-0.5
		c0-2.9-1.5-4.5-4.2-4.5c-2.6,0-4.2,1.6-4.2,4.5v0.5H435.8z"/>
	<path class="st0" d="M444.2,110.9h3.9l0.5,1.9c1.4-1.7,3-2.3,5.7-2.3c3.7,0,6.1,1.4,7.1,4.2c0.5,1.2,0.6,2.9,0.6,5.5v12.3h-5.2
		v-11.7c0-4.2-1-5.8-3.6-5.8c-2.8,0-3.9,1.7-3.9,6.4v11.1h-5.2V110.9z"/>
	<path class="st0" d="M464.6,115v-4.1h2.4l0.3-6.3h4.9v6.3h4.3v4.1h-4.3v8.9c0,3.3,0.8,4.3,3.7,4.2h0.6v4.2h-0.8
		c-7.2,0-8.7-1.6-8.7-9V115H464.6z"/>
</g>
</svg>
