<?xml version="1.0" encoding="utf-8"?>
<!-- Generator: Adobe Illustrator 22.1.0, SVG Export Plug-In . SVG Version: 6.00 Build 0)  -->
<svg version="1.1" id="レイヤー_1" xmlns="http://www.w3.org/2000/svg" xmlns:xlink="http://www.w3.org/1999/xlink" x="0px"
	 y="0px" width="780.7px" height="142.6px" viewBox="0 0 780.7 142.6" style="enable-background:new 0 0 780.7 142.6;"
	 xml:space="preserve">
<style type="text/css">
	.st0{fill:#FFFFFF;}
</style>
<g>
	<path class="st0" d="M105.2,76.7H91.6c-7,0-9.9-2.7-9.9-9.3V42H68.8l5.1,2.1c2,0.8,2.3,1.2,2.3,1.9c0,0.8-0.6,1-2,1.3
		c-0.9,0.4-1,0.8-1.2,2c-0.8,6.4-2.6,10.1-3.3,11.7c-5.9,12.8-15.4,16.2-20.9,18.2l-8.1-7.6c10-3,22.3-7.4,22.3-29.5H40.6v-9h32.1
		V22.8H56.5c-1.8,2.9-2.8,4.4-4.8,7L41.6,25c3-3,8-8,12.5-21.5l10.1,3.4c0.4,0.2,1.4,0.5,1.4,1.2c0,0.4-0.3,0.8-1.2,1
		c-1.1,0.4-1.2,0.6-1.5,1.2c-0.5,1.2-1.2,2.8-1.6,3.6h11.4V1.7l10.9,1.3c1.1,0.1,1.7,0.5,1.7,1.2c0,0.2-0.1,0.4-0.8,1
		c-0.9,0.6-1,1.1-1,1.5v7H109v9H83.5v10.2h31.8v9h-23v21.3c0,3.6,1.1,4.7,4.1,4.7h7.4c1.8,0,2.9-1,3.7-3c0.3-0.8,1.1-3.3,1.4-7
		l9.3,4.2C116.2,73.8,112.4,76.7,105.2,76.7z"/>
	<path class="st0" d="M204.3,76.9c-8.8,0-23,0.2-31.8,0.2c-9.9,0-14.3-0.5-18.1-1.3c-6.6-1.3-8.4-4.4-9.8-6.7
		c-2.8,2.8-7.4,6.5-8.4,7.1c-1.2,0.9-1.4,0.9-1.5,2c-0.1,0.9-0.4,1.6-0.9,1.6c-0.2,0-0.6,0-1.2-1.1l-4.6-9.4
		c2.8-1.1,6.4-2.5,11.3-5.6V42h-10.1v-8.6h20.1v26.5c0,6.9,4.5,8.7,17,8.7c13.5,0,27.5,0,40.7-1.2L204.3,76.9z M141.8,21
		c-2.6-3.1-6.5-7.3-12-10.7l6.2-7.6c5.2,3.6,8.7,6.6,12.1,11L141.8,21z M167.3,61v3.5h-10V26.8c-1.2,1.5-2.4,3.1-3.8,4.4l-7.8-5.3
		c8.5-7.7,12.7-15.1,16.1-24.3l8,3.6c0.6,0.3,1.9,0.9,1.9,1.4c0,0.4-0.8,0.5-1,0.6c-0.8,0.1-1,0.3-1.2,0.5c-1,2-2.4,4.4-3.9,6.9
		h11.7c1.2-2.8,3.6-9.4,4.7-13.2l9.1,1.3c0.6,0.1,2,0.3,2,0.8c0,0.4-0.6,0.6-0.9,0.8c-0.4,0.1-1,0.4-1.3,0.8
		c-1.4,3.3-3.7,7.7-4.6,9.4h17v7.6h-15.5v5.5h13.1v7h-13.1v5.5H201v7.2h-13.3v6.2h16.5V61H167.3z M177.7,22.1h-10.4v5.5h10.4V22.1z
		 M177.7,34.7h-10.4v5.5h10.4V34.7z M177.7,47.4h-10.4v6.2h10.4V47.4z"/>
	<path class="st0" d="M245.6,43c-3.1,1.2-3.9,1.5-6.1,2.2v27.9c0,4.8-7.4,5.3-14.8,5.3l-4.4-10.7c1.2,0.1,3.8,0.4,5.4,0.4
		c3,0,3.4-1,3.4-2.4V49.2c-3.8,1.7-5.5,2.4-7.7,3.2c-0.9,0.4-1.2,0.5-1.9,1.3c-0.9,1.2-0.9,1.2-1.3,1.2c-0.6,0-1.1,0-1.6-3.8
		l-1.2-9.4c4.2-0.8,7.4-1.7,13.7-3.5V23.6h-11.7v-9.9h11.7V1.5l9,0.4c3.1,0.1,3.1,0.7,3.1,1.2c0,0.7-0.4,1.1-0.8,1.5
		c-0.6,0.5-1,0.9-1,1.5v7.7h6.6v9.9h-6.6v11.5c2.9-0.8,3.3-1,7.1-2L245.6,43z M289.7,79.4c-7-2.4-12.5-4.9-20.6-11.2
		c-7.4,5.5-13.3,8.3-22.8,11.2l-6.1-9.3c10.1-1.6,16-5.1,21.6-8.9c-3.1-3.6-6.3-7.5-10-14.4l7.2-4.5h-8.8v-9.6h14v-9.2h-15.7v-9.9
		h15.7V1.2l9.1,0.4c1.3,0.1,3.6,0.2,3.6,1.2c0,0.7-0.5,1.2-1.1,1.6c-0.7,0.7-1,1-1,1.4v7.8h19.4v9.9h-19.4v9.2h11.6l4.3,2.8
		c-4.9,14.9-10.1,21.2-14.3,26c7.4,4.9,12.8,6.9,20.6,8.4L289.7,79.4z M260.9,42.3c2.2,5.4,4.4,8.6,8,12.6c5-5.6,6.6-9,8-12.6H260.9
		z"/>
	<path class="st0" d="M378.9,33.2v34.9c0,7.9-2.3,10.5-10.2,10.5h-5.5l-3.1-9.5c1.4,0,6.6,0.1,7.4,0c1-0.1,1.7-0.4,1.7-2.7V33.2
		h-10.5v-5.7h-9.5v51.2h-9.4V27.5h-11.1v-1.7c-0.6,1-1.3,2.3-3.8,6c0.5,0.3,1.7,0.8,1.7,1.8c0,0.4-0.3,0.7-0.6,1
		c-1.2,1.1-1.3,1.2-1.3,2v24.1c2.7-8.8,3.6-15.6,4-26.4l9,1.2c0.9,0.1,1.7,0.7,1.7,1.3c0,0.8-1.2,1.2-1.7,1.5
		c-0.4,9.4-2,20.6-4.1,26l-8.9-2v16.5h-9.9V44.9c-1.3,1.5-1.5,1.7-2.9,3.2l-8.1-6.1c7.3-6.7,13.3-14.8,17.7-23.7l7.3,3.6V18h11.1
		V1.4l9.3,0.4c0.9,0,2,0.4,2,1.2c0,0.2-0.1,0.6-0.6,1c-0.8,0.6-1.2,1-1.2,1.7V18h9.9v6.2h24.5v9H378.9z M328,9.6
		c-1,0.1-1.2,0.1-1.9,0.7c-5.2,5.2-9.3,8.5-14.1,11.8l-7.2-7c5.9-3.8,11.5-8.1,16.1-13.3l6.7,5.1c1.2,0.9,1.5,1.3,1.5,1.8
		C329,9.4,328.4,9.5,328,9.6z M352.7,16.5c-1.2-5.9-2.3-8.2-2.9-9.5l6.6-2c1.7,3.4,2.7,6.1,3.6,9.6L352.7,16.5z M353.8,62.6
		c-0.1-6.1-0.4-14.8-2.2-27.4l8.5-1c1.5,8.9,2.1,16.7,2.3,26.4L353.8,62.6z M361.2,13.8V5h21.5v8.8H361.2z"/>
	<path class="st0" d="M418.6,12.8c-1.2,7.6-2.4,12-4.4,17.9h15.7v36.7h-16.5v9.3h-8.9V50c-2,2.8-3.4,4.2-5.3,6.1l-8.3-6.1
		c11.1-10.9,16-21.1,18-37.3h-12.2v-9h35.1v9H418.6z M421.6,39.5h-8.2v19.2h8.2V39.5z M464.8,40.2v37.9h-9.5V40.2h-7.1
		c-0.4,7.5-0.9,15.2-4.1,23.8c-3,8.1-6.9,11.7-10.4,15.1l-8.5-5.8c3.9-3.2,6.9-5.5,9.4-10.6c3.8-7.4,4.3-15.4,4.6-22.5h-7.1v-8.8
		h7.1V12.7h-4.4V4h36.3v8.6h-6.3v18.7h7.3v8.8H464.8z M455.3,12.7h-6.4v18.7h6.4V12.7z"/>
	<path class="st0" d="M551,77.9h-11.7c-4.4,0-8.4-1.7-8.4-6.6c0-1.7,2-18.6,2.2-20.9l-10.4,0.3c-3.6,13-14.9,23.8-32.6,27.9
		l-7.8-9.9c17.8-2,27.4-10.1,29.6-17.7l-23,0.6V42l24.7-0.6c0.1-1.5,0.3-4.3,0.2-9.2l10.1,0.4v-2.8V15.8h-12.6l7.3,3.3
		c0.7,0.4,1.1,0.6,1.1,1.1c0,0.3-0.2,0.7-0.4,0.9c-0.3,0.2-2,0.7-2.2,1c-5.4,9.5-11,13.8-21.3,17.4l-6.4-8.1c3.8-0.9,8.7-2,13.5-6.6
		c3.8-3.6,4.7-6.5,5.5-8.9H496v10.1h-9.7V6.7h30.8V1.6l11.9,0.7c0.2,0,1.7,0.1,1.7,1.1c0,0.3-0.1,0.4-0.3,0.6s-1.6,1.1-1.6,1.3v1.4
		h30.9v18.5h-6.2c-2.5,9.9-5,11.5-10.9,11.5h-14.1c-1.1,0-2.2-0.2-3.3-0.9c-0.2,2.3-0.3,3.6-0.5,5.3l20.2-0.6
		C543,53,542,64.1,542,64.6c0,2.9,2.1,3.1,2.6,3.1h4.2c2.9,0,3.3-2.5,4.2-8.3l9.5,3.8C560.7,73,558.9,77.9,551,77.9z M550,15.8h-16
		v9.8c0,1.3,0.8,2.2,2.4,2.2h4.2c2.1,0,2.8-2,3.9-5.8l5.5,1.8V15.8z"/>
	<path class="st0" d="M643.8,67.8c-4.5-3.2-8.2-6.1-13.7-12.1v8.6h-13v14.3h-10.4V64.4h-12.3v-8.9h12.3V35.3
		c-5.3,11.6-16.1,25.6-25.3,33.9l-8.5-6c11.8-9,23.1-25.2,27.7-37.2h-26.9v-9.6h32.9V1.6l8.7,0.4c1.2,0.1,3.3,0.4,3.3,1.4
		c0,0.4-0.3,0.6-0.8,1c-0.5,0.4-0.8,0.7-0.8,1.1v10.9h32.6V26h-27.9c5.8,14.3,16.7,25.7,29.4,34.7L643.8,67.8z M617.1,36.3v19.2H630
		C622.1,46.6,619.2,40.4,617.1,36.3z"/>
	<path class="st0" d="M662.7,40.3V32h9.8c-1.5-4.7-3.4-8.5-5.1-11.4l6.2-2.7h-8.4v-7.8h14.3V1.5l11.8,0.6c1,0.1,1.4,0.3,1.4,1
		c0,0.4-0.2,0.6-0.6,0.9c-1.2,0.9-1.3,1-1.3,1.3v4.8h12.5v7.8h-9.5l7,4.1c0.7,0.4,1,0.8,1,1.2c0,0.5-0.4,0.8-0.9,1
		c-1.2,0.4-1.4,0.4-1.8,1.3c-1.3,4-2.2,5.6-2.8,6.5h8.1v8.3H662.7z M690.8,77.2V75h-14.9v2.8H667V45.2h33.5v32H690.8z M675.9,17.9
		c2.6,4.8,4,8.4,5.2,12l-4.9,2h10.8c2.5-4.9,4.4-9.4,5.4-14.1H675.9z M690.8,54.1h-14.9v11.7h14.9V54.1z M722.7,70.5l-6.1-9.1V78
		h-9.2V5.4h29.3l3.4,4.9c-6.9,14.2-7.7,15.8-11,22.6c3.8,3.5,11.1,10.1,11.1,20.6C740.1,60.6,736.1,70.1,722.7,70.5z M719.6,33.4
		c1.6-3.9,4.8-12.3,7.1-19.8h-10.1v46.4c1.5,0.2,4,0.3,4.8,0.3c6.1,0,9.3-4.1,9.3-7.8C730.6,45.1,722.4,36.3,719.6,33.4z"/>
</g>
<g>
	<path class="st0" d="M45.6,126.8l-1.9,5.9h-6l10.9-29.9h5.3l10.9,29.9h-6l-1.9-5.9H45.6z M51.3,109.3l-4.4,13.1h8.7L51.3,109.3z"/>
	<path class="st0" d="M80.4,131.2l-0.3,0.3c-1.4,1.3-2.9,1.7-5.5,1.7c-5.7,0-8.1-2.9-8.1-9.6v-3.1c0-6.7,2.4-9.6,8-9.6
		c1.5,0,2.6,0.2,3.8,0.8c0.3,0.1,0.3,0.1,0.8,0.5c0.2,0.1,0.2,0.1,0.4,0.2v-9.4h5.2v29.9h-4L80.4,131.2z M71.6,123.1
		c0,4,1.2,5.8,3.9,5.8s3.9-1.6,3.9-4.9v-4.2c0-3.4-1.3-4.9-3.9-4.9s-3.9,1.8-3.9,5.9V123.1z"/>
	<path class="st0" d="M88.1,111.2h5.3l4.6,15.2l4.7-15.2h5.3l-7.4,21.5h-5L88.1,111.2z"/>
	<path class="st0" d="M122.2,118.7c0-2.7-1.1-3.9-3.6-3.9c-1.8,0-3.2,0.7-4.4,2.1l-3.6-2.6c1.9-2.5,4.7-3.7,8.5-3.7s6.4,1.3,7.5,3.6
		c0.6,1.2,0.8,2.6,0.8,5.3v13h-4.1l-0.3-1.3c-1.4,1.3-2.9,1.7-5.9,1.7c-5.3,0-7.3-1.8-7.3-6.7c0-5.2,2-6.8,8.1-6.8h4.4V118.7z
		 M118.4,123.2c-2.7,0-3.7,0.9-3.7,3.1c0,2.2,0.9,2.9,3.7,2.9c1.7,0,2.7-0.4,3.3-1.2c0.4-0.5,0.5-1,0.5-2.5v-2.3H118.4z"/>
	<path class="st0" d="M132.6,111.2h3.9l0.5,1.9c1.4-1.7,3-2.3,5.7-2.3c3.7,0,6.1,1.4,7.1,4.2c0.5,1.2,0.6,2.9,0.6,5.5v12.3h-5.2
		v-11.7c0-4.2-1-5.8-3.6-5.8c-2.8,0-3.9,1.7-3.9,6.4v11.1h-5.2V111.2z"/>
	<path class="st0" d="M172.1,129c-1.7,2.8-4.4,4.1-8.2,4.1c-6.1,0-8.9-3.4-8.9-10.4v-1.3c0-3.6,0.5-5.9,1.8-7.6c1.5-2,3.9-3,6.9-3
		c3.8,0,6.4,1.3,8,4.2l-3.9,2.2c-1-1.6-2-2.2-3.6-2.2c-2.7,0-4,1.9-4,6v2.3c0,3.8,1.4,5.7,4.1,5.7c1.8,0,2.9-0.6,3.9-2.1L172.1,129z
		"/>
	<path class="st0" d="M179.8,123.9c0,3.4,1.6,5.2,4.7,5.2c2.1,0,3.3-0.6,4.4-2.2l3.8,2.2c-1.8,2.9-4.3,4.1-8.8,4.1
		c-6.5,0-9.3-3.1-9.3-10.3v-1.5c0-7.5,2.7-10.6,9.2-10.6c6.5,0,9.2,3.1,9.2,10.6v1.9h-13.2V123.9z M188.1,119.6v-0.5
		c0-2.9-1.5-4.5-4.2-4.5c-2.6,0-4.2,1.6-4.2,4.5v0.5H188.1z"/>
	<path class="st0" d="M210.6,131.2l-0.3,0.3c-1.4,1.3-2.9,1.7-5.5,1.7c-5.7,0-8.1-2.9-8.1-9.6v-3.1c0-6.7,2.4-9.6,8-9.6
		c1.5,0,2.6,0.2,3.8,0.8c0.3,0.1,0.3,0.1,0.8,0.5c0.2,0.1,0.2,0.1,0.4,0.2v-9.4h5.2v29.9h-4L210.6,131.2z M201.9,123.1
		c0,4,1.2,5.8,3.9,5.8s3.9-1.6,3.9-4.9v-4.2c0-3.4-1.3-4.9-3.9-4.9s-3.9,1.8-3.9,5.9V123.1z"/>
	<path class="st0" d="M233.7,107.2h-8.2v-4.5h21.8v4.5h-8.1v25.5h-5.5V107.2z"/>
	<path class="st0" d="M252.2,123.9c0,3.4,1.6,5.2,4.7,5.2c2.1,0,3.3-0.6,4.4-2.2l3.8,2.2c-1.8,2.9-4.3,4.1-8.8,4.1
		c-6.5,0-9.3-3.1-9.3-10.3v-1.5c0-7.5,2.7-10.6,9.2-10.6c6.5,0,9.2,3.1,9.2,10.6v1.9h-13.2V123.9z M260.5,119.6v-0.5
		c0-2.9-1.5-4.5-4.2-4.5c-2.6,0-4.2,1.6-4.2,4.5v0.5H260.5z"/>
	<path class="st0" d="M286.2,129c-1.7,2.8-4.4,4.1-8.2,4.1c-6.1,0-8.9-3.4-8.9-10.4v-1.3c0-3.6,0.5-5.9,1.8-7.6c1.5-2,3.9-3,6.9-3
		c3.8,0,6.4,1.3,8,4.2l-3.9,2.2c-1-1.6-2-2.2-3.6-2.2c-2.7,0-4,1.9-4,6v2.3c0,3.8,1.4,5.7,4.1,5.7c1.8,0,2.9-0.6,3.9-2.1L286.2,129z
		"/>
	<path class="st0" d="M289.6,102.7h5.2v9.5c1.8-1.3,2.8-1.6,5-1.6c3.6,0,6,1.4,7,4.2c0.5,1.2,0.6,2.9,0.6,5.5v12.3h-5.2v-12
		c0-3.9-1.1-5.6-3.6-5.6c-2.7,0-3.9,1.8-3.9,6.1v11.4h-5.2V102.7z"/>
	<path class="st0" d="M312.6,111.2h3.9l0.5,1.9c1.4-1.7,3-2.3,5.7-2.3c3.7,0,6.1,1.4,7.1,4.2c0.5,1.2,0.6,2.9,0.6,5.5v12.3h-5.2
		v-11.7c0-4.2-1-5.8-3.6-5.8c-2.8,0-3.9,1.7-3.9,6.4v11.1h-5.2V111.2z"/>
	<path class="st0" d="M335,120.3c0-6.8,2.8-9.6,9.3-9.6c6.5,0,9.3,2.9,9.3,9.6v3.2c0,6.8-2.8,9.6-9.3,9.6c-6.5,0-9.3-2.9-9.3-9.6
		V120.3z M348.4,120.6c0-4.1-1.2-5.8-4.1-5.8c-2.9,0-4.1,1.7-4.1,5.8v2.5c0,4.1,1.2,5.8,4.1,5.8c2.9,0,4.1-1.7,4.1-5.8V120.6z"/>
	<path class="st0" d="M363.4,102.7v21.5c0,3.3,0.8,4.3,3.7,4.2h0.8v4.2h-1c-7,0-8.7-1.7-8.7-9v-21H363.4z"/>
	<path class="st0" d="M369.6,120.3c0-6.8,2.8-9.6,9.3-9.6c6.5,0,9.3,2.9,9.3,9.6v3.2c0,6.8-2.8,9.6-9.3,9.6c-6.5,0-9.3-2.9-9.3-9.6
		V120.3z M383,120.6c0-4.1-1.2-5.8-4.1-5.8c-2.9,0-4.1,1.7-4.1,5.8v2.5c0,4.1,1.2,5.8,4.1,5.8c2.9,0,4.1-1.7,4.1-5.8V120.6z"/>
	<path class="st0" d="M405.3,131.7c-1.4,1-2.9,1.5-5.1,1.5c-5.5,0-7.9-2.9-7.9-9.6v-3.1c0-6.8,2.4-9.6,8.1-9.6
		c2.6,0,4.2,0.5,5.6,1.9l0.5-1.4h4v21c0,7-3.1,10.4-9.6,10.4c-4,0-6.5-1.3-8.1-4.1l3.9-2.2c1,1.7,2.1,2.3,4.1,2.3
		c3.1,0,4.5-1.7,4.6-5.8L405.3,131.7z M397.4,123.1c0,4,1.2,5.8,3.9,5.8s3.9-1.6,3.9-4.9v-4.2c0-3.4-1.3-4.9-3.9-4.9
		s-3.9,1.8-3.9,5.9V123.1z"/>
	<path class="st0" d="M413.8,111.2h5.3l4.8,15.5l4.5-15.5h5.3l-7.8,23.4c-2.4,6.8-3.6,7.7-10.6,7.8v-4.2c3.4,0,4-0.4,5.2-3.9
		l0.6-1.8L413.8,111.2z"/>
	<path class="st0" d="M450.3,132.7h-5.5v-29.9h11c3.9,0,6,0.6,7.5,2.2c1.5,1.5,2.1,3.5,2.1,6.5c0,5-1.7,7.5-5.7,8.6l6.5,12.7h-6.1
		l-5.8-12.2h-4.2V132.7z M455.5,116.2c3.3,0,4.6-1.3,4.6-4.5c0-3.2-1.4-4.5-4.8-4.5h-5.1v9H455.5z"/>
	<path class="st0" d="M474.6,123.9c0,3.4,1.6,5.2,4.7,5.2c2.1,0,3.3-0.6,4.4-2.2l3.8,2.2c-1.8,2.9-4.3,4.1-8.8,4.1
		c-6.5,0-9.3-3.1-9.3-10.3v-1.5c0-7.5,2.7-10.6,9.2-10.6c6.5,0,9.2,3.1,9.2,10.6v1.9h-13.2V123.9z M482.9,119.6v-0.5
		c0-2.9-1.5-4.5-4.2-4.5c-2.6,0-4.2,1.6-4.2,4.5v0.5H482.9z"/>
	<path class="st0" d="M494.5,126.8c1.3,1.8,2.3,2.2,4.9,2.2c2.9,0,4.3-0.9,4.3-2.7c0-0.9-0.4-1.6-1.2-1.9c-0.7-0.3-0.7-0.3-3.4-0.6
		c-5.3-0.7-7.2-2.3-7.2-6.2c0-4.4,2.8-6.8,7.8-6.8c4,0,6.7,1.3,8.4,4.1l-3.9,2.2c-1.1-1.7-2.2-2.2-4.2-2.2c-2.1,0-3.2,0.9-3.2,2.5
		c0,1.6,0.8,2.1,3.7,2.4c3.4,0.4,4.9,0.8,6.1,1.6c1.3,0.9,2,2.7,2,5.1c0,4.6-2.9,6.8-9,6.8c-4.5,0-7.4-1.3-8.9-4.1L494.5,126.8z"/>
	<path class="st0" d="M517.1,123.9c0,3.4,1.6,5.2,4.7,5.2c2.1,0,3.3-0.6,4.4-2.2l3.8,2.2c-1.8,2.9-4.3,4.1-8.8,4.1
		c-6.5,0-9.3-3.1-9.3-10.3v-1.5c0-7.5,2.7-10.6,9.2-10.6c6.5,0,9.2,3.1,9.2,10.6v1.9h-13.2V123.9z M525.4,119.6v-0.5
		c0-2.9-1.5-4.5-4.2-4.5c-2.6,0-4.2,1.6-4.2,4.5v0.5H525.4z"/>
	<path class="st0" d="M545.9,118.7c0-2.7-1.1-3.9-3.6-3.9c-1.8,0-3.2,0.7-4.4,2.1l-3.6-2.6c1.9-2.5,4.7-3.7,8.5-3.7s6.4,1.3,7.5,3.6
		c0.6,1.2,0.8,2.6,0.8,5.3v13h-4.1l-0.3-1.3c-1.4,1.3-2.9,1.7-5.9,1.7c-5.3,0-7.3-1.8-7.3-6.7c0-5.2,2-6.8,8.1-6.8h4.4V118.7z
		 M542.2,123.2c-2.7,0-3.7,0.9-3.7,3.1c0,2.2,0.9,2.9,3.7,2.9c1.7,0,2.7-0.4,3.3-1.2c0.4-0.5,0.5-1,0.5-2.5v-2.3H542.2z"/>
	<path class="st0" d="M556.4,111.2h4l0.6,1.6c1.3-1.5,2.6-2,4.4-2c1.6,0,2.9,0.4,4.6,1.3l-2.3,4.3c-1.1-0.8-1.9-1.1-2.9-1.1
		c-2.4,0-3.4,2.1-3.4,7.1v10.4h-5.2V111.2z"/>
	<path class="st0" d="M588.6,129c-1.7,2.8-4.4,4.1-8.2,4.1c-6.1,0-8.9-3.4-8.9-10.4v-1.3c0-3.6,0.5-5.9,1.8-7.6c1.5-2,3.9-3,6.9-3
		c3.8,0,6.4,1.3,8,4.2l-3.9,2.2c-1-1.6-2-2.2-3.6-2.2c-2.7,0-4,1.9-4,6v2.3c0,3.8,1.4,5.7,4.1,5.7c1.8,0,2.9-0.6,3.9-2.1L588.6,129z
		"/>
	<path class="st0" d="M591.9,102.7h5.2v9.5c1.8-1.3,2.8-1.6,5-1.6c3.6,0,6,1.4,7,4.2c0.5,1.2,0.6,2.9,0.6,5.5v12.3h-5.2v-12
		c0-3.9-1.1-5.6-3.6-5.6c-2.7,0-3.9,1.8-3.9,6.1v11.4h-5.2V102.7z"/>
	<path class="st0" d="M643.5,124.9c-0.3,5.5-3.8,8.3-10.5,8.3c-4.2,0-6.9-1.2-8.7-3.7c-1.4-1.9-1.9-4.3-1.9-8.5v-6.4
		c0-4.7,0.6-7.1,2.3-9.1c1.9-2.2,4.4-3.1,8.3-3.1c6.5,0,9.8,2.8,10.1,8.5l-5,0.4c-0.4-3-2-4.4-4.9-4.4c-3.9,0-5.2,2.1-5.2,8.1v5.6
		c0,6,1.3,8.1,5.3,8.1c3.1,0,4.8-1.4,5.2-4.4L643.5,124.9z"/>
	<path class="st0" d="M652.8,123.9c0,3.4,1.6,5.2,4.7,5.2c2.1,0,3.3-0.6,4.4-2.2l3.8,2.2c-1.8,2.9-4.3,4.1-8.8,4.1
		c-6.5,0-9.3-3.1-9.3-10.3v-1.5c0-7.5,2.7-10.6,9.2-10.6c6.5,0,9.2,3.1,9.2,10.6v1.9h-13.2V123.9z M661.1,119.6v-0.5
		c0-2.9-1.5-4.5-4.2-4.5c-2.6,0-4.2,1.6-4.2,4.5v0.5H661.1z"/>
	<path class="st0" d="M670.4,111.2h3.9l0.5,1.9c1.4-1.7,3-2.3,5.7-2.3c3.7,0,6.1,1.4,7.1,4.2c0.5,1.2,0.6,2.9,0.6,5.5v12.3H683
		v-11.7c0-4.2-1-5.8-3.6-5.8c-2.8,0-3.9,1.7-3.9,6.4v11.1h-5.2V111.2z"/>
	<path class="st0" d="M691.6,115.3v-4.1h2.4l0.3-6.3h4.9v6.3h4.3v4.1h-4.3v8.9c0,3.3,0.8,4.3,3.7,4.2h0.6v4.2h-0.8
		c-7.2,0-8.7-1.6-8.7-9v-8.4H691.6z"/>
	<path class="st0" d="M711.8,123.9c0,3.4,1.6,5.2,4.7,5.2c2.1,0,3.3-0.6,4.4-2.2l3.8,2.2c-1.8,2.9-4.3,4.1-8.8,4.1
		c-6.5,0-9.3-3.1-9.3-10.3v-1.5c0-7.5,2.7-10.6,9.2-10.6c6.5,0,9.2,3.1,9.2,10.6v1.9h-13.2V123.9z M720.1,119.6v-0.5
		c0-2.9-1.5-4.5-4.2-4.5c-2.6,0-4.2,1.6-4.2,4.5v0.5H720.1z"/>
	<path class="st0" d="M729.3,111.2h4l0.6,1.6c1.3-1.5,2.6-2,4.4-2c1.6,0,2.9,0.4,4.6,1.3l-2.3,4.3c-1.1-0.8-1.9-1.1-2.9-1.1
		c-2.4,0-3.4,2.1-3.4,7.1v10.4h-5.2V111.2z"/>
</g>
</svg>
