<?xml version="1.0" encoding="utf-8"?>
<!-- Generator: Adobe Illustrator 19.2.1, SVG Export Plug-In . SVG Version: 6.00 Build 0)  -->
<svg version="1.1" id="レイヤー_1" xmlns="http://www.w3.org/2000/svg" xmlns:xlink="http://www.w3.org/1999/xlink" x="0px"
	 y="0px" viewBox="0 0 185.6 244.5" style="enable-background:new 0 0 185.6 244.5;" xml:space="preserve">
<style type="text/css">
	.st0{fill:none;stroke:#FFFFFF;stroke-width:5.1273;stroke-miterlimit:10;}
	.st1{fill:#FFFFFF;}
	.st2{fill:none;stroke:#FFFFFF;stroke-width:2.1882;stroke-miterlimit:10;}
	.st3{fill:none;stroke:#FFFFFF;stroke-width:2.5519;stroke-linejoin:bevel;stroke-miterlimit:10;}
</style>
<g>
	<circle class="st0" cx="90.7" cy="90.7" r="88.1"/>
	<path class="st1" d="M93.9,67.9L9,152.8l84.9,84.9l84.9-84.9L93.9,67.9z M93.9,174.3c-11.9,0-21.5-9.6-21.5-21.5
		s9.6-21.5,21.5-21.5s21.5,9.6,21.5,21.5C115.5,164.7,105.8,174.3,93.9,174.3z"/>
	<path class="st1" d="M93.9,61c-1.8,0-3.6,0.7-4.9,2l0,0c0,0-0.7,0.7-1.9,1.9l0,0c-1.2,1.2-3,3-5.1,5.1l0,0
		c-2.1,2.1-4.5,4.5-7.2,7.2l0,0c-2.6,2.6-5.4,5.4-8.2,8.2l0,0c-2.8,2.8-5.6,5.6-8.2,8.2l0,0c-2.6,2.6-5.1,5.1-7.2,7.2l0,0
		c-2.1,2.1-3.8,3.8-5.1,5.1l0,0c-1.2,1.2-1.9,1.9-1.9,1.9l0,0l2.9,2.9L91.8,66c0.5-0.5,1.2-0.8,1.9-0.8V61H93.9L93.9,61z M5.5,146.6
		L5.5,146.6L5.5,146.6c-0.1,0.1-0.1,0.1-0.2,0.2l0,0c-0.1,0.1-0.1,0.1-0.2,0.2l0,0c-0.1,0.1-0.2,0.2-0.2,0.2l0,0
		c-0.1,0.1-0.2,0.2-0.2,0.2l0,0c-0.1,0.1-0.1,0.1-0.2,0.2l0,0c-0.1,0.1-0.1,0.1-0.1,0.1l0,0l-0.1,0.1l0,0c-1.3,1.3-2,3-2,4.9
		s0.7,3.6,2,4.9l39.6,39.6l2.9-2.9L7.1,154.7c-0.5-0.5-0.8-1.2-0.8-1.9s0.3-1.4,0.8-1.9l1.3-1.3L5.5,146.6L5.5,146.6z M130.3,205.1
		l-34.5,34.5c-0.5,0.5-1.2,0.8-1.9,0.8s-1.4-0.3-1.9-0.8l-6.4-6.4l-2.9,2.9l6.4,6.4c1.3,1.3,3.1,2,4.9,2c1.8,0,3.5-0.7,4.9-2
		c0,0,0.5-0.5,1.5-1.5l0,0c0.1-0.1,0.2-0.2,0.4-0.4l0,0c0.4-0.4,0.8-0.8,1.3-1.3l0,0c0.1-0.1,0.2-0.2,0.2-0.2l0,0
		c0.1-0.1,0.2-0.2,0.3-0.3l0,0l0.1-0.1l0,0l0.1-0.1l0,0l0.1-0.1l0,0c0,0,0,0,0.1-0.1l0,0l0,0l0,0l0,0l0,0l0,0l0,0l0,0l0,0l0,0l0,0
		l0,0l0,0l0,0l0,0l0,0l0,0l0,0l0,0l0,0l0,0l0,0l0,0l0,0l0,0l0.1-0.1l0,0l0.1-0.1l0,0l0,0l0,0l0,0l0,0l0,0l0,0l0,0l0,0
		c0,0,0,0,0.1-0.1l0,0l0.1-0.1l0,0l0,0l0,0l0,0l0,0l0,0l0.1-0.1l0,0l0,0l0,0l0,0l0,0l0.1-0.1l0,0l0,0l0,0l0.1-0.1l0,0l0,0l0,0l0,0
		l0,0l0,0l0,0l0,0l0,0l0.1-0.1l0,0l0,0l0,0l0,0l0,0l0,0l0,0l0,0c0,0,0,0,0.1-0.1l0,0l0,0l0,0l0,0l0,0l0,0l0,0l0.1-0.1l0,0
		c0,0,0,0,0.1-0.1l0,0c0,0,0,0,0.1-0.1l0,0l0,0l0,0l0,0l0,0l0,0l0,0l0,0l0,0l0,0l0,0l0,0l0,0l0,0l0,0l0,0l0.2-0.2l0,0l0,0l0,0l0,0
		l0,0l0,0l0,0l0,0l0,0l0,0l0,0l0,0l0,0l0,0l0,0l0,0l0,0l0,0l0,0l0,0l0,0l0,0l0,0l0,0l0,0l0,0l0,0l0,0l0,0l0,0l0,0l0,0l0,0l0,0l0,0
		l0,0l0,0l0.1-0.1l0,0l0,0l0,0l0,0l0,0l0,0l0,0l0,0l0,0l0,0c0,0,0,0,0.1-0.1l0,0l0,0l0,0l0,0l0.1-0.1l0,0l0,0l0,0l0,0l0,0l0,0l0,0
		l0,0l0,0l0.4-0.4l0,0l0,0l0,0l0,0l0,0l0.2-0.2l0,0l0.5-0.5l0,0l0,0l0,0l25.5-25.5L130.3,205.1L130.3,205.1z M154.3,118.6l-2.9,2.9
		l29.3,29.3c0.5,0.5,0.8,1.2,0.8,1.9s-0.3,1.4-0.8,1.9l-11.6,11.6l2.9,2.9l0,0c0,0,0.2-0.2,0.5-0.5l0,0c0.3-0.3,0.8-0.8,1.3-1.3l0,0
		c0.5-0.5,1.2-1.2,1.9-1.9l0,0c0.7-0.7,1.4-1.4,2.1-2.1l0,0c0.7-0.7,1.4-1.4,2.1-2.1l0,0c0.7-0.7,1.3-1.3,1.9-1.9l0,0
		c0.5-0.5,1-1,1.3-1.3l0,0c0.3-0.3,0.5-0.5,0.5-0.5c1.3-1.3,2-3,2-4.9s-0.7-3.6-2-4.9l0,0c0,0-0.1-0.1-0.3-0.3l0,0
		c-0.2-0.2-0.5-0.5-0.9-0.9l0,0c-0.4-0.4-0.9-0.9-1.4-1.4l0,0c-0.6-0.6-1.2-1.2-1.9-1.9l0,0c-0.7-0.7-1.4-1.4-2.2-2.2l0,0
		c-0.8-0.8-1.6-1.6-2.5-2.5l0,0c-0.9-0.9-1.7-1.7-2.7-2.7l0,0c-0.9-0.9-1.8-1.8-2.7-2.7l0,0c-0.9-0.9-1.8-1.8-2.7-2.7l0,0
		c-0.9-0.9-1.8-1.8-2.7-2.7l0,0c-0.9-0.9-1.7-1.7-2.5-2.5l0,0c-0.8-0.8-1.5-1.5-2.2-2.2l0,0c-0.7-0.7-1.3-1.3-1.9-1.9l0,0
		c-0.6-0.6-1-1-1.4-1.4l0,0c-0.4-0.4-0.7-0.7-0.9-0.9l0,0C154.4,118.7,154.3,118.6,154.3,118.6L154.3,118.6L154.3,118.6z M93.9,61
		v4.1c0.7,0,1.4,0.3,1.9,0.8l16.7,16.7l2.9-2.9l0,0c0,0-0.3-0.3-0.7-0.7l0,0c-0.5-0.5-1.1-1.1-1.9-1.9l0,0c-0.8-0.8-1.7-1.7-2.7-2.7
		l0,0c-1-1-2-2-3.1-3.1l0,0c-1-1-2.1-2.1-3.1-3.1l0,0c-1-1-1.9-1.9-2.7-2.7l0,0c-0.8-0.8-1.4-1.4-1.9-1.9l0,0
		c-0.5-0.5-0.7-0.7-0.7-0.7l0,0C97.5,61.8,95.8,61,93.9,61L93.9,61z"/>
	<circle class="st2" cx="93.9" cy="152.8" r="18.4"/>
	<path class="st3" d="M3,98c0,0,26.2,30.5,87.7,30.5S178.4,98,178.4,98"/>
</g>
</svg>
