<?xml version="1.0" encoding="utf-8"?>
<!-- Generator: Adobe Illustrator 19.2.1, SVG Export Plug-In . SVG Version: 6.00 Build 0)  -->
<svg version="1.1" id="レイヤー_1" xmlns="http://www.w3.org/2000/svg" xmlns:xlink="http://www.w3.org/1999/xlink" x="0px"
	 y="0px" viewBox="0 0 269 269" style="enable-background:new 0 0 269 269;" xml:space="preserve">
<style type="text/css">
	.st0{fill:#333333;}
	.st1{fill:none;stroke:#FFFFFF;stroke-width:5.1273;stroke-miterlimit:10;}
	.st2{fill:#FFFFFF;}
	.st3{fill:none;stroke:#FFFFFF;stroke-width:2.1882;stroke-miterlimit:10;}
	.st4{fill:none;stroke:#FFFFFF;stroke-width:2.5519;stroke-linejoin:bevel;stroke-miterlimit:10;}
</style>
<circle class="st0" cx="134.5" cy="134.5" r="134.5"/>
<g>
	<circle class="st1" cx="132.4" cy="107.8" r="88.1"/>
	<path class="st2" d="M135.6,85l-84.9,84.9l84.9,84.9l84.9-84.9L135.6,85z M135.6,191.4c-11.9,0-21.5-9.6-21.5-21.5
		s9.6-21.5,21.5-21.5s21.5,9.6,21.5,21.5C157.2,181.8,147.5,191.4,135.6,191.4z"/>
	<path class="st2" d="M135.6,78.1c-1.8,0-3.6,0.7-4.9,2l0,0c0,0-0.7,0.7-1.9,1.9l0,0c-1.2,1.2-3,3-5.1,5.1l0,0
		c-2.1,2.1-4.5,4.5-7.2,7.2l0,0c-2.6,2.6-5.4,5.4-8.2,8.2l0,0c-2.8,2.8-5.6,5.6-8.2,8.2l0,0c-2.6,2.6-5.1,5.1-7.2,7.2l0,0
		c-2.1,2.1-3.8,3.8-5.1,5.1l0,0c-1.2,1.2-1.9,1.9-1.9,1.9l0,0l2.9,2.9l44.7-44.7c0.5-0.5,1.2-0.8,1.9-0.8v-4.2H135.6L135.6,78.1z
		 M47.2,163.7L47.2,163.7L47.2,163.7c-0.1,0.1-0.1,0.1-0.2,0.2l0,0c-0.1,0.1-0.1,0.1-0.2,0.2l0,0c-0.1,0.1-0.2,0.2-0.2,0.2l0,0
		c-0.1,0.1-0.2,0.2-0.2,0.2l0,0c-0.1,0.1-0.1,0.1-0.2,0.2l0,0c-0.1,0.1-0.1,0.1-0.1,0.1l0,0l-0.1,0.1l0,0c-1.3,1.3-2,3-2,4.9
		s0.7,3.6,2,4.9l39.6,39.6l2.9-2.9l-39.7-39.6c-0.5-0.5-0.8-1.2-0.8-1.9s0.3-1.4,0.8-1.9l1.3-1.3L47.2,163.7L47.2,163.7z M172,222.2
		l-34.5,34.5c-0.5,0.5-1.2,0.8-1.9,0.8s-1.4-0.3-1.9-0.8l-6.4-6.4l-2.9,2.9l6.4,6.4c1.3,1.3,3.1,2,4.9,2c1.8,0,3.5-0.7,4.9-2
		c0,0,0.5-0.5,1.5-1.5l0,0c0.1-0.1,0.2-0.2,0.4-0.4l0,0c0.4-0.4,0.8-0.8,1.3-1.3l0,0c0.1-0.1,0.2-0.2,0.2-0.2l0,0
		c0.1-0.1,0.2-0.2,0.3-0.3l0,0l0.1-0.1l0,0l0.1-0.1l0,0l0.1-0.1l0,0c0,0,0,0,0.1-0.1l0,0l0,0l0,0l0,0l0,0l0,0l0,0l0,0l0,0l0,0l0,0
		l0,0l0,0l0,0l0,0l0,0l0,0l0,0l0,0l0,0l0,0l0,0l0,0l0,0l0,0l0.1-0.1l0,0l0.1-0.1l0,0l0,0l0,0l0,0l0,0l0,0l0,0l0,0l0,0
		c0,0,0,0,0.1-0.1l0,0l0.1-0.1l0,0l0,0l0,0l0,0l0,0l0,0l0.1-0.1l0,0l0,0l0,0l0,0l0,0l0.1-0.1l0,0l0,0l0,0l0.1-0.1l0,0l0,0l0,0l0,0
		l0,0l0,0l0,0l0,0l0,0l0.1-0.1l0,0l0,0l0,0l0,0l0,0l0,0l0,0l0,0c0,0,0,0,0.1-0.1l0,0l0,0l0,0l0,0l0,0l0,0l0,0l0.1-0.1l0,0
		c0,0,0,0,0.1-0.1l0,0c0,0,0,0,0.1-0.1l0,0l0,0l0,0l0,0l0,0l0,0l0,0l0,0l0,0l0,0l0,0l0,0l0,0l0,0l0,0l0,0l0.2-0.2l0,0l0,0l0,0l0,0
		l0,0l0,0l0,0l0,0l0,0l0,0l0,0l0,0l0,0l0,0l0,0l0,0l0,0l0,0l0,0l0,0l0,0l0,0l0,0l0,0l0,0l0,0l0,0l0,0l0,0l0,0l0,0l0,0l0,0l0,0l0,0
		l0,0l0,0l0.1-0.1l0,0l0,0l0,0l0,0l0,0l0,0l0,0l0,0l0,0l0,0c0,0,0,0,0.1-0.1l0,0l0,0l0,0l0,0l0.1-0.1l0,0l0,0l0,0l0,0l0,0l0,0l0,0
		l0,0l0,0l0.4-0.4l0,0l0,0l0,0l0,0l0,0l0.2-0.2l0,0l0.5-0.5l0,0l0,0l0,0l25.5-25.5L172,222.2L172,222.2z M196,135.7l-2.9,2.9
		l29.3,29.3c0.5,0.5,0.8,1.2,0.8,1.9s-0.3,1.4-0.8,1.9l-11.6,11.6l2.9,2.9l0,0c0,0,0.2-0.2,0.5-0.5l0,0c0.3-0.3,0.8-0.8,1.3-1.3l0,0
		c0.5-0.5,1.2-1.2,1.9-1.9l0,0c0.7-0.7,1.4-1.4,2.1-2.1l0,0c0.7-0.7,1.4-1.4,2.1-2.1l0,0c0.7-0.7,1.3-1.3,1.9-1.9l0,0
		c0.5-0.5,1-1,1.3-1.3l0,0c0.3-0.3,0.5-0.5,0.5-0.5c1.3-1.3,2-3,2-4.9s-0.7-3.6-2-4.9l0,0c0,0-0.1-0.1-0.3-0.3l0,0
		c-0.2-0.2-0.5-0.5-0.9-0.9l0,0c-0.4-0.4-0.9-0.9-1.4-1.4l0,0c-0.6-0.6-1.2-1.2-1.9-1.9l0,0c-0.7-0.7-1.4-1.4-2.2-2.2l0,0
		c-0.8-0.8-1.6-1.6-2.5-2.5l0,0c-0.9-0.9-1.7-1.7-2.7-2.7l0,0c-0.9-0.9-1.8-1.8-2.7-2.7l0,0c-0.9-0.9-1.8-1.8-2.7-2.7l0,0
		c-0.9-0.9-1.8-1.8-2.7-2.7l0,0c-0.9-0.9-1.7-1.7-2.5-2.5l0,0c-0.8-0.8-1.5-1.5-2.2-2.2l0,0c-0.7-0.7-1.3-1.3-1.9-1.9l0,0
		c-0.6-0.6-1-1-1.4-1.4l0,0c-0.4-0.4-0.7-0.7-0.9-0.9l0,0C196.1,135.8,196,135.7,196,135.7L196,135.7L196,135.7z M135.6,78.1v4.1
		c0.7,0,1.4,0.3,1.9,0.8l16.7,16.7l2.9-2.9l0,0c0,0-0.3-0.3-0.7-0.7l0,0c-0.5-0.5-1.1-1.1-1.9-1.9l0,0c-0.8-0.8-1.7-1.7-2.7-2.7l0,0
		c-1-1-2-2-3.1-3.1l0,0c-1-1-2.1-2.1-3.1-3.1l0,0c-1-1-1.9-1.9-2.7-2.7l0,0c-0.8-0.8-1.4-1.4-1.9-1.9l0,0c-0.5-0.5-0.7-0.7-0.7-0.7
		l0,0C139.2,78.9,137.5,78.1,135.6,78.1L135.6,78.1z"/>
	<circle class="st3" cx="135.6" cy="169.9" r="18.4"/>
	<path class="st4" d="M44.7,115.1c0,0,26.2,30.5,87.7,30.5s87.7-30.5,87.7-30.5"/>
</g>
</svg>
