<svg id="レイヤー_1" data-name="レイヤー 1" xmlns="http://www.w3.org/2000/svg" viewBox="0 0 780.7 142.7">
  <defs>
    <style>
      .cls-1 {
        fill: #fff;
      }

      .cls-2 {
        isolation: isolate;
      }
    </style>
  </defs>
  <title>nav_sat_mission_ja_en</title>
  <g>
    <path class="cls-1" d="M74,32.8V65.1c0,11.7-1.1,12.8-12.8,12.8l-3.3-10c1.1,0,2.2.6,5,.6,2.2,0,2.2-.6,2.2-3.3V32.8H57.3V25H23.9V22.8c-0.6,0-.6,0-0.6.6a30.555,30.555,0,0,1-3.9,7.2c0.6,0,2.2.6,2.2,1.7,0,0.6,0,.6-1.1,1.7a2.771,2.771,0,0,0-1.1,1.7V78H10.5V43.4c-1.1,1.1-1.7,2.2-2.8,3.3L0,41.2A60.621,60.621,0,0,0,16.1,16.7l7.8,3.9V17.8h5L30,13.3H25.5V6.7h7.2L35.1,0l7.8,1.1c0.6,0.6,1.7.6,1.7,1.1s0,0.6-.6.6c-1.7,1.1-1.7,1.7-1.7,1.7L41.7,6.7H55.1V17.3h3.3V24H80.7v8.3l-6.7.5h0ZM23.4,7.2c-1.7,0-1.7,0-2.2,1.1-3.3,3.9-5.6,6.1-11.7,10.6L2.3,12.2A42.685,42.685,0,0,0,15.6,0l8.3,4.5C23.9,5,25,5.6,25,6.7,25,7.2,24.5,7.2,23.4,7.2ZM46.7,67.3v9.5H37.2V67.3H21.1V60.6h2.8V48.4H37.3V45.1H26.2V27.8H55.7V45.1H46.8V49h10v6.7h-10v5.6H58.5V68l-11.8-.7h0ZM37.3,55.1H31.7v5.6h5.6V55.1Zm10-21.2H33.4v5H47.3v-5ZM46.2,13.4H39.5l-1.1,4.5h7.8V13.4Zm11.7-1.2V3.3H78.5v8.9H57.9Z"/>
    <path class="cls-1" d="M91.3,76.2V66.7h32.8V60.6H104.6V52.3h19.5v-5H107.4c-4.5,5.6-6.7,7.8-8.3,9.5l-10-5.6c7.2-5.6,10.6-10.6,15-17.3h-5V2.8h60.7v30H127l8.9,1.1c0.6,0,1.7,0,1.7,1.1s-1.1,1.1-2.2,1.7V39H161v8.3H135.4v4.5h18.9v8.3H135.4v6.7h31.7v9.5H91.3V76.2ZM149.1,10H109.6v4.5h39.5V10Zm0,11.1H109.6v4.5h39.5V21.1Zm-25,11.7H110.7L114,35a1.6,1.6,0,0,1,1.1,1.7c0,0.6,0,1.1-1.1,1.1a7.1,7.1,0,0,0-1.7,1.1h11.1l0.7-6.1h0Z"/>
    <path class="cls-1" d="M236.5,78.5c-13.4-8.9-27.3-15-44-20l2.8-10c20.6,5.6,33.9,12.2,44.5,18.9Zm-2.8-54.6c-11.1-7.2-23.9-11.1-36.7-13.4L198.1,0a124.147,124.147,0,0,1,37.8,13.4Zm-3.3,23.4c-10.6-6.7-23.9-11.1-30.6-12.8L202,25c10,2.2,23.9,7.8,31.2,12.2Z"/>
    <path class="cls-1" d="M283.8,43.4a70.613,70.613,0,0,0-6.7-14.5l8.3-3.3c2.8,5,5.6,9.5,6.7,14.5Zm46.7-15.6c-0.6.6-1.1,0.6-1.7,4.5-6.7,27.3-24.5,37.8-33.4,42.8L288.2,69c17.3-8.3,29.5-20.6,32.8-46.2l8.9,2.8c1.1,0.6,1.7,1.1,1.7,1.7A2.187,2.187,0,0,0,330.5,27.8Zm-30,11.7c-1.7-5.6-3.3-10-6.1-14.5l7.8-2.8c3.3,5,5,10.6,6.1,14.5Z"/>
    <path class="cls-1" d="M377.3,39.5A97.836,97.836,0,0,0,360,30.6l5-8.9a53.753,53.753,0,0,1,17.8,9.5ZM404,55.6a141.91,141.91,0,0,1-30.6,19.5c-0.6,0-.6.6-0.6,1.1-0.6,1.1-.6,1.7-1.1,1.7-1.1,0-1.7-1.7-2.2-2.2L365,67.4c22.3-9.5,38.4-21.1,53.4-42.8l7.2,8.3C421.8,37.3,415.7,45.6,404,55.6ZM386.8,18.9c-5-3.9-11.1-6.7-17.3-8.9l5-8.9A56.619,56.619,0,0,1,391.8,10Z"/>
    <path class="cls-1" d="M492.5,74V70.7H455.2V62.9h37.3V51.8H456.3V44h36.2V32.3H455.8V24.5h45.1V74h-8.4Z"/>
    <path class="cls-1" d="M553.1,25.6c-5-4.5-11.1-7.8-18.4-11.1l5.6-8.3c6.1,2.8,13.4,6.7,18.9,11.1Zm26.2,24.5c-13.9,11.7-22.8,15-33.4,20-0.6,1.1-.6,2.2-1.1,2.2-0.6,0-1.1-.6-2.2-1.7L536.5,60a76.114,76.114,0,0,0,32.8-15.6,110.753,110.753,0,0,0,26.2-27.3l6.1,8.9C598.2,31.2,591.5,40.1,579.3,50.1Z"/>
    <path class="cls-1" d="M686.1,66.8a81.988,81.988,0,0,1-13.9-12.2v8.9H659.4V78H648.8V63.4H636.6V54.5h12.2V33.9c-5.6,11.7-16.1,25.6-25.6,33.9l-8.3-6.1c11.7-8.9,23.4-25,27.8-37.3H616V15h32.8V0.6l8.9,0.6c1.1,0,3.3.6,3.3,1.7a1.008,1.008,0,0,1-.6,1.1,0.786,0.786,0,0,0-.4,1V16.1h32.8v9.5H665c5.6,14.5,16.7,25.6,29.5,35.1ZM659.4,35.1V54.6h12.8C664.4,45.6,661.1,39.5,659.4,35.1Z"/>
    <path class="cls-1" d="M702.8,39V30.7h10a85.3,85.3,0,0,0-5-11.7l6.1-2.8h-8.3V8.9h14.5V0l11.7,0.6c1.1,0,1.7,0,1.7,1.1a1.008,1.008,0,0,1-.6,1.1l-1.1,1.1v5H744v7.8h-9.5l7.2,3.9c0.6,0.6,1.1.6,1.1,1.1,0,0.6-.6.6-1.1,1.1-1.1.6-1.7,0.6-1.7,1.1a26.226,26.226,0,0,1-2.8,6.7h8.3V39H702.8Zm28.4,37.2V74h-15v2.8h-8.9V44h33.4V76.3C740.7,76.2,731.2,76.2,731.2,76.2Zm-15-59.5a49.9,49.9,0,0,1,5,12.2l-5,2.2h10.6c2.2-5,4.5-9.5,5.6-13.9l-16.2-.5h0Zm15,36.2h-15V64.6h15V52.9Zm32.3,16.7-6.1-8.9V77.4h-9.5V4.5h29.5l3.3,5c-7.2,14.5-7.8,16.1-11.1,22.8,3.9,3.3,11.1,10,11.1,20.6C780.7,59.5,776.8,69,763.5,69.6Zm-3.4-37.3a173.992,173.992,0,0,0,7.2-20h-10V59h5c6.1,0,9.5-3.9,9.5-7.8C771.3,44,762.9,35.1,760.1,32.3Z"/>
  </g>
  <g class="cls-2">
    <path class="cls-1" d="M141.7,126.5a12.357,12.357,0,0,0,8.4,3c3.8-.1,5.8-1.5,5.8-4.2,0-2.3-1.3-3.6-3.8-4.1q-1.8-.3-3.9-0.6a9.464,9.464,0,0,1-5.8-2.9,7.873,7.873,0,0,1-2-5.6,8.358,8.358,0,0,1,2.6-6.4,10.254,10.254,0,0,1,7-2.5,16.113,16.113,0,0,1,9.5,3.1l-2.5,3.8a12.648,12.648,0,0,0-7.3-2.3,5.331,5.331,0,0,0-3.4,1.1,4,4,0,0,0-1.5,3.3,3.25,3.25,0,0,0,1,2.4,5.986,5.986,0,0,0,3.2,1.5c0.8,0.1,1.9.3,3.3,0.5,2.8,0.4,4.8,1.4,6.1,3.1a8.8,8.8,0,0,1,2,5.7c-0.1,5.8-3.6,8.8-10.3,8.9a16.068,16.068,0,0,1-11.2-4.2Z"/>
    <path class="cls-1" d="M176.5,132h0a4.213,4.213,0,0,1-1.9,1.6,7.857,7.857,0,0,1-3.4.5,7.7,7.7,0,0,1-5.4-1.9,6.188,6.188,0,0,1-2-4.7,6.444,6.444,0,0,1,1.7-4.5,7.375,7.375,0,0,1,5.1-1.9h5.8v-2.3c0-1.9-1.4-2.8-4.3-2.8a8.074,8.074,0,0,0-2.5.3,3.738,3.738,0,0,0-1.5,1.3l-3.3-2.6c1.6-2.2,4-3.2,7.1-3.2a11.751,11.751,0,0,1,6.3,1.5c1.6,1.1,2.4,2.9,2.4,5.6v14.8h-4.2V132h0.1Zm0-7.3h-5.1c-2.5.1-3.7,0.9-3.6,2.6a2.285,2.285,0,0,0,1,1.9,4.139,4.139,0,0,0,3,.9,7.976,7.976,0,0,0,3.7-.6c0.7-.5,1-1.5,1-3.1v-1.7h0Z"/>
    <path class="cls-1" d="M187.1,105.6h4.2v6.6h3.1v3.3h-3.1v12.6a1.359,1.359,0,0,0,1.5,1.6h1.6v4.1h-2.2a4.9,4.9,0,0,1-3.6-1.4,4.976,4.976,0,0,1-1.5-3.9v-13H185v-3.3h2.1v-6.6Z"/>
    <path class="cls-1" d="M201.9,124.7a5.2,5.2,0,0,0,1.5,4,4.9,4.9,0,0,0,3.6,1.4,6.347,6.347,0,0,0,4.6-2.1l3.1,2.7a9.747,9.747,0,0,1-7.6,3.5,11.27,11.27,0,0,1-3.2-.5,10.092,10.092,0,0,1-1.5-.7,13.03,13.03,0,0,1-1.5-1,8.714,8.714,0,0,1-2.2-3.4,13.825,13.825,0,0,1-.9-5.4,15.986,15.986,0,0,1,.8-5.3,9.278,9.278,0,0,1,2-3.4,7.081,7.081,0,0,1,2.8-1.8,8.025,8.025,0,0,1,3-.6,8.534,8.534,0,0,1,6.1,2.4,9.275,9.275,0,0,1,2.6,6.7v3.6H201.9v-0.1Zm8.9-3.6a5.745,5.745,0,0,0-1.3-3.8,4.6,4.6,0,0,0-6.2,0,5.955,5.955,0,0,0-1.3,3.8h8.8Z"/>
    <path class="cls-1" d="M220.1,103.5h4.2v24.8a1.359,1.359,0,0,0,1.6,1.5h1.5v4.1h-1.9a5.955,5.955,0,0,1-3.8-1.2c-1.1-.8-1.6-2.2-1.6-4.1V103.5Z"/>
    <path class="cls-1" d="M231.1,103.5h4.2v24.8a1.359,1.359,0,0,0,1.6,1.5h1.5v4.1h-1.9a5.955,5.955,0,0,1-3.8-1.2c-1.1-.8-1.6-2.2-1.6-4.1V103.5Z"/>
    <path class="cls-1" d="M242.3,103.5h4.2v4.3h-4.2v-4.3Zm0,8.7h4.2v21.7h-4.2V112.2Z"/>
    <path class="cls-1" d="M252.6,105.6h4.2v6.6h3.1v3.3h-3.1v12.6a1.359,1.359,0,0,0,1.5,1.6h1.6v4.1h-2.2a4.9,4.9,0,0,1-3.6-1.4,4.976,4.976,0,0,1-1.5-3.9v-13h-2.1v-3.3h2.1v-6.6Z"/>
    <path class="cls-1" d="M267.4,124.7a5.2,5.2,0,0,0,1.5,4,4.9,4.9,0,0,0,3.6,1.4,6.347,6.347,0,0,0,4.6-2.1l3.1,2.7a9.747,9.747,0,0,1-7.6,3.5,11.27,11.27,0,0,1-3.2-.5,10.092,10.092,0,0,1-1.5-.7,13.03,13.03,0,0,1-1.5-1,8.714,8.714,0,0,1-2.2-3.4,13.825,13.825,0,0,1-.9-5.4,15.986,15.986,0,0,1,.8-5.3,9.278,9.278,0,0,1,2-3.4,7.081,7.081,0,0,1,2.8-1.8,8.025,8.025,0,0,1,3-.6,8.534,8.534,0,0,1,6.1,2.4,9.275,9.275,0,0,1,2.6,6.7v3.6H267.4v-0.1Zm8.9-3.6a5.745,5.745,0,0,0-1.3-3.8,4.6,4.6,0,0,0-6.2,0,5.955,5.955,0,0,0-1.3,3.8h8.8Z"/>
    <path class="cls-1" d="M296.2,103.5h4.2l8.4,19.8,8.3-19.8h4.2v30.4h-4.5v-19h-0.1l-6.2,14.6h-3.7l-6.2-14.6h-0.1v19H296V103.5h0.2Z"/>
    <path class="cls-1" d="M328.4,103.5h4.2v4.3h-4.2v-4.3Zm0,8.7h4.2v21.7h-4.2V112.2Z"/>
    <path class="cls-1" d="M339.1,127.3a8.406,8.406,0,0,0,6.6,2.8,5.559,5.559,0,0,0,3-.7,2.311,2.311,0,0,0,1.2-2,1.651,1.651,0,0,0-.7-1.6,3.557,3.557,0,0,0-1.9-.5l-3.7-.3a7.353,7.353,0,0,1-4.3-1.8,5.643,5.643,0,0,1-1.7-4.3,5.869,5.869,0,0,1,2.3-5,9,9,0,0,1,5.5-1.7,19.665,19.665,0,0,1,2.6.2,7.945,7.945,0,0,1,2.2.6,11.525,11.525,0,0,1,3.5,2.2l-2.6,3.1a13.5,13.5,0,0,0-2.6-1.5,7.485,7.485,0,0,0-3.1-.5,4.279,4.279,0,0,0-2.8.7,2.241,2.241,0,0,0-.8,1.9,1.76,1.76,0,0,0,.6,1.3,3.427,3.427,0,0,0,2.1.8l3.5,0.3c2.2,0.2,3.8.8,4.7,2a7.224,7.224,0,0,1,1.4,4.4,5.842,5.842,0,0,1-2.5,4.9,10.128,10.128,0,0,1-6.2,1.8,12.971,12.971,0,0,1-9.2-3.9Z"/>
    <path class="cls-1" d="M359.6,127.3a8.406,8.406,0,0,0,6.6,2.8,5.559,5.559,0,0,0,3-.7,2.311,2.311,0,0,0,1.2-2,1.651,1.651,0,0,0-.7-1.6,3.557,3.557,0,0,0-1.9-.5l-3.7-.3a7.353,7.353,0,0,1-4.3-1.8,5.643,5.643,0,0,1-1.7-4.3,5.869,5.869,0,0,1,2.3-5,9,9,0,0,1,5.5-1.7,19.665,19.665,0,0,1,2.6.2,7.945,7.945,0,0,1,2.2.6,11.525,11.525,0,0,1,3.5,2.2l-2.6,3.1a13.5,13.5,0,0,0-2.6-1.5,7.485,7.485,0,0,0-3.1-.5,4.279,4.279,0,0,0-2.8.7,2.241,2.241,0,0,0-.8,1.9,1.76,1.76,0,0,0,.6,1.3,3.427,3.427,0,0,0,2.1.8l3.5,0.3c2.2,0.2,3.8.8,4.7,2a7.224,7.224,0,0,1,1.4,4.4,5.842,5.842,0,0,1-2.5,4.9,10.128,10.128,0,0,1-6.2,1.8,12.971,12.971,0,0,1-9.2-3.9Z"/>
    <path class="cls-1" d="M379.6,103.5h4.2v4.3h-4.2v-4.3Zm0,8.7h4.2v21.7h-4.2V112.2Z"/>
    <path class="cls-1" d="M388.7,123a23.692,23.692,0,0,1,.5-5.3,8.719,8.719,0,0,1,1.7-3,7.77,7.77,0,0,1,2.4-1.9,10.19,10.19,0,0,1,3.9-.9,7.646,7.646,0,0,1,4,.9,9.581,9.581,0,0,1,4.1,4.9,23.048,23.048,0,0,1,.5,5.3,22.074,22.074,0,0,1-.5,5.2,7.456,7.456,0,0,1-1.8,3.1,9.014,9.014,0,0,1-1,.9,8.507,8.507,0,0,1-1.4.9,7.9,7.9,0,0,1-4,.9,7.505,7.505,0,0,1-3.9-.9,9.4,9.4,0,0,1-2.4-1.8,7.261,7.261,0,0,1-1.7-3.1A31.231,31.231,0,0,1,388.7,123Zm13.1,0.1a25.564,25.564,0,0,0-.2-3.4,3.7,3.7,0,0,0-.8-1.8,3.325,3.325,0,0,0-1.4-1.2,5.2,5.2,0,0,0-4,0,3.325,3.325,0,0,0-1.4,1.2,4.941,4.941,0,0,0-.8,1.8,14.27,14.27,0,0,0-.2,3.3,23.816,23.816,0,0,0,.2,3.3,6.391,6.391,0,0,0,.8,1.9,5.256,5.256,0,0,0,1.4,1.1,4.552,4.552,0,0,0,2,.5,4.228,4.228,0,0,0,2-.5,3.836,3.836,0,0,0,2.2-3A22.127,22.127,0,0,0,401.8,123.1Z"/>
    <path class="cls-1" d="M411.1,112.2h4.2v2.3h0.1a6.78,6.78,0,0,1,5.5-2.6,7.156,7.156,0,0,1,4.8,1.9,7.37,7.37,0,0,1,2.2,5.6v14.4h-4.2V121a4.794,4.794,0,0,0-1.2-3.5,4.35,4.35,0,0,0-6,0,4.8,4.8,0,0,0-1.2,3.5v12.9h-4.2V112.2h0Z"/>
    <path class="cls-1" d="M444.7,103.5H455a9.783,9.783,0,0,1,9,5.1,9.336,9.336,0,0,1,1.4,3.6c0.1,1.3.2,3.4,0.2,6.5a51.118,51.118,0,0,1-.3,6.8,9.465,9.465,0,0,1-.5,1.8c-0.2.5-.5,1-0.8,1.6a10.963,10.963,0,0,1-3.6,3.5,9.955,9.955,0,0,1-5.6,1.5h-10V103.5h-0.1Zm4.4,26h5.3a6.117,6.117,0,0,0,5.5-2.7,6.257,6.257,0,0,0,1-2.5c0.1-1,.2-2.8.2-5.6,0-2.6-.1-4.5-0.2-5.7a5.12,5.12,0,0,0-1.2-2.8,5.921,5.921,0,0,0-5.3-2.6h-5.3v21.9Z"/>
    <path class="cls-1" d="M474.4,124.7a5.2,5.2,0,0,0,1.5,4,4.9,4.9,0,0,0,3.6,1.4,6.347,6.347,0,0,0,4.6-2.1l3.1,2.7a9.747,9.747,0,0,1-7.6,3.5,11.27,11.27,0,0,1-3.2-.5,10.092,10.092,0,0,1-1.5-.7,13.03,13.03,0,0,1-1.5-1,8.714,8.714,0,0,1-2.2-3.4,13.825,13.825,0,0,1-.9-5.4,15.986,15.986,0,0,1,.8-5.3,9.278,9.278,0,0,1,2-3.4,7.081,7.081,0,0,1,2.8-1.8,8.025,8.025,0,0,1,3-.6,8.534,8.534,0,0,1,6.1,2.4,9.275,9.275,0,0,1,2.6,6.7v3.6H474.4v-0.1Zm8.8-3.6a5.745,5.745,0,0,0-1.3-3.8,4.6,4.6,0,0,0-6.2,0,5.955,5.955,0,0,0-1.3,3.8h8.8Z"/>
    <path class="cls-1" d="M492.6,112.2h4.2v2.3a6.936,6.936,0,0,1,5.4-2.5c2.6,0.1,4.5,1,5.6,2.8a5.6,5.6,0,0,1,1.2,2.7,36.021,36.021,0,0,1,.3,5.6,34.526,34.526,0,0,1-.3,5.5,5.6,5.6,0,0,1-1.2,2.7,6.422,6.422,0,0,1-2.3,2,6.835,6.835,0,0,1-3.4.8,5.664,5.664,0,0,1-2.9-.7,8.847,8.847,0,0,1-2.5-1.8v11.1h-4.2V112.2h0.1Zm8.3,17.6a4.265,4.265,0,0,0,2.4-.6,2.891,2.891,0,0,0,1.2-1.5,5.45,5.45,0,0,0,.5-2.2v-4.9a14.19,14.19,0,0,0-.5-2.2,2.626,2.626,0,0,0-1.2-1.5,5.355,5.355,0,0,0-2.4-.5,3.593,3.593,0,0,0-2.2.6,3.435,3.435,0,0,0-1.3,1.6,8.019,8.019,0,0,0-.5,2.1,19.268,19.268,0,0,0-.1,2.4,17.7,17.7,0,0,0,.1,2.3,7.851,7.851,0,0,0,.5,2.2,3.435,3.435,0,0,0,1.3,1.6A3.593,3.593,0,0,0,500.9,129.8Z"/>
    <path class="cls-1" d="M525.8,132h0a4.213,4.213,0,0,1-1.9,1.6,7.857,7.857,0,0,1-3.4.5,7.7,7.7,0,0,1-5.4-1.9,6.189,6.189,0,0,1-2-4.7,6.443,6.443,0,0,1,1.7-4.5,7.375,7.375,0,0,1,5.1-1.9h5.8v-2.3c0-1.9-1.4-2.8-4.3-2.8a8.074,8.074,0,0,0-2.5.3,3.738,3.738,0,0,0-1.5,1.3l-3.3-2.6c1.6-2.2,4-3.2,7.1-3.2a11.751,11.751,0,0,1,6.3,1.5c1.6,1.1,2.4,2.9,2.4,5.6v14.8h-4.2V132h0.1Zm0-7.3h-5.1c-2.5.1-3.7,0.9-3.6,2.6a2.285,2.285,0,0,0,1,1.9,4.139,4.139,0,0,0,3,.9,7.976,7.976,0,0,0,3.7-.6c0.7-.5,1-1.5,1-3.1v-1.7h0Z"/>
    <path class="cls-1" d="M536.1,112.2h4.2v2.3h0.1a6.78,6.78,0,0,1,5.5-2.6,6.374,6.374,0,0,1,4.4,1.7l-3.1,3.8a4.506,4.506,0,0,0-2.8-1.1,4.12,4.12,0,0,0-4.1,4.5v13.1h-4.2V112.2h0Z"/>
    <path class="cls-1" d="M553,105.6h4.2v6.6h3.1v3.3h-3.1v12.6a1.359,1.359,0,0,0,1.5,1.6h1.6v4.1h-2.2a4.9,4.9,0,0,1-3.6-1.4,4.976,4.976,0,0,1-1.5-3.9v-13h-2.1v-3.3H553v-6.6Z"/>
    <path class="cls-1" d="M564.4,112.2h4.2v2.3h0.1a7.034,7.034,0,0,1,5.7-2.6,7.381,7.381,0,0,1,3.6.8,9.641,9.641,0,0,1,2.5,2.1,8.368,8.368,0,0,1,6.8-2.8,7.215,7.215,0,0,1,4.9,1.9,7.429,7.429,0,0,1,2.3,5.6v14.4h-4.2V121a4.8,4.8,0,0,0-1.2-3.5,4.6,4.6,0,0,0-6.2,0,4.838,4.838,0,0,0-1.3,3.5v12.9h-4.2V121a4.8,4.8,0,0,0-1.2-3.5,4.3,4.3,0,0,0-3.1-1.2,4.143,4.143,0,0,0-3.1,1.2,4.838,4.838,0,0,0-1.3,3.5v12.9h-4.2V112.2h-0.1Z"/>
    <path class="cls-1" d="M604.2,124.7a5.2,5.2,0,0,0,1.5,4,4.9,4.9,0,0,0,3.6,1.4,6.346,6.346,0,0,0,4.6-2.1l3.1,2.7a9.747,9.747,0,0,1-7.6,3.5,11.27,11.27,0,0,1-3.2-.5,10.092,10.092,0,0,1-1.5-.7,13.03,13.03,0,0,1-1.5-1,8.714,8.714,0,0,1-2.2-3.4,13.826,13.826,0,0,1-.9-5.4,15.986,15.986,0,0,1,.8-5.3,9.278,9.278,0,0,1,2-3.4,7.081,7.081,0,0,1,2.8-1.8,8.025,8.025,0,0,1,3-.6,8.534,8.534,0,0,1,6.1,2.4,9.275,9.275,0,0,1,2.6,6.7v3.6H604.2v-0.1Zm8.8-3.6a5.745,5.745,0,0,0-1.3-3.8,4.6,4.6,0,0,0-6.2,0,5.955,5.955,0,0,0-1.3,3.8H613Z"/>
    <path class="cls-1" d="M622.4,112.2h4.2v2.3h0.1a6.78,6.78,0,0,1,5.5-2.6,7.156,7.156,0,0,1,4.8,1.9,7.369,7.369,0,0,1,2.2,5.6v14.4H635V121a4.8,4.8,0,0,0-1.2-3.5,4.35,4.35,0,0,0-6,0,4.8,4.8,0,0,0-1.2,3.5v12.9h-4.2V112.2h0Z"/>
    <path class="cls-1" d="M645.6,105.6h4.2v6.6h3.1v3.3h-3.1v12.6a1.359,1.359,0,0,0,1.5,1.6h1.6v4.1h-2.2a4.9,4.9,0,0,1-3.6-1.4,4.976,4.976,0,0,1-1.5-3.9v-13h-2.1v-3.3h2.1v-6.6Z"/>
  </g>
</svg>
