<?xml version="1.0" encoding="utf-8"?>
<!-- Generator: Adobe Illustrator 19.2.1, SVG Export Plug-In . SVG Version: 6.00 Build 0)  -->
<svg version="1.1" id="レイヤー_1" xmlns="http://www.w3.org/2000/svg" xmlns:xlink="http://www.w3.org/1999/xlink" x="0px"
	 y="0px" viewBox="0 0 140.3 26.2" style="enable-background:new 0 0 140.3 26.2;" xml:space="preserve">
<style type="text/css">
	.st0{fill:#FFFFFF;}
	.st1{enable-background:new    ;}
</style>
<g>
	<path class="st0" d="M13.3,5.9v5.8c0,2.1-0.2,2.3-2.3,2.3l-0.6-1.8c0.2,0,0.4,0.1,0.9,0.1c0.4,0,0.4-0.1,0.4-0.6V5.9h-1.4V4.5h-6
		V4.1c-0.1,0-0.1,0-0.1,0.1C4,4.7,3.9,4.9,3.5,5.5c0.1,0,0.4,0.1,0.4,0.3c0,0.1,0,0.1-0.2,0.3C3.6,6.2,3.5,6.3,3.5,6.4V14H1.9V7.8
		C1.7,8,1.6,8.2,1.4,8.4L0,7.4C1.3,6.2,2.3,4.7,2.9,3l1.4,0.7V3.2h0.9l0.2-0.8H4.6V1.2h1.3L6.3,0l1.4,0.2C7.8,0.3,8,0.3,8,0.4
		s0,0.1-0.1,0.1C7.6,0.7,7.6,0.8,7.6,0.8L7.5,1.2h2.4v1.9h0.6v1.2h4v1.5L13.3,5.9L13.3,5.9z M4.2,1.3c-0.3,0-0.3,0-0.4,0.2
		c-0.6,0.7-1,1.1-2.1,1.9L0.4,2.2c0.7-0.4,1.5-1,2.4-2.2l1.5,0.8c0,0.1,0.2,0.2,0.2,0.4C4.5,1.3,4.4,1.3,4.2,1.3z M8.4,12.1v1.7H6.7
		v-1.7H3.8v-1.2h0.5V8.7h2.4V8.1h-2V5H10v3.1H8.4v0.7h1.8V10H8.4v1h2.1v1.2L8.4,12.1L8.4,12.1z M6.7,9.9h-1v1h1V9.9z M8.5,6.1H6V7
		h2.5V6.1z M8.3,2.4H7.1L6.9,3.2h1.4V2.4z M10.4,2.2V0.6h3.7v1.6H10.4z"/>
	<path class="st0" d="M16.4,13.7V12h5.9v-1.1h-3.5V9.4h3.5V8.5h-3c-0.8,1-1.2,1.4-1.5,1.7l-1.8-1c1.3-1,1.9-1.9,2.7-3.1h-0.9V0.5
		h10.9v5.4h-5.9l1.6,0.2c0.1,0,0.3,0,0.3,0.2s-0.2,0.2-0.4,0.3V7h4.6v1.5h-4.6v0.8h3.4v1.5h-3.4V12H30v1.7H16.4z M26.8,1.8h-7.1v0.8
		h7.1V1.8z M26.8,3.8h-7.1v0.8h7.1V3.8z M22.3,5.9h-2.4l0.6,0.4c0.2,0.1,0.2,0.2,0.2,0.3c0,0.1,0,0.2-0.2,0.2
		c-0.2,0.1-0.2,0.1-0.3,0.2h2L22.3,5.9L22.3,5.9z"/>
	<path class="st0" d="M42.5,14.1c-2.4-1.6-4.9-2.7-7.9-3.6l0.5-1.8c3.7,1,6.1,2.2,8,3.4L42.5,14.1z M42,4.3c-2-1.3-4.3-2-6.6-2.4
		L35.6,0c2.4,0.4,5,1.4,6.8,2.4L42,4.3z M41.4,8.5c-1.9-1.2-4.3-2-5.5-2.3l0.4-1.7c1.8,0.4,4.3,1.4,5.6,2.2L41.4,8.5z"/>
	<path class="st0" d="M51,7.8c-0.3-0.9-0.7-1.8-1.2-2.6l1.5-0.6c0.5,0.9,1,1.7,1.2,2.6L51,7.8z M59.4,5c-0.1,0.1-0.2,0.1-0.3,0.8
		c-1.2,4.9-4.4,6.8-6,7.7l-1.3-1.1c3.1-1.5,5.3-3.7,5.9-8.3l1.6,0.5c0.2,0.1,0.3,0.2,0.3,0.3C59.6,4.9,59.5,4.9,59.4,5z M54,7.1
		c-0.3-1-0.6-1.8-1.1-2.6L54.3,4c0.6,0.9,0.9,1.9,1.1,2.6L54,7.1z"/>
	<path class="st0" d="M67.8,7.1C67,6.6,66,6,64.7,5.5l0.9-1.6c1.2,0.4,2.2,0.9,3.2,1.7L67.8,7.1z M72.6,10c-2.2,1.8-4,2.8-5.5,3.5
		c-0.1,0-0.1,0.1-0.1,0.2c-0.1,0.2-0.1,0.3-0.2,0.3c-0.2,0-0.3-0.3-0.4-0.4l-0.8-1.5c4-1.7,6.9-3.8,9.6-7.7l1.3,1.5
		C75.8,6.7,74.7,8.2,72.6,10z M69.5,3.4c-0.9-0.7-2-1.2-3.1-1.6l0.9-1.6c1.2,0.4,2.2,0.9,3.1,1.6L69.5,3.4z"/>
	<path class="st0" d="M88.5,13.3v-0.6h-6.7v-1.4h6.7v-2H82V7.9h6.5V5.8h-6.6V4.4H90v8.9C90,13.3,88.5,13.3,88.5,13.3z"/>
	<path class="st0" d="M99.4,4.6c-0.9-0.8-2-1.4-3.3-2l1-1.5c1.1,0.5,2.4,1.2,3.4,2L99.4,4.6z M104.1,9c-2.5,2.1-4.1,2.7-6,3.6
		C98,12.8,98,13,97.9,13s-0.2-0.1-0.4-0.3l-1.1-1.9c1.3-0.3,3.4-0.8,5.9-2.8c2.5-1.8,4-3.9,4.7-4.9l1.1,1.6
		C107.5,5.6,106.3,7.2,104.1,9z"/>
	<path class="st0" d="M123.3,12c-0.8-0.6-1.5-1.1-2.5-2.2v1.6h-2.3V14h-1.9v-2.6h-2.2V9.8h2.2V6.1c-1,2.1-2.9,4.6-4.6,6.1l-1.5-1.1
		c2.1-1.6,4.2-4.5,5-6.7h-4.8V2.7h5.9V0.1l1.6,0.1c0.2,0,0.6,0.1,0.6,0.3c0,0.1,0,0.1-0.1,0.2s-0.1,0.1-0.1,0.2v2h5.9v1.7h-5
		c1,2.6,3,4.6,5.3,6.3L123.3,12z M118.5,6.3v3.5h2.3C119.4,8.2,118.8,7.1,118.5,6.3z"/>
	<path class="st0" d="M126.3,7V5.5h1.8c-0.3-0.9-0.6-1.5-0.9-2.1l1.1-0.5h-1.5V1.6h2.6V0l2.1,0.1c0.2,0,0.3,0,0.3,0.2
		c0,0.1,0,0.1-0.1,0.2c-0.2,0.2-0.2,0.2-0.2,0.2v0.9h2.2V3H132l1.3,0.7c0.1,0.1,0.2,0.1,0.2,0.2c0,0.1-0.1,0.1-0.2,0.2
		c-0.2,0.1-0.3,0.1-0.3,0.2c-0.2,0.7-0.4,1-0.5,1.2h1.5V7H126.3z M131.4,13.7v-0.4h-2.7v0.5h-1.6V7.9h6v5.8
		C133.1,13.7,131.4,13.7,131.4,13.7z M128.7,3c0.5,0.9,0.7,1.5,0.9,2.2l-0.9,0.4h1.9c0.4-0.9,0.8-1.7,1-2.5L128.7,3L128.7,3z
		 M131.4,9.5h-2.7v2.1h2.7V9.5z M137.2,12.5l-1.1-1.6v3h-1.7V0.8h5.3l0.6,0.9c-1.3,2.6-1.4,2.9-2,4.1c0.7,0.6,2,1.8,2,3.7
		C140.3,10.7,139.6,12.4,137.2,12.5z M136.6,5.8c0.3-0.7,0.9-2.2,1.3-3.6h-1.8v8.4c0.3,0,0.7,0,0.9,0c1.1,0,1.7-0.7,1.7-1.4
		C138.6,7.9,137.1,6.3,136.6,5.8z"/>
</g>
<g>
	<g class="st1">
		<path class="st0" d="M25.5,22.7c0.4,0.4,0.9,0.5,1.5,0.5c0.7,0,1-0.3,1-0.8c0-0.4-0.2-0.7-0.7-0.7c-0.2,0-0.4-0.1-0.7-0.1
			c-0.5-0.1-0.8-0.3-1-0.5c-0.2-0.3-0.4-0.6-0.4-1c0-0.5,0.2-0.9,0.5-1.2c0.3-0.3,0.7-0.4,1.3-0.4c0.7,0,1.2,0.2,1.7,0.6l-0.4,0.7
			c-0.4-0.3-0.8-0.4-1.3-0.4c-0.2,0-0.5,0.1-0.6,0.2c-0.2,0.1-0.3,0.3-0.3,0.6c0,0.2,0.1,0.3,0.2,0.4c0.1,0.1,0.3,0.2,0.6,0.3
			c0.1,0,0.3,0.1,0.6,0.1c0.5,0.1,0.9,0.3,1.1,0.6c0.2,0.3,0.4,0.6,0.4,1c0,1-0.6,1.6-1.9,1.6c-0.8,0-1.5-0.2-2-0.7L25.5,22.7z"/>
		<path class="st0" d="M31.7,23.7L31.7,23.7c-0.1,0.1-0.2,0.2-0.3,0.3c-0.1,0.1-0.3,0.1-0.6,0.1c-0.4,0-0.7-0.1-1-0.3
			c-0.2-0.2-0.4-0.5-0.4-0.8c0-0.3,0.1-0.6,0.3-0.8c0.2-0.2,0.5-0.3,0.9-0.3h1v-0.4c0-0.3-0.3-0.5-0.8-0.5c-0.2,0-0.3,0-0.4,0.1
			c-0.1,0-0.2,0.1-0.3,0.2l-0.6-0.5c0.3-0.4,0.7-0.6,1.3-0.6c0.5,0,0.9,0.1,1.1,0.3c0.3,0.2,0.4,0.5,0.4,1v2.7h-0.8V23.7z
			 M31.7,22.4h-0.9c-0.4,0-0.7,0.2-0.7,0.5c0,0.1,0.1,0.2,0.2,0.3c0.1,0.1,0.3,0.2,0.5,0.2c0.3,0,0.5,0,0.7-0.1
			c0.1-0.1,0.2-0.3,0.2-0.6V22.4z"/>
		<path class="st0" d="M33.6,19h0.8v1.2h0.6v0.6h-0.6V23c0,0.2,0.1,0.3,0.3,0.3h0.3v0.7h-0.4c-0.3,0-0.5-0.1-0.7-0.3
			c-0.2-0.2-0.3-0.4-0.3-0.7v-2.3h-0.4v-0.6h0.4V19z"/>
		<path class="st0" d="M36.3,22.4c0,0.3,0.1,0.6,0.3,0.7c0.2,0.2,0.4,0.2,0.6,0.2c0.3,0,0.6-0.1,0.8-0.4l0.5,0.5
			c-0.4,0.4-0.8,0.6-1.4,0.6c-0.2,0-0.4,0-0.6-0.1c-0.1,0-0.2-0.1-0.3-0.1c-0.1,0-0.2-0.1-0.3-0.2c-0.2-0.1-0.3-0.3-0.4-0.6
			c-0.1-0.2-0.2-0.6-0.2-1c0-0.4,0-0.7,0.1-1c0.1-0.3,0.2-0.5,0.4-0.6c0.1-0.2,0.3-0.3,0.5-0.3c0.2-0.1,0.4-0.1,0.5-0.1
			c0.4,0,0.8,0.2,1.1,0.4c0.3,0.3,0.5,0.7,0.5,1.2v0.6H36.3z M37.9,21.8c0-0.3-0.1-0.5-0.2-0.7c-0.1-0.1-0.3-0.2-0.6-0.2
			c-0.2,0-0.4,0.1-0.6,0.2c-0.1,0.2-0.2,0.4-0.2,0.7H37.9z"/>
		<path class="st0" d="M39.6,18.6h0.8v4.5c0,0.2,0.1,0.3,0.3,0.3h0.3v0.7h-0.3c-0.3,0-0.5-0.1-0.7-0.2c-0.2-0.1-0.3-0.4-0.3-0.7
			V18.6z"/>
		<path class="st0" d="M41.5,18.6h0.8v4.5c0,0.2,0.1,0.3,0.3,0.3h0.3v0.7h-0.3c-0.3,0-0.5-0.1-0.7-0.2c-0.2-0.1-0.3-0.4-0.3-0.7
			V18.6z"/>
		<path class="st0" d="M43.5,18.6h0.8v0.8h-0.8V18.6z M43.5,20.2h0.8v3.9h-0.8V20.2z"/>
		<path class="st0" d="M45.4,19h0.8v1.2h0.6v0.6h-0.6V23c0,0.2,0.1,0.3,0.3,0.3h0.3v0.7h-0.4c-0.3,0-0.5-0.1-0.7-0.3
			c-0.2-0.2-0.3-0.4-0.3-0.7v-2.3H45v-0.6h0.4V19z"/>
		<path class="st0" d="M48.1,22.4c0,0.3,0.1,0.6,0.3,0.7c0.2,0.2,0.4,0.2,0.6,0.2c0.3,0,0.6-0.1,0.8-0.4l0.5,0.5
			c-0.4,0.4-0.8,0.6-1.4,0.6c-0.2,0-0.4,0-0.6-0.1c-0.1,0-0.2-0.1-0.3-0.1c-0.1,0-0.2-0.1-0.3-0.2c-0.2-0.1-0.3-0.3-0.4-0.6
			c-0.1-0.2-0.2-0.6-0.2-1c0-0.4,0-0.7,0.1-1c0.1-0.3,0.2-0.5,0.4-0.6c0.1-0.2,0.3-0.3,0.5-0.3c0.2-0.1,0.4-0.1,0.5-0.1
			c0.4,0,0.8,0.2,1.1,0.4c0.3,0.3,0.5,0.7,0.5,1.2v0.6H48.1z M49.6,21.8c0-0.3-0.1-0.5-0.2-0.7c-0.1-0.1-0.3-0.2-0.6-0.2
			c-0.2,0-0.4,0.1-0.6,0.2c-0.1,0.2-0.2,0.4-0.2,0.7H49.6z"/>
		<path class="st0" d="M53.2,18.6H54l1.5,3.6l1.5-3.6h0.8v5.5H57v-3.4h0l-1.1,2.6h-0.7L54,20.6h0v3.4h-0.8V18.6z"/>
		<path class="st0" d="M59,18.6h0.8v0.8H59V18.6z M59,20.2h0.8v3.9H59V20.2z"/>
		<path class="st0" d="M60.9,22.9c0.3,0.3,0.7,0.5,1.2,0.5c0.2,0,0.4,0,0.5-0.1c0.1-0.1,0.2-0.2,0.2-0.4c0-0.1,0-0.2-0.1-0.3
			c-0.1-0.1-0.2-0.1-0.3-0.1l-0.7-0.1c-0.3,0-0.6-0.1-0.8-0.3c-0.2-0.2-0.3-0.4-0.3-0.8c0-0.4,0.1-0.7,0.4-0.9
			c0.3-0.2,0.6-0.3,1-0.3c0.2,0,0.3,0,0.5,0c0.1,0,0.3,0.1,0.4,0.1c0.2,0.1,0.4,0.2,0.6,0.4l-0.5,0.6c-0.1-0.1-0.3-0.2-0.5-0.3
			c-0.2-0.1-0.3-0.1-0.6-0.1c-0.2,0-0.4,0-0.5,0.1c-0.1,0.1-0.1,0.2-0.1,0.3c0,0.1,0,0.2,0.1,0.2c0.1,0.1,0.2,0.1,0.4,0.1l0.6,0
			c0.4,0,0.7,0.2,0.9,0.4c0.2,0.2,0.2,0.5,0.2,0.8c0,0.4-0.2,0.7-0.4,0.9c-0.3,0.2-0.7,0.3-1.1,0.3c-0.6,0-1.2-0.2-1.7-0.7
			L60.9,22.9z"/>
		<path class="st0" d="M64.6,22.9c0.3,0.3,0.7,0.5,1.2,0.5c0.2,0,0.4,0,0.5-0.1c0.1-0.1,0.2-0.2,0.2-0.4c0-0.1,0-0.2-0.1-0.3
			c-0.1-0.1-0.2-0.1-0.3-0.1l-0.7-0.1c-0.3,0-0.6-0.1-0.8-0.3c-0.2-0.2-0.3-0.4-0.3-0.8c0-0.4,0.1-0.7,0.4-0.9
			c0.3-0.2,0.6-0.3,1-0.3c0.2,0,0.3,0,0.5,0c0.1,0,0.3,0.1,0.4,0.1c0.2,0.1,0.4,0.2,0.6,0.4l-0.5,0.6c-0.1-0.1-0.3-0.2-0.5-0.3
			c-0.2-0.1-0.3-0.1-0.6-0.1c-0.2,0-0.4,0-0.5,0.1c-0.1,0.1-0.1,0.2-0.1,0.3c0,0.1,0,0.2,0.1,0.2c0.1,0.1,0.2,0.1,0.4,0.1l0.6,0
			c0.4,0,0.7,0.2,0.9,0.4c0.2,0.2,0.2,0.5,0.2,0.8c0,0.4-0.2,0.7-0.4,0.9c-0.3,0.2-0.7,0.3-1.1,0.3c-0.6,0-1.2-0.2-1.7-0.7
			L64.6,22.9z"/>
		<path class="st0" d="M68.2,18.6H69v0.8h-0.8V18.6z M68.2,20.2H69v3.9h-0.8V20.2z"/>
		<path class="st0" d="M69.8,22.1c0-0.4,0-0.7,0.1-0.9c0.1-0.2,0.2-0.4,0.3-0.5c0.1-0.1,0.2-0.2,0.4-0.3c0.2-0.1,0.4-0.1,0.7-0.2
			c0.3,0,0.5,0.1,0.7,0.2c0.2,0.1,0.3,0.2,0.4,0.3c0.1,0.1,0.3,0.3,0.3,0.5c0.1,0.2,0.1,0.5,0.1,0.9c0,0.4,0,0.7-0.1,0.9
			c-0.1,0.2-0.2,0.4-0.3,0.6c0,0.1-0.1,0.1-0.2,0.2c-0.1,0.1-0.1,0.1-0.2,0.2c-0.2,0.1-0.4,0.2-0.7,0.2c-0.3,0-0.5-0.1-0.7-0.2
			c-0.2-0.1-0.3-0.2-0.4-0.3c-0.1-0.2-0.2-0.3-0.3-0.6C69.9,22.8,69.8,22.5,69.8,22.1z M72.2,22.1c0-0.3,0-0.5,0-0.6
			c0-0.1-0.1-0.2-0.1-0.3C72,21.1,71.9,21,71.8,21c-0.1-0.1-0.2-0.1-0.4-0.1c-0.1,0-0.2,0-0.4,0.1c-0.1,0.1-0.2,0.1-0.3,0.2
			c-0.1,0.1-0.1,0.2-0.1,0.3c0,0.1,0,0.3,0,0.6c0,0.3,0,0.5,0,0.6c0,0.1,0.1,0.2,0.1,0.3c0.1,0.1,0.2,0.1,0.3,0.2
			c0.1,0.1,0.2,0.1,0.4,0.1c0.1,0,0.3,0,0.4-0.1c0.1-0.1,0.2-0.1,0.2-0.2c0.1-0.1,0.1-0.2,0.1-0.3C72.2,22.6,72.2,22.4,72.2,22.1z"
			/>
		<path class="st0" d="M73.9,20.2h0.8v0.4h0c0.2-0.3,0.6-0.5,1-0.5c0.3,0,0.6,0.1,0.9,0.3c0.3,0.2,0.4,0.6,0.4,1v2.6h-0.8v-2.3
			c0-0.3-0.1-0.5-0.2-0.6c-0.1-0.1-0.3-0.2-0.5-0.2S75,21,74.8,21.1c-0.1,0.1-0.2,0.4-0.2,0.6v2.3h-0.8V20.2z"/>
		<path class="st0" d="M79.9,18.6h1.9c0.7,0,1.3,0.3,1.6,0.9c0.1,0.2,0.2,0.4,0.2,0.6c0,0.2,0,0.6,0,1.2c0,0.6,0,1-0.1,1.2
			c0,0.1,0,0.2-0.1,0.3c0,0.1-0.1,0.2-0.1,0.3c-0.2,0.3-0.4,0.5-0.6,0.6c-0.3,0.2-0.6,0.3-1,0.3h-1.8V18.6z M80.7,23.3h1
			c0.5,0,0.8-0.2,1-0.5c0.1-0.1,0.1-0.3,0.2-0.4c0-0.2,0-0.5,0-1c0-0.5,0-0.8,0-1c0-0.2-0.1-0.4-0.2-0.5c-0.2-0.3-0.5-0.5-0.9-0.5
			h-1V23.3z"/>
		<path class="st0" d="M85.2,22.4c0,0.3,0.1,0.6,0.3,0.7c0.2,0.2,0.4,0.2,0.6,0.2c0.3,0,0.6-0.1,0.8-0.4l0.5,0.5
			c-0.4,0.4-0.8,0.6-1.4,0.6c-0.2,0-0.4,0-0.6-0.1c-0.1,0-0.2-0.1-0.3-0.1c-0.1,0-0.2-0.1-0.3-0.2c-0.2-0.1-0.3-0.3-0.4-0.6
			c-0.1-0.2-0.2-0.6-0.2-1c0-0.4,0-0.7,0.1-1c0.1-0.3,0.2-0.5,0.4-0.6c0.1-0.2,0.3-0.3,0.5-0.3c0.2-0.1,0.4-0.1,0.5-0.1
			c0.4,0,0.8,0.2,1.1,0.4c0.3,0.3,0.5,0.7,0.5,1.2v0.6H85.2z M86.8,21.8c0-0.3-0.1-0.5-0.2-0.7c-0.1-0.1-0.3-0.2-0.6-0.2
			s-0.4,0.1-0.6,0.2c-0.1,0.2-0.2,0.4-0.2,0.7H86.8z"/>
		<path class="st0" d="M88.5,20.2h0.8v0.4c0.3-0.3,0.6-0.4,1-0.5c0.5,0,0.8,0.2,1,0.5c0.1,0.1,0.2,0.3,0.2,0.5c0,0.2,0.1,0.5,0.1,1
			c0,0.5,0,0.8-0.1,1c0,0.2-0.1,0.4-0.2,0.5c-0.1,0.1-0.2,0.3-0.4,0.4c-0.2,0.1-0.4,0.1-0.6,0.1c-0.2,0-0.4,0-0.5-0.1
			c-0.2-0.1-0.3-0.2-0.5-0.3v2h-0.8V20.2z M90,23.3c0.2,0,0.3,0,0.4-0.1c0.1-0.1,0.2-0.2,0.2-0.3c0-0.1,0.1-0.2,0.1-0.4
			c0-0.1,0-0.3,0-0.4c0-0.2,0-0.3,0-0.5c0-0.1,0-0.3-0.1-0.4c0-0.1-0.1-0.2-0.2-0.3c-0.1-0.1-0.2-0.1-0.4-0.1c-0.2,0-0.3,0-0.4,0.1
			c-0.1,0.1-0.2,0.2-0.2,0.3c0,0.1-0.1,0.2-0.1,0.4c0,0.1,0,0.3,0,0.4c0,0.1,0,0.3,0,0.4c0,0.1,0,0.3,0.1,0.4c0,0.1,0.1,0.2,0.2,0.3
			C89.7,23.3,89.8,23.3,90,23.3z"/>
		<path class="st0" d="M94.5,23.7L94.5,23.7c-0.1,0.1-0.2,0.2-0.3,0.3c-0.1,0.1-0.3,0.1-0.6,0.1c-0.4,0-0.7-0.1-1-0.3
			c-0.2-0.2-0.4-0.5-0.4-0.8c0-0.3,0.1-0.6,0.3-0.8c0.2-0.2,0.5-0.3,0.9-0.3h1v-0.4c0-0.3-0.3-0.5-0.8-0.5c-0.2,0-0.3,0-0.4,0.1
			c-0.1,0-0.2,0.1-0.3,0.2l-0.6-0.5c0.3-0.4,0.7-0.6,1.3-0.6c0.5,0,0.9,0.1,1.1,0.3c0.3,0.2,0.4,0.5,0.4,1v2.7h-0.8V23.7z
			 M94.5,22.4h-0.9c-0.4,0-0.7,0.2-0.7,0.5c0,0.1,0.1,0.2,0.2,0.3c0.1,0.1,0.3,0.2,0.5,0.2c0.3,0,0.5,0,0.7-0.1
			c0.1-0.1,0.2-0.3,0.2-0.6V22.4z"/>
		<path class="st0" d="M96.3,20.2h0.8v0.4h0c0.2-0.3,0.6-0.5,1-0.5c0.3,0,0.6,0.1,0.8,0.3l-0.6,0.7c-0.2-0.1-0.3-0.2-0.5-0.2
			c-0.2,0-0.4,0.1-0.5,0.2c-0.2,0.1-0.2,0.3-0.2,0.6v2.3h-0.8V20.2z"/>
		<path class="st0" d="M99.4,19h0.8v1.2h0.6v0.6h-0.6V23c0,0.2,0.1,0.3,0.3,0.3h0.3v0.7h-0.4c-0.3,0-0.5-0.1-0.7-0.3
			c-0.2-0.2-0.3-0.4-0.3-0.7v-2.3H99v-0.6h0.4V19z"/>
		<path class="st0" d="M101.4,20.2h0.8v0.4h0c0.3-0.3,0.6-0.5,1-0.5c0.3,0,0.5,0.1,0.7,0.1c0.2,0.1,0.3,0.2,0.4,0.4
			c0.3-0.3,0.7-0.5,1.2-0.5c0.3,0,0.6,0.1,0.9,0.3c0.3,0.2,0.4,0.6,0.4,1v2.6h-0.8v-2.3c0-0.3-0.1-0.5-0.2-0.6
			c-0.1-0.1-0.3-0.2-0.6-0.2c-0.2,0-0.4,0.1-0.6,0.2c-0.2,0.1-0.2,0.4-0.2,0.6v2.3h-0.8v-2.3c0-0.3-0.1-0.5-0.2-0.6
			c-0.1-0.1-0.3-0.2-0.6-0.2s-0.4,0.1-0.6,0.2c-0.2,0.1-0.2,0.4-0.2,0.6v2.3h-0.8V20.2z"/>
		<path class="st0" d="M108.6,22.4c0,0.3,0.1,0.6,0.3,0.7c0.2,0.2,0.4,0.2,0.6,0.2c0.3,0,0.6-0.1,0.8-0.4l0.5,0.5
			c-0.4,0.4-0.8,0.6-1.4,0.6c-0.2,0-0.4,0-0.6-0.1c-0.1,0-0.2-0.1-0.3-0.1c-0.1,0-0.2-0.1-0.3-0.2c-0.2-0.1-0.3-0.3-0.4-0.6
			c-0.1-0.2-0.2-0.6-0.2-1c0-0.4,0-0.7,0.1-1c0.1-0.3,0.2-0.5,0.4-0.6c0.2-0.2,0.3-0.3,0.5-0.3c0.2-0.1,0.4-0.1,0.5-0.1
			c0.4,0,0.8,0.2,1.1,0.4c0.3,0.3,0.5,0.7,0.5,1.2v0.6H108.6z M110.2,21.8c0-0.3-0.1-0.5-0.2-0.7c-0.1-0.1-0.3-0.2-0.6-0.2
			c-0.2,0-0.4,0.1-0.6,0.2c-0.1,0.2-0.2,0.4-0.2,0.7H110.2z"/>
		<path class="st0" d="M111.8,20.2h0.8v0.4h0c0.2-0.3,0.6-0.5,1-0.5c0.3,0,0.6,0.1,0.9,0.3c0.3,0.2,0.4,0.6,0.4,1v2.6h-0.8v-2.3
			c0-0.3-0.1-0.5-0.2-0.6c-0.1-0.1-0.3-0.2-0.5-0.2s-0.4,0.1-0.5,0.2c-0.1,0.1-0.2,0.4-0.2,0.6v2.3h-0.8V20.2z"/>
		<path class="st0" d="M116,19h0.8v1.2h0.6v0.6h-0.6V23c0,0.2,0.1,0.3,0.3,0.3h0.3v0.7h-0.4c-0.3,0-0.5-0.1-0.7-0.3
			c-0.2-0.2-0.3-0.4-0.3-0.7v-2.3h-0.4v-0.6h0.4V19z"/>
	</g>
</g>
</svg>
